<ttFont>
    <TTGlyph name="A" xMin="110" yMin="-5" xMax="573" yMax="755">
      <contour>
        <pt x="573" y="597" on="1"/>
        <pt x="573" y="18" on="1"/>
        <pt x="573" y="-5" on="0"/>
        <pt x="493" y="-5" on="0"/>
        <pt x="493" y="18" on="1"/>
        <pt x="493" y="289" on="1"/>
        <pt x="190" y="289" on="1"/>
        <pt x="190" y="18" on="1"/>
        <pt x="190" y="-5" on="0"/>
        <pt x="110" y="-5" on="0"/>
        <pt x="110" y="18" on="1"/>
        <pt x="110" y="597" on="1"/>
        <pt x="110" y="653" on="0"/>
        <pt x="176" y="726" on="0"/>
        <pt x="278" y="755" on="0"/>
        <pt x="347" y="755" on="1"/>
        <pt x="573" y="755" on="0"/>
      </contour>
      <contour>
        <pt x="190" y="607" on="1"/>
        <pt x="190" y="359" on="1"/>
        <pt x="493" y="359" on="1"/>
        <pt x="493" y="607" on="1"/>
        <pt x="493" y="685" on="0"/>
        <pt x="190" y="685" on="0"/>
      </contour>
    </TTGlyph>
    <TTGlyph name="AE" xMin="110" yMin="-15" xMax="905" yMax="755">
      <contour>
        <pt x="110" y="597" on="1"/>
        <pt x="110" y="755" on="0"/>
        <pt x="342" y="755" on="1"/>
        <pt x="452" y="755" on="0"/>
        <pt x="504" y="702" on="1"/>
        <pt x="560" y="755" on="0"/>
        <pt x="685" y="755" on="1"/>
        <pt x="774" y="755" on="0"/>
        <pt x="884" y="679" on="0"/>
        <pt x="884" y="597" on="1"/>
        <pt x="884" y="582" on="1"/>
        <pt x="884" y="559" on="0"/>
        <pt x="804" y="559" on="0"/>
        <pt x="804" y="582" on="1"/>
        <pt x="804" y="607" on="1"/>
        <pt x="804" y="685" on="0"/>
        <pt x="543" y="685" on="0"/>
        <pt x="543" y="607" on="1"/>
        <pt x="543" y="504" on="1"/>
        <pt x="543" y="462" on="0"/>
        <pt x="594" y="416" on="0"/>
        <pt x="641" y="416" on="1"/>
        <pt x="735" y="416" on="1"/>
        <pt x="755" y="416" on="0"/>
        <pt x="755" y="346" on="0"/>
        <pt x="735" y="346" on="1"/>
        <pt x="650" y="346" on="1"/>
        <pt x="542" y="346" on="0"/>
        <pt x="542" y="258" on="1"/>
        <pt x="542" y="133" on="1"/>
        <pt x="542" y="55" on="0"/>
        <pt x="825" y="55" on="0"/>
        <pt x="825" y="133" on="1"/>
        <pt x="825" y="205" on="1"/>
        <pt x="825" y="228" on="0"/>
        <pt x="905" y="228" on="0"/>
        <pt x="905" y="205" on="1"/>
        <pt x="905" y="143" on="1"/>
        <pt x="905" y="60" on="0"/>
        <pt x="785" y="-15" on="0"/>
        <pt x="584" y="-15" on="0"/>
        <pt x="462" y="60" on="0"/>
        <pt x="462" y="143" on="1"/>
        <pt x="462" y="228" on="1"/>
        <pt x="462" y="319" on="0"/>
        <pt x="529" y="346" on="1"/>
        <pt x="185" y="346" on="1"/>
        <pt x="185" y="18" on="1"/>
        <pt x="185" y="-5" on="0"/>
        <pt x="110" y="-5" on="0"/>
        <pt x="110" y="18" on="1"/>
      </contour>
      <contour>
        <pt x="185" y="607" on="1"/>
        <pt x="185" y="416" on="1"/>
        <pt x="530" y="416" on="1"/>
        <pt x="462" y="442" on="0"/>
        <pt x="462" y="534" on="1"/>
        <pt x="462" y="626" on="1"/>
        <pt x="462" y="657" on="0"/>
        <pt x="385" y="685" on="0"/>
        <pt x="327" y="685" on="1"/>
        <pt x="185" y="685" on="0"/>
      </contour>
    </TTGlyph>
    <TTGlyph name="Aacute" xMin="110" yMin="-5" xMax="573" yMax="986">
      <contour>
        <pt x="573" y="597" on="1"/>
        <pt x="573" y="18" on="1"/>
        <pt x="573" y="-5" on="0"/>
        <pt x="493" y="-5" on="0"/>
        <pt x="493" y="18" on="1"/>
        <pt x="493" y="289" on="1"/>
        <pt x="190" y="289" on="1"/>
        <pt x="190" y="18" on="1"/>
        <pt x="190" y="-5" on="0"/>
        <pt x="110" y="-5" on="0"/>
        <pt x="110" y="18" on="1"/>
        <pt x="110" y="597" on="1"/>
        <pt x="110" y="653" on="0"/>
        <pt x="176" y="726" on="0"/>
        <pt x="278" y="755" on="0"/>
        <pt x="347" y="755" on="1"/>
        <pt x="573" y="755" on="0"/>
      </contour>
      <contour>
        <pt x="190" y="607" on="1"/>
        <pt x="190" y="359" on="1"/>
        <pt x="493" y="359" on="1"/>
        <pt x="493" y="607" on="1"/>
        <pt x="493" y="685" on="0"/>
        <pt x="190" y="685" on="0"/>
      </contour>
      <contour>
        <pt x="263" y="810" on="1"/>
        <pt x="256" y="807" on="1"/>
        <pt x="247" y="807" on="0"/>
        <pt x="224" y="841" on="0"/>
        <pt x="224" y="860" on="0"/>
        <pt x="231" y="866" on="1"/>
        <pt x="400" y="982" on="1"/>
        <pt x="405" y="986" on="0"/>
        <pt x="427" y="986" on="0"/>
        <pt x="459" y="937" on="0"/>
        <pt x="459" y="904" on="0"/>
        <pt x="448" y="898" on="1"/>
      </contour>
    </TTGlyph>
    <TTGlyph name="Acircumflex" xMin="110" yMin="-5" xMax="573" yMax="986">
      <contour>
        <pt x="573" y="597" on="1"/>
        <pt x="573" y="18" on="1"/>
        <pt x="573" y="-5" on="0"/>
        <pt x="493" y="-5" on="0"/>
        <pt x="493" y="18" on="1"/>
        <pt x="493" y="289" on="1"/>
        <pt x="190" y="289" on="1"/>
        <pt x="190" y="18" on="1"/>
        <pt x="190" y="-5" on="0"/>
        <pt x="110" y="-5" on="0"/>
        <pt x="110" y="18" on="1"/>
        <pt x="110" y="597" on="1"/>
        <pt x="110" y="653" on="0"/>
        <pt x="176" y="726" on="0"/>
        <pt x="278" y="755" on="0"/>
        <pt x="347" y="755" on="1"/>
        <pt x="573" y="755" on="0"/>
      </contour>
      <contour>
        <pt x="190" y="607" on="1"/>
        <pt x="190" y="359" on="1"/>
        <pt x="493" y="359" on="1"/>
        <pt x="493" y="607" on="1"/>
        <pt x="493" y="685" on="0"/>
        <pt x="190" y="685" on="0"/>
      </contour>
      <contour>
        <pt x="336" y="986" on="1"/>
        <pt x="347" y="986" on="1"/>
        <pt x="352" y="986" on="0"/>
        <pt x="356" y="982" on="1"/>
        <pt x="476" y="866" on="1"/>
        <pt x="483" y="859" on="0"/>
        <pt x="483" y="838" on="0"/>
        <pt x="461" y="807" on="0"/>
        <pt x="448" y="807" on="0"/>
        <pt x="444" y="810" on="1"/>
        <pt x="341" y="886" on="1"/>
        <pt x="238" y="810" on="1"/>
        <pt x="233" y="807" on="0"/>
        <pt x="231" y="807" on="1"/>
        <pt x="221" y="807" on="0"/>
        <pt x="199" y="838" on="0"/>
        <pt x="199" y="859" on="0"/>
        <pt x="206" y="866" on="1"/>
        <pt x="326" y="982" on="1"/>
        <pt x="330" y="986" on="0"/>
      </contour>
    </TTGlyph>
    <TTGlyph name="Adieresis" xMin="110" yMin="-5" xMax="573" yMax="960">
      <contour>
        <pt x="573" y="597" on="1"/>
        <pt x="573" y="18" on="1"/>
        <pt x="573" y="-5" on="0"/>
        <pt x="493" y="-5" on="0"/>
        <pt x="493" y="18" on="1"/>
        <pt x="493" y="289" on="1"/>
        <pt x="190" y="289" on="1"/>
        <pt x="190" y="18" on="1"/>
        <pt x="190" y="-5" on="0"/>
        <pt x="110" y="-5" on="0"/>
        <pt x="110" y="18" on="1"/>
        <pt x="110" y="597" on="1"/>
        <pt x="110" y="653" on="0"/>
        <pt x="176" y="726" on="0"/>
        <pt x="278" y="755" on="0"/>
        <pt x="347" y="755" on="1"/>
        <pt x="573" y="755" on="0"/>
      </contour>
      <contour>
        <pt x="190" y="607" on="1"/>
        <pt x="190" y="359" on="1"/>
        <pt x="493" y="359" on="1"/>
        <pt x="493" y="607" on="1"/>
        <pt x="493" y="685" on="0"/>
        <pt x="190" y="685" on="0"/>
      </contour>
      <contour>
        <pt x="285" y="935" on="1"/>
        <pt x="285" y="848" on="1"/>
        <pt x="285" y="823" on="0"/>
        <pt x="198" y="823" on="0"/>
        <pt x="198" y="848" on="1"/>
        <pt x="198" y="935" on="1"/>
        <pt x="198" y="960" on="0"/>
        <pt x="285" y="960" on="0"/>
      </contour>
      <contour>
        <pt x="485" y="935" on="1"/>
        <pt x="485" y="848" on="1"/>
        <pt x="485" y="823" on="0"/>
        <pt x="398" y="823" on="0"/>
        <pt x="398" y="848" on="1"/>
        <pt x="398" y="935" on="1"/>
        <pt x="398" y="960" on="0"/>
        <pt x="485" y="960" on="0"/>
      </contour>
    </TTGlyph>
    <TTGlyph name="Agrave" xMin="110" yMin="-5" xMax="573" yMax="986">
      <contour>
        <pt x="573" y="597" on="1"/>
        <pt x="573" y="18" on="1"/>
        <pt x="573" y="-5" on="0"/>
        <pt x="493" y="-5" on="0"/>
        <pt x="493" y="18" on="1"/>
        <pt x="493" y="289" on="1"/>
        <pt x="190" y="289" on="1"/>
        <pt x="190" y="18" on="1"/>
        <pt x="190" y="-5" on="0"/>
        <pt x="110" y="-5" on="0"/>
        <pt x="110" y="18" on="1"/>
        <pt x="110" y="597" on="1"/>
        <pt x="110" y="653" on="0"/>
        <pt x="176" y="726" on="0"/>
        <pt x="278" y="755" on="0"/>
        <pt x="347" y="755" on="1"/>
        <pt x="573" y="755" on="0"/>
      </contour>
      <contour>
        <pt x="190" y="607" on="1"/>
        <pt x="190" y="359" on="1"/>
        <pt x="493" y="359" on="1"/>
        <pt x="493" y="607" on="1"/>
        <pt x="493" y="685" on="0"/>
        <pt x="190" y="685" on="0"/>
      </contour>
      <contour>
        <pt x="427" y="807" on="1"/>
        <pt x="235" y="898" on="1"/>
        <pt x="224" y="904" on="0"/>
        <pt x="224" y="937" on="0"/>
        <pt x="256" y="986" on="0"/>
        <pt x="278" y="986" on="0"/>
        <pt x="283" y="982" on="1"/>
        <pt x="452" y="866" on="1"/>
        <pt x="459" y="860" on="0"/>
        <pt x="459" y="841" on="0"/>
        <pt x="436" y="807" on="0"/>
      </contour>
    </TTGlyph>
    <TTGlyph name="Aring" xMin="110" yMin="-5" xMax="573" yMax="996">
      <contour>
        <pt x="573" y="597" on="1"/>
        <pt x="573" y="18" on="1"/>
        <pt x="573" y="-5" on="0"/>
        <pt x="493" y="-5" on="0"/>
        <pt x="493" y="18" on="1"/>
        <pt x="493" y="289" on="1"/>
        <pt x="190" y="289" on="1"/>
        <pt x="190" y="18" on="1"/>
        <pt x="190" y="-5" on="0"/>
        <pt x="110" y="-5" on="0"/>
        <pt x="110" y="18" on="1"/>
        <pt x="110" y="597" on="1"/>
        <pt x="110" y="653" on="0"/>
        <pt x="176" y="726" on="0"/>
        <pt x="278" y="755" on="0"/>
        <pt x="347" y="755" on="1"/>
        <pt x="573" y="755" on="0"/>
      </contour>
      <contour>
        <pt x="190" y="607" on="1"/>
        <pt x="190" y="359" on="1"/>
        <pt x="493" y="359" on="1"/>
        <pt x="493" y="607" on="1"/>
        <pt x="493" y="685" on="0"/>
        <pt x="190" y="685" on="0"/>
      </contour>
      <contour>
        <pt x="452" y="904" on="1"/>
        <pt x="452" y="879" on="1"/>
        <pt x="452" y="787" on="0"/>
        <pt x="340" y="787" on="1"/>
        <pt x="281" y="787" on="0"/>
        <pt x="231" y="832" on="0"/>
        <pt x="231" y="879" on="1"/>
        <pt x="231" y="904" on="1"/>
        <pt x="231" y="996" on="0"/>
        <pt x="343" y="996" on="1"/>
        <pt x="402" y="996" on="0"/>
        <pt x="452" y="951" on="0"/>
      </contour>
      <contour>
        <pt x="293" y="913" on="1"/>
        <pt x="293" y="869" on="1"/>
        <pt x="293" y="840" on="0"/>
        <pt x="390" y="840" on="0"/>
        <pt x="390" y="870" on="1"/>
        <pt x="390" y="914" on="1"/>
        <pt x="390" y="943" on="0"/>
        <pt x="293" y="943" on="0"/>
      </contour>
    </TTGlyph>
    <TTGlyph name="Atilde" xMin="110" yMin="-5" xMax="573" yMax="953">
      <contour>
        <pt x="573" y="597" on="1"/>
        <pt x="573" y="18" on="1"/>
        <pt x="573" y="-5" on="0"/>
        <pt x="493" y="-5" on="0"/>
        <pt x="493" y="18" on="1"/>
        <pt x="493" y="289" on="1"/>
        <pt x="190" y="289" on="1"/>
        <pt x="190" y="18" on="1"/>
        <pt x="190" y="-5" on="0"/>
        <pt x="110" y="-5" on="0"/>
        <pt x="110" y="18" on="1"/>
        <pt x="110" y="597" on="1"/>
        <pt x="110" y="653" on="0"/>
        <pt x="176" y="726" on="0"/>
        <pt x="278" y="755" on="0"/>
        <pt x="347" y="755" on="1"/>
        <pt x="573" y="755" on="0"/>
      </contour>
      <contour>
        <pt x="190" y="607" on="1"/>
        <pt x="190" y="359" on="1"/>
        <pt x="493" y="359" on="1"/>
        <pt x="493" y="607" on="1"/>
        <pt x="493" y="685" on="0"/>
        <pt x="190" y="685" on="0"/>
      </contour>
      <contour>
        <pt x="271" y="871" on="1"/>
        <pt x="266" y="872" on="1"/>
        <pt x="253" y="872" on="0"/>
        <pt x="253" y="847" on="1"/>
        <pt x="253" y="827" on="0"/>
        <pt x="183" y="827" on="0"/>
        <pt x="183" y="843" on="1"/>
        <pt x="183" y="898" on="0"/>
        <pt x="219" y="952" on="0"/>
        <pt x="248" y="952" on="1"/>
        <pt x="255" y="952" on="0"/>
        <pt x="271" y="948" on="1"/>
        <pt x="412" y="909" on="1"/>
        <pt x="414" y="908" on="0"/>
        <pt x="418" y="908" on="1"/>
        <pt x="430" y="908" on="0"/>
        <pt x="430" y="933" on="1"/>
        <pt x="430" y="953" on="0"/>
        <pt x="500" y="953" on="0"/>
        <pt x="500" y="937" on="1"/>
        <pt x="500" y="883" on="0"/>
        <pt x="464" y="829" on="0"/>
        <pt x="434" y="829" on="1"/>
        <pt x="424" y="829" on="0"/>
        <pt x="412" y="832" on="1"/>
      </contour>
    </TTGlyph>
    <TTGlyph name="B" xMin="100" yMin="-5" xMax="548" yMax="755">
      <contour>
        <pt x="325" y="-5" on="1"/>
        <pt x="258" y="-5" on="1"/>
        <pt x="172" y="-5" on="0"/>
        <pt x="100" y="78" on="0"/>
        <pt x="100" y="171" on="1"/>
        <pt x="100" y="597" on="1"/>
        <pt x="100" y="680" on="0"/>
        <pt x="220" y="755" on="0"/>
        <pt x="420" y="755" on="0"/>
        <pt x="538" y="680" on="0"/>
        <pt x="538" y="597" on="1"/>
        <pt x="538" y="504" on="1"/>
        <pt x="538" y="406" on="0"/>
        <pt x="460" y="382" on="1"/>
        <pt x="548" y="361" on="0"/>
        <pt x="548" y="258" on="1"/>
        <pt x="548" y="153" on="1"/>
        <pt x="548" y="70" on="0"/>
        <pt x="426" y="-5" on="0"/>
      </contour>
      <contour>
        <pt x="360" y="346" on="1"/>
        <pt x="235" y="346" on="1"/>
        <pt x="215" y="346" on="0"/>
        <pt x="215" y="416" on="0"/>
        <pt x="235" y="416" on="1"/>
        <pt x="350" y="416" on="1"/>
        <pt x="458" y="416" on="0"/>
        <pt x="458" y="504" on="1"/>
        <pt x="458" y="607" on="1"/>
        <pt x="458" y="685" on="0"/>
        <pt x="180" y="685" on="0"/>
        <pt x="180" y="607" on="1"/>
        <pt x="180" y="171" on="1"/>
        <pt x="180" y="113" on="0"/>
        <pt x="215" y="65" on="0"/>
        <pt x="258" y="65" on="1"/>
        <pt x="323" y="65" on="1"/>
        <pt x="468" y="65" on="0"/>
        <pt x="468" y="143" on="1"/>
        <pt x="468" y="258" on="1"/>
        <pt x="468" y="346" on="0"/>
      </contour>
    </TTGlyph>
    <TTGlyph name="C" xMin="100" yMin="-15" xMax="553" yMax="755">
      <contour>
        <pt x="180" y="607" on="1"/>
        <pt x="180" y="133" on="1"/>
        <pt x="180" y="55" on="0"/>
        <pt x="473" y="55" on="0"/>
        <pt x="473" y="133" on="1"/>
        <pt x="473" y="205" on="1"/>
        <pt x="473" y="228" on="0"/>
        <pt x="553" y="228" on="0"/>
        <pt x="553" y="205" on="1"/>
        <pt x="553" y="143" on="1"/>
        <pt x="553" y="-15" on="0"/>
        <pt x="330" y="-15" on="1"/>
        <pt x="226" y="-15" on="0"/>
        <pt x="100" y="60" on="0"/>
        <pt x="100" y="143" on="1"/>
        <pt x="100" y="597" on="1"/>
        <pt x="100" y="680" on="0"/>
        <pt x="226" y="755" on="0"/>
        <pt x="330" y="755" on="1"/>
        <pt x="553" y="755" on="0"/>
        <pt x="553" y="597" on="1"/>
        <pt x="553" y="535" on="1"/>
        <pt x="553" y="512" on="0"/>
        <pt x="473" y="512" on="0"/>
        <pt x="473" y="535" on="1"/>
        <pt x="473" y="607" on="1"/>
        <pt x="473" y="685" on="0"/>
        <pt x="180" y="685" on="0"/>
      </contour>
    </TTGlyph>
    <TTGlyph name="Ccedilla" xMin="100" yMin="-202" xMax="553" yMax="755">
      <contour>
        <pt x="281" y="-97" on="1"/>
        <pt x="281" y="-115" on="1"/>
        <pt x="281" y="-144" on="0"/>
        <pt x="378" y="-144" on="0"/>
        <pt x="378" y="-114" on="1"/>
        <pt x="378" y="-54" on="1"/>
        <pt x="378" y="-31" on="0"/>
        <pt x="356" y="-15" on="0"/>
        <pt x="329" y="-15" on="1"/>
        <pt x="225" y="-15" on="0"/>
        <pt x="100" y="60" on="0"/>
        <pt x="100" y="143" on="1"/>
        <pt x="100" y="597" on="1"/>
        <pt x="100" y="680" on="0"/>
        <pt x="226" y="755" on="0"/>
        <pt x="330" y="755" on="1"/>
        <pt x="553" y="755" on="0"/>
        <pt x="553" y="597" on="1"/>
        <pt x="553" y="535" on="1"/>
        <pt x="553" y="512" on="0"/>
        <pt x="473" y="512" on="0"/>
        <pt x="473" y="535" on="1"/>
        <pt x="473" y="607" on="1"/>
        <pt x="473" y="685" on="0"/>
        <pt x="180" y="685" on="0"/>
        <pt x="180" y="607" on="1"/>
        <pt x="180" y="133" on="1"/>
        <pt x="180" y="55" on="0"/>
        <pt x="473" y="55" on="0"/>
        <pt x="473" y="133" on="1"/>
        <pt x="473" y="205" on="1"/>
        <pt x="473" y="228" on="0"/>
        <pt x="553" y="228" on="0"/>
        <pt x="553" y="205" on="1"/>
        <pt x="553" y="143" on="1"/>
        <pt x="553" y="28" on="0"/>
        <pt x="430" y="-4" on="1"/>
        <pt x="445" y="-20" on="0"/>
        <pt x="445" y="-53" on="1"/>
        <pt x="445" y="-110" on="1"/>
        <pt x="445" y="-153" on="0"/>
        <pt x="376" y="-202" on="0"/>
        <pt x="280" y="-202" on="0"/>
        <pt x="214" y="-154" on="0"/>
        <pt x="214" y="-110" on="1"/>
        <pt x="214" y="-97" on="1"/>
        <pt x="214" y="-76" on="0"/>
        <pt x="281" y="-76" on="0"/>
      </contour>
    </TTGlyph>
    <TTGlyph name="D" xMin="110" yMin="0" xMax="573" yMax="740">
      <contour>
        <pt x="190" y="70" on="1"/>
        <pt x="378" y="70" on="1"/>
        <pt x="442" y="70" on="0"/>
        <pt x="493" y="104" on="0"/>
        <pt x="493" y="148" on="1"/>
        <pt x="493" y="592" on="1"/>
        <pt x="493" y="636" on="0"/>
        <pt x="442" y="670" on="0"/>
        <pt x="378" y="670" on="1"/>
        <pt x="190" y="670" on="1"/>
      </contour>
      <contour>
        <pt x="110" y="75" on="1"/>
        <pt x="110" y="665" on="1"/>
        <pt x="110" y="709" on="0"/>
        <pt x="131" y="740" on="0"/>
        <pt x="170" y="740" on="1"/>
        <pt x="378" y="740" on="1"/>
        <pt x="478" y="740" on="0"/>
        <pt x="573" y="668" on="0"/>
        <pt x="573" y="582" on="1"/>
        <pt x="573" y="158" on="1"/>
        <pt x="573" y="72" on="0"/>
        <pt x="478" y="0" on="0"/>
        <pt x="378" y="0" on="1"/>
        <pt x="170" y="0" on="1"/>
        <pt x="131" y="0" on="0"/>
        <pt x="110" y="31" on="0"/>
      </contour>
    </TTGlyph>
    <TTGlyph name="Delta" xMin="80" yMin="0" xMax="593" yMax="745">
      <contour>
        <pt x="378" y="675" on="0"/>
        <pt x="296" y="675" on="0"/>
        <pt x="265" y="640" on="0"/>
        <pt x="258" y="597" on="1"/>
        <pt x="161" y="70" on="1"/>
        <pt x="512" y="70" on="1"/>
        <pt x="416" y="597" on="1"/>
        <pt x="408" y="640" on="0"/>
      </contour>
      <contour>
        <pt x="527" y="0" on="1"/>
        <pt x="147" y="0" on="1"/>
        <pt x="112" y="0" on="0"/>
        <pt x="80" y="21" on="0"/>
        <pt x="80" y="63" on="0"/>
        <pt x="83" y="78" on="1"/>
        <pt x="180" y="608" on="1"/>
        <pt x="194" y="682" on="0"/>
        <pt x="258" y="745" on="0"/>
        <pt x="416" y="745" on="0"/>
        <pt x="480" y="682" on="0"/>
        <pt x="494" y="608" on="1"/>
        <pt x="591" y="78" on="1"/>
        <pt x="593" y="68" on="0"/>
        <pt x="593" y="20" on="0"/>
        <pt x="562" y="0" on="0"/>
      </contour>
    </TTGlyph>
    <TTGlyph name="E" xMin="100" yMin="-15" xMax="543" yMax="755">
      <contour>
        <pt x="180" y="258" on="1"/>
        <pt x="180" y="133" on="1"/>
        <pt x="180" y="55" on="0"/>
        <pt x="463" y="55" on="0"/>
        <pt x="463" y="133" on="1"/>
        <pt x="463" y="205" on="1"/>
        <pt x="463" y="228" on="0"/>
        <pt x="543" y="228" on="0"/>
        <pt x="543" y="205" on="1"/>
        <pt x="543" y="143" on="1"/>
        <pt x="543" y="60" on="0"/>
        <pt x="423" y="-15" on="0"/>
        <pt x="222" y="-15" on="0"/>
        <pt x="100" y="60" on="0"/>
        <pt x="100" y="143" on="1"/>
        <pt x="100" y="258" on="1"/>
        <pt x="100" y="361" on="0"/>
        <pt x="188" y="382" on="1"/>
        <pt x="110" y="406" on="0"/>
        <pt x="110" y="504" on="1"/>
        <pt x="110" y="597" on="1"/>
        <pt x="110" y="680" on="0"/>
        <pt x="232" y="755" on="0"/>
        <pt x="421" y="755" on="0"/>
        <pt x="531" y="679" on="0"/>
        <pt x="531" y="597" on="1"/>
        <pt x="531" y="582" on="1"/>
        <pt x="531" y="559" on="0"/>
        <pt x="451" y="559" on="0"/>
        <pt x="451" y="582" on="1"/>
        <pt x="451" y="607" on="1"/>
        <pt x="451" y="685" on="0"/>
        <pt x="190" y="685" on="0"/>
        <pt x="190" y="607" on="1"/>
        <pt x="190" y="504" on="1"/>
        <pt x="190" y="416" on="0"/>
        <pt x="298" y="416" on="1"/>
        <pt x="373" y="416" on="1"/>
        <pt x="393" y="416" on="0"/>
        <pt x="393" y="346" on="0"/>
        <pt x="373" y="346" on="1"/>
        <pt x="288" y="346" on="1"/>
        <pt x="180" y="346" on="0"/>
      </contour>
    </TTGlyph>
    <TTGlyph name="Eacute" xMin="100" yMin="-15" xMax="543" yMax="986">
      <contour>
        <pt x="180" y="258" on="1"/>
        <pt x="180" y="133" on="1"/>
        <pt x="180" y="55" on="0"/>
        <pt x="463" y="55" on="0"/>
        <pt x="463" y="133" on="1"/>
        <pt x="463" y="205" on="1"/>
        <pt x="463" y="228" on="0"/>
        <pt x="543" y="228" on="0"/>
        <pt x="543" y="205" on="1"/>
        <pt x="543" y="143" on="1"/>
        <pt x="543" y="60" on="0"/>
        <pt x="423" y="-15" on="0"/>
        <pt x="222" y="-15" on="0"/>
        <pt x="100" y="60" on="0"/>
        <pt x="100" y="143" on="1"/>
        <pt x="100" y="258" on="1"/>
        <pt x="100" y="361" on="0"/>
        <pt x="188" y="382" on="1"/>
        <pt x="110" y="406" on="0"/>
        <pt x="110" y="504" on="1"/>
        <pt x="110" y="597" on="1"/>
        <pt x="110" y="680" on="0"/>
        <pt x="232" y="755" on="0"/>
        <pt x="421" y="755" on="0"/>
        <pt x="531" y="679" on="0"/>
        <pt x="531" y="597" on="1"/>
        <pt x="531" y="582" on="1"/>
        <pt x="531" y="559" on="0"/>
        <pt x="451" y="559" on="0"/>
        <pt x="451" y="582" on="1"/>
        <pt x="451" y="607" on="1"/>
        <pt x="451" y="685" on="0"/>
        <pt x="190" y="685" on="0"/>
        <pt x="190" y="607" on="1"/>
        <pt x="190" y="504" on="1"/>
        <pt x="190" y="416" on="0"/>
        <pt x="298" y="416" on="1"/>
        <pt x="373" y="416" on="1"/>
        <pt x="393" y="416" on="0"/>
        <pt x="393" y="346" on="0"/>
        <pt x="373" y="346" on="1"/>
        <pt x="288" y="346" on="1"/>
        <pt x="180" y="346" on="0"/>
      </contour>
      <contour>
        <pt x="223" y="810" on="1"/>
        <pt x="216" y="807" on="1"/>
        <pt x="207" y="807" on="0"/>
        <pt x="184" y="841" on="0"/>
        <pt x="184" y="860" on="0"/>
        <pt x="191" y="866" on="1"/>
        <pt x="360" y="982" on="1"/>
        <pt x="365" y="986" on="0"/>
        <pt x="387" y="986" on="0"/>
        <pt x="419" y="937" on="0"/>
        <pt x="419" y="904" on="0"/>
        <pt x="408" y="898" on="1"/>
      </contour>
    </TTGlyph>
    <TTGlyph name="Ecircumflex" xMin="100" yMin="-15" xMax="543" yMax="986">
      <contour>
        <pt x="180" y="258" on="1"/>
        <pt x="180" y="133" on="1"/>
        <pt x="180" y="55" on="0"/>
        <pt x="463" y="55" on="0"/>
        <pt x="463" y="133" on="1"/>
        <pt x="463" y="205" on="1"/>
        <pt x="463" y="228" on="0"/>
        <pt x="543" y="228" on="0"/>
        <pt x="543" y="205" on="1"/>
        <pt x="543" y="143" on="1"/>
        <pt x="543" y="60" on="0"/>
        <pt x="423" y="-15" on="0"/>
        <pt x="222" y="-15" on="0"/>
        <pt x="100" y="60" on="0"/>
        <pt x="100" y="143" on="1"/>
        <pt x="100" y="258" on="1"/>
        <pt x="100" y="361" on="0"/>
        <pt x="188" y="382" on="1"/>
        <pt x="110" y="406" on="0"/>
        <pt x="110" y="504" on="1"/>
        <pt x="110" y="597" on="1"/>
        <pt x="110" y="680" on="0"/>
        <pt x="232" y="755" on="0"/>
        <pt x="421" y="755" on="0"/>
        <pt x="531" y="679" on="0"/>
        <pt x="531" y="597" on="1"/>
        <pt x="531" y="582" on="1"/>
        <pt x="531" y="559" on="0"/>
        <pt x="451" y="559" on="0"/>
        <pt x="451" y="582" on="1"/>
        <pt x="451" y="607" on="1"/>
        <pt x="451" y="685" on="0"/>
        <pt x="190" y="685" on="0"/>
        <pt x="190" y="607" on="1"/>
        <pt x="190" y="504" on="1"/>
        <pt x="190" y="416" on="0"/>
        <pt x="298" y="416" on="1"/>
        <pt x="373" y="416" on="1"/>
        <pt x="393" y="416" on="0"/>
        <pt x="393" y="346" on="0"/>
        <pt x="373" y="346" on="1"/>
        <pt x="288" y="346" on="1"/>
        <pt x="180" y="346" on="0"/>
      </contour>
      <contour>
        <pt x="296" y="986" on="1"/>
        <pt x="307" y="986" on="1"/>
        <pt x="312" y="986" on="0"/>
        <pt x="316" y="982" on="1"/>
        <pt x="436" y="866" on="1"/>
        <pt x="443" y="859" on="0"/>
        <pt x="443" y="838" on="0"/>
        <pt x="421" y="807" on="0"/>
        <pt x="408" y="807" on="0"/>
        <pt x="404" y="810" on="1"/>
        <pt x="301" y="886" on="1"/>
        <pt x="198" y="810" on="1"/>
        <pt x="194" y="807" on="0"/>
        <pt x="181" y="807" on="0"/>
        <pt x="159" y="838" on="0"/>
        <pt x="159" y="859" on="0"/>
        <pt x="166" y="866" on="1"/>
        <pt x="286" y="982" on="1"/>
        <pt x="290" y="986" on="0"/>
      </contour>
    </TTGlyph>
    <TTGlyph name="Edieresis" xMin="100" yMin="-15" xMax="543" yMax="960">
      <contour>
        <pt x="180" y="258" on="1"/>
        <pt x="180" y="133" on="1"/>
        <pt x="180" y="55" on="0"/>
        <pt x="463" y="55" on="0"/>
        <pt x="463" y="133" on="1"/>
        <pt x="463" y="205" on="1"/>
        <pt x="463" y="228" on="0"/>
        <pt x="543" y="228" on="0"/>
        <pt x="543" y="205" on="1"/>
        <pt x="543" y="143" on="1"/>
        <pt x="543" y="60" on="0"/>
        <pt x="423" y="-15" on="0"/>
        <pt x="222" y="-15" on="0"/>
        <pt x="100" y="60" on="0"/>
        <pt x="100" y="143" on="1"/>
        <pt x="100" y="258" on="1"/>
        <pt x="100" y="361" on="0"/>
        <pt x="188" y="382" on="1"/>
        <pt x="110" y="406" on="0"/>
        <pt x="110" y="504" on="1"/>
        <pt x="110" y="597" on="1"/>
        <pt x="110" y="680" on="0"/>
        <pt x="232" y="755" on="0"/>
        <pt x="421" y="755" on="0"/>
        <pt x="531" y="679" on="0"/>
        <pt x="531" y="597" on="1"/>
        <pt x="531" y="582" on="1"/>
        <pt x="531" y="559" on="0"/>
        <pt x="451" y="559" on="0"/>
        <pt x="451" y="582" on="1"/>
        <pt x="451" y="607" on="1"/>
        <pt x="451" y="685" on="0"/>
        <pt x="190" y="685" on="0"/>
        <pt x="190" y="607" on="1"/>
        <pt x="190" y="504" on="1"/>
        <pt x="190" y="416" on="0"/>
        <pt x="298" y="416" on="1"/>
        <pt x="373" y="416" on="1"/>
        <pt x="393" y="416" on="0"/>
        <pt x="393" y="346" on="0"/>
        <pt x="373" y="346" on="1"/>
        <pt x="288" y="346" on="1"/>
        <pt x="180" y="346" on="0"/>
      </contour>
      <contour>
        <pt x="245" y="935" on="1"/>
        <pt x="245" y="848" on="1"/>
        <pt x="245" y="823" on="0"/>
        <pt x="158" y="823" on="0"/>
        <pt x="158" y="848" on="1"/>
        <pt x="158" y="935" on="1"/>
        <pt x="158" y="960" on="0"/>
        <pt x="245" y="960" on="0"/>
      </contour>
      <contour>
        <pt x="445" y="935" on="1"/>
        <pt x="445" y="848" on="1"/>
        <pt x="445" y="823" on="0"/>
        <pt x="358" y="823" on="0"/>
        <pt x="358" y="848" on="1"/>
        <pt x="358" y="935" on="1"/>
        <pt x="358" y="960" on="0"/>
        <pt x="445" y="960" on="0"/>
      </contour>
    </TTGlyph>
    <TTGlyph name="Egrave" xMin="100" yMin="-15" xMax="543" yMax="986">
      <contour>
        <pt x="180" y="258" on="1"/>
        <pt x="180" y="133" on="1"/>
        <pt x="180" y="55" on="0"/>
        <pt x="463" y="55" on="0"/>
        <pt x="463" y="133" on="1"/>
        <pt x="463" y="205" on="1"/>
        <pt x="463" y="228" on="0"/>
        <pt x="543" y="228" on="0"/>
        <pt x="543" y="205" on="1"/>
        <pt x="543" y="143" on="1"/>
        <pt x="543" y="60" on="0"/>
        <pt x="423" y="-15" on="0"/>
        <pt x="222" y="-15" on="0"/>
        <pt x="100" y="60" on="0"/>
        <pt x="100" y="143" on="1"/>
        <pt x="100" y="258" on="1"/>
        <pt x="100" y="361" on="0"/>
        <pt x="188" y="382" on="1"/>
        <pt x="110" y="406" on="0"/>
        <pt x="110" y="504" on="1"/>
        <pt x="110" y="597" on="1"/>
        <pt x="110" y="680" on="0"/>
        <pt x="232" y="755" on="0"/>
        <pt x="421" y="755" on="0"/>
        <pt x="531" y="679" on="0"/>
        <pt x="531" y="597" on="1"/>
        <pt x="531" y="582" on="1"/>
        <pt x="531" y="559" on="0"/>
        <pt x="451" y="559" on="0"/>
        <pt x="451" y="582" on="1"/>
        <pt x="451" y="607" on="1"/>
        <pt x="451" y="685" on="0"/>
        <pt x="190" y="685" on="0"/>
        <pt x="190" y="607" on="1"/>
        <pt x="190" y="504" on="1"/>
        <pt x="190" y="416" on="0"/>
        <pt x="298" y="416" on="1"/>
        <pt x="373" y="416" on="1"/>
        <pt x="393" y="416" on="0"/>
        <pt x="393" y="346" on="0"/>
        <pt x="373" y="346" on="1"/>
        <pt x="288" y="346" on="1"/>
        <pt x="180" y="346" on="0"/>
      </contour>
      <contour>
        <pt x="387" y="807" on="1"/>
        <pt x="195" y="898" on="1"/>
        <pt x="184" y="904" on="0"/>
        <pt x="184" y="937" on="0"/>
        <pt x="216" y="986" on="0"/>
        <pt x="238" y="986" on="0"/>
        <pt x="243" y="982" on="1"/>
        <pt x="412" y="866" on="1"/>
        <pt x="419" y="860" on="0"/>
        <pt x="419" y="841" on="0"/>
        <pt x="396" y="807" on="0"/>
      </contour>
    </TTGlyph>
    <TTGlyph name="Eth" xMin="50" yMin="0" xMax="573" yMax="740">
      <contour>
        <pt x="70" y="404" on="1"/>
        <pt x="110" y="404" on="1"/>
        <pt x="110" y="665" on="1"/>
        <pt x="110" y="709" on="0"/>
        <pt x="131" y="740" on="0"/>
        <pt x="170" y="740" on="1"/>
        <pt x="378" y="740" on="1"/>
        <pt x="478" y="740" on="0"/>
        <pt x="573" y="668" on="0"/>
        <pt x="573" y="582" on="1"/>
        <pt x="573" y="158" on="1"/>
        <pt x="573" y="72" on="0"/>
        <pt x="478" y="0" on="0"/>
        <pt x="378" y="0" on="1"/>
        <pt x="170" y="0" on="1"/>
        <pt x="131" y="0" on="0"/>
        <pt x="110" y="31" on="0"/>
        <pt x="110" y="75" on="1"/>
        <pt x="110" y="334" on="1"/>
        <pt x="70" y="334" on="1"/>
        <pt x="50" y="334" on="0"/>
        <pt x="50" y="404" on="0"/>
      </contour>
      <contour>
        <pt x="190" y="70" on="1"/>
        <pt x="378" y="70" on="1"/>
        <pt x="442" y="70" on="0"/>
        <pt x="493" y="104" on="0"/>
        <pt x="493" y="148" on="1"/>
        <pt x="493" y="592" on="1"/>
        <pt x="493" y="636" on="0"/>
        <pt x="442" y="670" on="0"/>
        <pt x="378" y="670" on="1"/>
        <pt x="190" y="670" on="1"/>
        <pt x="190" y="404" on="1"/>
        <pt x="395" y="404" on="1"/>
        <pt x="415" y="404" on="0"/>
        <pt x="415" y="334" on="0"/>
        <pt x="395" y="334" on="1"/>
        <pt x="190" y="334" on="1"/>
      </contour>
    </TTGlyph>
    <TTGlyph name="Euro" xMin="48" yMin="0" xMax="529" yMax="740">
      <contour>
        <pt x="66" y="490" on="1"/>
        <pt x="129" y="490" on="1"/>
        <pt x="129" y="574" on="1"/>
        <pt x="129" y="660" on="0"/>
        <pt x="201" y="740" on="0"/>
        <pt x="287" y="740" on="1"/>
        <pt x="489" y="740" on="1"/>
        <pt x="509" y="740" on="0"/>
        <pt x="509" y="670" on="0"/>
        <pt x="489" y="670" on="1"/>
        <pt x="287" y="670" on="1"/>
        <pt x="244" y="670" on="0"/>
        <pt x="209" y="625" on="0"/>
        <pt x="209" y="574" on="1"/>
        <pt x="209" y="490" on="1"/>
        <pt x="399" y="490" on="1"/>
        <pt x="417" y="490" on="0"/>
        <pt x="417" y="427" on="0"/>
        <pt x="399" y="427" on="1"/>
        <pt x="209" y="427" on="1"/>
        <pt x="209" y="330" on="1"/>
        <pt x="399" y="330" on="1"/>
        <pt x="417" y="330" on="0"/>
        <pt x="417" y="267" on="0"/>
        <pt x="399" y="267" on="1"/>
        <pt x="209" y="267" on="1"/>
        <pt x="209" y="166" on="1"/>
        <pt x="209" y="115" on="0"/>
        <pt x="244" y="70" on="0"/>
        <pt x="287" y="70" on="1"/>
        <pt x="509" y="70" on="1"/>
        <pt x="529" y="70" on="0"/>
        <pt x="529" y="0" on="0"/>
        <pt x="509" y="0" on="1"/>
        <pt x="287" y="0" on="1"/>
        <pt x="201" y="0" on="0"/>
        <pt x="129" y="80" on="0"/>
        <pt x="129" y="166" on="1"/>
        <pt x="129" y="267" on="1"/>
        <pt x="66" y="267" on="1"/>
        <pt x="48" y="267" on="0"/>
        <pt x="48" y="330" on="0"/>
        <pt x="66" y="330" on="1"/>
        <pt x="129" y="330" on="1"/>
        <pt x="129" y="427" on="1"/>
        <pt x="66" y="427" on="1"/>
        <pt x="48" y="427" on="0"/>
        <pt x="48" y="490" on="0"/>
      </contour>
    </TTGlyph>
    <TTGlyph name="F" xMin="110" yMin="-5" xMax="480" yMax="740">
      <contour>
        <pt x="420" y="346" on="1"/>
        <pt x="190" y="346" on="1"/>
        <pt x="190" y="18" on="1"/>
        <pt x="190" y="-5" on="0"/>
        <pt x="110" y="-5" on="0"/>
        <pt x="110" y="18" on="1"/>
        <pt x="110" y="564" on="1"/>
        <pt x="110" y="657" on="0"/>
        <pt x="182" y="740" on="0"/>
        <pt x="268" y="740" on="1"/>
        <pt x="460" y="740" on="1"/>
        <pt x="480" y="740" on="0"/>
        <pt x="480" y="670" on="0"/>
        <pt x="460" y="670" on="1"/>
        <pt x="268" y="670" on="1"/>
        <pt x="225" y="670" on="0"/>
        <pt x="190" y="622" on="0"/>
        <pt x="190" y="564" on="1"/>
        <pt x="190" y="416" on="1"/>
        <pt x="420" y="416" on="1"/>
        <pt x="440" y="416" on="0"/>
        <pt x="440" y="346" on="0"/>
      </contour>
    </TTGlyph>
    <TTGlyph name="G" xMin="100" yMin="-15" xMax="563" yMax="755">
      <contour>
        <pt x="483" y="133" on="1"/>
        <pt x="483" y="231" on="1"/>
        <pt x="483" y="279" on="0"/>
        <pt x="450" y="319" on="0"/>
        <pt x="397" y="319" on="1"/>
        <pt x="320" y="319" on="1"/>
        <pt x="300" y="319" on="0"/>
        <pt x="300" y="389" on="0"/>
        <pt x="320" y="389" on="1"/>
        <pt x="397" y="389" on="1"/>
        <pt x="485" y="389" on="0"/>
        <pt x="563" y="317" on="0"/>
        <pt x="563" y="231" on="1"/>
        <pt x="563" y="143" on="1"/>
        <pt x="563" y="60" on="0"/>
        <pt x="434" y="-15" on="0"/>
        <pt x="328" y="-15" on="1"/>
        <pt x="100" y="-15" on="0"/>
        <pt x="100" y="143" on="1"/>
        <pt x="100" y="597" on="1"/>
        <pt x="100" y="680" on="0"/>
        <pt x="225" y="755" on="0"/>
        <pt x="327" y="755" on="1"/>
        <pt x="548" y="755" on="0"/>
        <pt x="548" y="597" on="1"/>
        <pt x="548" y="542" on="1"/>
        <pt x="548" y="519" on="0"/>
        <pt x="468" y="519" on="0"/>
        <pt x="468" y="542" on="1"/>
        <pt x="468" y="607" on="1"/>
        <pt x="468" y="685" on="0"/>
        <pt x="180" y="685" on="0"/>
        <pt x="180" y="607" on="1"/>
        <pt x="180" y="133" on="1"/>
        <pt x="180" y="55" on="0"/>
        <pt x="483" y="55" on="0"/>
      </contour>
    </TTGlyph>
    <TTGlyph name="H" xMin="110" yMin="-5" xMax="573" yMax="745">
      <contour>
        <pt x="573" y="722" on="1"/>
        <pt x="573" y="18" on="1"/>
        <pt x="573" y="-5" on="0"/>
        <pt x="493" y="-5" on="0"/>
        <pt x="493" y="18" on="1"/>
        <pt x="493" y="329" on="1"/>
        <pt x="190" y="329" on="1"/>
        <pt x="190" y="18" on="1"/>
        <pt x="190" y="-5" on="0"/>
        <pt x="110" y="-5" on="0"/>
        <pt x="110" y="18" on="1"/>
        <pt x="110" y="722" on="1"/>
        <pt x="110" y="745" on="0"/>
        <pt x="190" y="745" on="0"/>
        <pt x="190" y="722" on="1"/>
        <pt x="190" y="399" on="1"/>
        <pt x="493" y="399" on="1"/>
        <pt x="493" y="722" on="1"/>
        <pt x="493" y="745" on="0"/>
        <pt x="573" y="745" on="0"/>
      </contour>
    </TTGlyph>
    <TTGlyph name="I" xMin="120" yMin="-5" xMax="200" yMax="745">
      <contour>
        <pt x="200" y="722" on="1"/>
        <pt x="200" y="18" on="1"/>
        <pt x="200" y="-5" on="0"/>
        <pt x="120" y="-5" on="0"/>
        <pt x="120" y="18" on="1"/>
        <pt x="120" y="722" on="1"/>
        <pt x="120" y="745" on="0"/>
        <pt x="200" y="745" on="0"/>
      </contour>
    </TTGlyph>
    <TTGlyph name="Iacute" xMin="43" yMin="-5" xMax="278" yMax="986">
      <contour>
        <pt x="200" y="722" on="1"/>
        <pt x="200" y="18" on="1"/>
        <pt x="200" y="-5" on="0"/>
        <pt x="120" y="-5" on="0"/>
        <pt x="120" y="18" on="1"/>
        <pt x="120" y="722" on="1"/>
        <pt x="120" y="745" on="0"/>
        <pt x="200" y="745" on="0"/>
      </contour>
      <contour>
        <pt x="82" y="810" on="1"/>
        <pt x="75" y="807" on="1"/>
        <pt x="66" y="807" on="0"/>
        <pt x="43" y="841" on="0"/>
        <pt x="43" y="860" on="0"/>
        <pt x="50" y="866" on="1"/>
        <pt x="219" y="982" on="1"/>
        <pt x="224" y="986" on="0"/>
        <pt x="246" y="986" on="0"/>
        <pt x="278" y="937" on="0"/>
        <pt x="278" y="904" on="0"/>
        <pt x="267" y="898" on="1"/>
      </contour>
    </TTGlyph>
    <TTGlyph name="Icircumflex" xMin="18" yMin="-5" xMax="302" yMax="986">
      <contour>
        <pt x="200" y="722" on="1"/>
        <pt x="200" y="18" on="1"/>
        <pt x="200" y="-5" on="0"/>
        <pt x="120" y="-5" on="0"/>
        <pt x="120" y="18" on="1"/>
        <pt x="120" y="722" on="1"/>
        <pt x="120" y="745" on="0"/>
        <pt x="200" y="745" on="0"/>
      </contour>
      <contour>
        <pt x="155" y="986" on="1"/>
        <pt x="166" y="986" on="1"/>
        <pt x="171" y="986" on="0"/>
        <pt x="175" y="982" on="1"/>
        <pt x="295" y="866" on="1"/>
        <pt x="302" y="859" on="0"/>
        <pt x="302" y="838" on="0"/>
        <pt x="280" y="807" on="0"/>
        <pt x="270" y="807" on="1"/>
        <pt x="268" y="807" on="0"/>
        <pt x="263" y="810" on="1"/>
        <pt x="160" y="886" on="1"/>
        <pt x="57" y="810" on="1"/>
        <pt x="52" y="807" on="0"/>
        <pt x="50" y="807" on="1"/>
        <pt x="40" y="807" on="0"/>
        <pt x="18" y="838" on="0"/>
        <pt x="18" y="859" on="0"/>
        <pt x="25" y="866" on="1"/>
        <pt x="145" y="982" on="1"/>
        <pt x="149" y="986" on="0"/>
      </contour>
    </TTGlyph>
    <TTGlyph name="Idieresis" xMin="17" yMin="-5" xMax="304" yMax="960">
      <contour>
        <pt x="200" y="722" on="1"/>
        <pt x="200" y="18" on="1"/>
        <pt x="200" y="-5" on="0"/>
        <pt x="120" y="-5" on="0"/>
        <pt x="120" y="18" on="1"/>
        <pt x="120" y="722" on="1"/>
        <pt x="120" y="745" on="0"/>
        <pt x="200" y="745" on="0"/>
      </contour>
      <contour>
        <pt x="104" y="935" on="1"/>
        <pt x="104" y="848" on="1"/>
        <pt x="104" y="823" on="0"/>
        <pt x="17" y="823" on="0"/>
        <pt x="17" y="848" on="1"/>
        <pt x="17" y="935" on="1"/>
        <pt x="17" y="960" on="0"/>
        <pt x="104" y="960" on="0"/>
      </contour>
      <contour>
        <pt x="304" y="935" on="1"/>
        <pt x="304" y="848" on="1"/>
        <pt x="304" y="823" on="0"/>
        <pt x="217" y="823" on="0"/>
        <pt x="217" y="848" on="1"/>
        <pt x="217" y="935" on="1"/>
        <pt x="217" y="960" on="0"/>
        <pt x="304" y="960" on="0"/>
      </contour>
    </TTGlyph>
    <TTGlyph name="Igrave" xMin="43" yMin="-5" xMax="278" yMax="986">
      <contour>
        <pt x="200" y="722" on="1"/>
        <pt x="200" y="18" on="1"/>
        <pt x="200" y="-5" on="0"/>
        <pt x="120" y="-5" on="0"/>
        <pt x="120" y="18" on="1"/>
        <pt x="120" y="722" on="1"/>
        <pt x="120" y="745" on="0"/>
        <pt x="200" y="745" on="0"/>
      </contour>
      <contour>
        <pt x="246" y="807" on="1"/>
        <pt x="54" y="898" on="1"/>
        <pt x="43" y="904" on="0"/>
        <pt x="43" y="937" on="0"/>
        <pt x="75" y="986" on="0"/>
        <pt x="97" y="986" on="0"/>
        <pt x="102" y="982" on="1"/>
        <pt x="271" y="866" on="1"/>
        <pt x="278" y="860" on="0"/>
        <pt x="278" y="841" on="0"/>
        <pt x="255" y="807" on="0"/>
      </contour>
    </TTGlyph>
    <TTGlyph name="J" xMin="10" yMin="-15" xMax="393" yMax="745">
      <contour>
        <pt x="313" y="133" on="1"/>
        <pt x="313" y="722" on="1"/>
        <pt x="313" y="745" on="0"/>
        <pt x="393" y="745" on="0"/>
        <pt x="393" y="722" on="1"/>
        <pt x="393" y="143" on="1"/>
        <pt x="393" y="61" on="0"/>
        <pt x="283" y="-15" on="0"/>
        <pt x="119" y="-15" on="0"/>
        <pt x="10" y="61" on="0"/>
        <pt x="10" y="143" on="1"/>
        <pt x="10" y="265" on="1"/>
        <pt x="10" y="288" on="0"/>
        <pt x="90" y="288" on="0"/>
        <pt x="90" y="265" on="1"/>
        <pt x="90" y="133" on="1"/>
        <pt x="90" y="55" on="0"/>
        <pt x="313" y="55" on="0"/>
      </contour>
    </TTGlyph>
    <TTGlyph name="K" xMin="110" yMin="-5" xMax="553" yMax="745">
      <contour>
        <pt x="553" y="13" on="1"/>
        <pt x="553" y="-5" on="0"/>
        <pt x="483" y="-5" on="0"/>
        <pt x="476" y="18" on="1"/>
        <pt x="405" y="276" on="1"/>
        <pt x="396" y="311" on="0"/>
        <pt x="364" y="330" on="0"/>
        <pt x="310" y="330" on="1"/>
        <pt x="244" y="330" on="1"/>
        <pt x="224" y="330" on="0"/>
        <pt x="224" y="400" on="0"/>
        <pt x="244" y="400" on="1"/>
        <pt x="269" y="400" on="1"/>
        <pt x="338" y="400" on="0"/>
        <pt x="375" y="418" on="0"/>
        <pt x="384" y="454" on="1"/>
        <pt x="456" y="722" on="1"/>
        <pt x="463" y="745" on="0"/>
        <pt x="533" y="745" on="0"/>
        <pt x="533" y="727" on="1"/>
        <pt x="461" y="454" on="1"/>
        <pt x="448" y="406" on="0"/>
        <pt x="420" y="385" on="1"/>
        <pt x="457" y="367" on="0"/>
        <pt x="474" y="304" on="1"/>
        <pt x="553" y="16" on="0"/>
      </contour>
      <contour>
        <pt x="190" y="722" on="1"/>
        <pt x="190" y="18" on="1"/>
        <pt x="190" y="-5" on="0"/>
        <pt x="110" y="-5" on="0"/>
        <pt x="110" y="18" on="1"/>
        <pt x="110" y="722" on="1"/>
        <pt x="110" y="745" on="0"/>
        <pt x="190" y="745" on="0"/>
      </contour>
    </TTGlyph>
    <TTGlyph name="L" xMin="110" yMin="0" xMax="450" yMax="745">
      <contour>
        <pt x="268" y="70" on="1"/>
        <pt x="430" y="70" on="1"/>
        <pt x="450" y="70" on="0"/>
        <pt x="450" y="0" on="0"/>
        <pt x="430" y="0" on="1"/>
        <pt x="268" y="0" on="1"/>
        <pt x="182" y="0" on="0"/>
        <pt x="110" y="83" on="0"/>
        <pt x="110" y="176" on="1"/>
        <pt x="110" y="722" on="1"/>
        <pt x="110" y="745" on="0"/>
        <pt x="190" y="745" on="0"/>
        <pt x="190" y="722" on="1"/>
        <pt x="190" y="176" on="1"/>
        <pt x="190" y="118" on="0"/>
        <pt x="225" y="70" on="0"/>
      </contour>
    </TTGlyph>
    <TTGlyph name="Lslash" xMin="50" yMin="0" xMax="450" yMax="745">
      <contour>
        <pt x="268" y="70" on="1"/>
        <pt x="430" y="70" on="1"/>
        <pt x="450" y="70" on="0"/>
        <pt x="450" y="0" on="0"/>
        <pt x="430" y="0" on="1"/>
        <pt x="268" y="0" on="1"/>
        <pt x="182" y="0" on="0"/>
        <pt x="110" y="83" on="0"/>
        <pt x="110" y="176" on="1"/>
        <pt x="110" y="334" on="1"/>
        <pt x="68" y="323" on="1"/>
        <pt x="50" y="323" on="0"/>
        <pt x="50" y="381" on="0"/>
        <pt x="71" y="387" on="1"/>
        <pt x="110" y="397" on="1"/>
        <pt x="110" y="722" on="1"/>
        <pt x="110" y="745" on="0"/>
        <pt x="190" y="745" on="0"/>
        <pt x="190" y="722" on="1"/>
        <pt x="190" y="419" on="1"/>
        <pt x="312" y="452" on="1"/>
        <pt x="330" y="452" on="0"/>
        <pt x="330" y="392" on="0"/>
        <pt x="309" y="388" on="1"/>
        <pt x="190" y="356" on="1"/>
        <pt x="190" y="176" on="1"/>
        <pt x="190" y="118" on="0"/>
        <pt x="225" y="70" on="0"/>
      </contour>
    </TTGlyph>
    <TTGlyph name="M" xMin="110" yMin="-5" xMax="744" yMax="740">
      <contour>
        <pt x="664" y="18" on="1"/>
        <pt x="664" y="670" on="1"/>
        <pt x="654" y="670" on="1"/>
        <pt x="622" y="670" on="0"/>
        <pt x="606" y="652" on="0"/>
        <pt x="597" y="616" on="1"/>
        <pt x="466" y="97" on="1"/>
        <pt x="461" y="74" on="0"/>
        <pt x="393" y="74" on="0"/>
        <pt x="388" y="97" on="1"/>
        <pt x="257" y="616" on="1"/>
        <pt x="248" y="652" on="0"/>
        <pt x="232" y="670" on="0"/>
        <pt x="200" y="670" on="1"/>
        <pt x="190" y="670" on="1"/>
        <pt x="190" y="18" on="1"/>
        <pt x="190" y="-5" on="0"/>
        <pt x="110" y="-5" on="0"/>
        <pt x="110" y="18" on="1"/>
        <pt x="110" y="665" on="1"/>
        <pt x="110" y="709" on="0"/>
        <pt x="131" y="740" on="0"/>
        <pt x="170" y="740" on="1"/>
        <pt x="192" y="740" on="1"/>
        <pt x="262" y="740" on="0"/>
        <pt x="311" y="708" on="0"/>
        <pt x="326" y="644" on="1"/>
        <pt x="427" y="229" on="1"/>
        <pt x="528" y="644" on="1"/>
        <pt x="543" y="708" on="0"/>
        <pt x="592" y="740" on="0"/>
        <pt x="662" y="740" on="1"/>
        <pt x="684" y="740" on="1"/>
        <pt x="723" y="740" on="0"/>
        <pt x="744" y="709" on="0"/>
        <pt x="744" y="665" on="1"/>
        <pt x="744" y="18" on="1"/>
        <pt x="744" y="-5" on="0"/>
        <pt x="664" y="-5" on="0"/>
      </contour>
    </TTGlyph>
    <TTGlyph name="N" xMin="110" yMin="-5" xMax="603" yMax="740">
      <contour>
        <pt x="200" y="670" on="1"/>
        <pt x="190" y="670" on="1"/>
        <pt x="190" y="18" on="1"/>
        <pt x="190" y="-5" on="0"/>
        <pt x="110" y="-5" on="0"/>
        <pt x="110" y="18" on="1"/>
        <pt x="110" y="665" on="1"/>
        <pt x="110" y="709" on="0"/>
        <pt x="131" y="740" on="0"/>
        <pt x="170" y="740" on="1"/>
        <pt x="192" y="740" on="1"/>
        <pt x="262" y="740" on="0"/>
        <pt x="310" y="708" on="0"/>
        <pt x="326" y="644" on="1"/>
        <pt x="456" y="119" on="1"/>
        <pt x="465" y="83" on="0"/>
        <pt x="481" y="65" on="0"/>
        <pt x="513" y="65" on="1"/>
        <pt x="523" y="65" on="1"/>
        <pt x="523" y="717" on="1"/>
        <pt x="523" y="740" on="0"/>
        <pt x="603" y="740" on="0"/>
        <pt x="603" y="717" on="1"/>
        <pt x="603" y="70" on="1"/>
        <pt x="603" y="26" on="0"/>
        <pt x="582" y="-5" on="0"/>
        <pt x="543" y="-5" on="1"/>
        <pt x="521" y="-5" on="1"/>
        <pt x="451" y="-5" on="0"/>
        <pt x="403" y="27" on="0"/>
        <pt x="387" y="91" on="1"/>
        <pt x="257" y="616" on="1"/>
        <pt x="248" y="652" on="0"/>
        <pt x="232" y="670" on="0"/>
      </contour>
    </TTGlyph>
    <TTGlyph name="Ntilde" xMin="110" yMin="-5" xMax="603" yMax="953">
      <contour>
        <pt x="200" y="670" on="1"/>
        <pt x="190" y="670" on="1"/>
        <pt x="190" y="18" on="1"/>
        <pt x="190" y="-5" on="0"/>
        <pt x="110" y="-5" on="0"/>
        <pt x="110" y="18" on="1"/>
        <pt x="110" y="665" on="1"/>
        <pt x="110" y="709" on="0"/>
        <pt x="131" y="740" on="0"/>
        <pt x="170" y="740" on="1"/>
        <pt x="192" y="740" on="1"/>
        <pt x="262" y="740" on="0"/>
        <pt x="310" y="708" on="0"/>
        <pt x="326" y="644" on="1"/>
        <pt x="456" y="119" on="1"/>
        <pt x="465" y="83" on="0"/>
        <pt x="481" y="65" on="0"/>
        <pt x="513" y="65" on="1"/>
        <pt x="523" y="65" on="1"/>
        <pt x="523" y="717" on="1"/>
        <pt x="523" y="740" on="0"/>
        <pt x="603" y="740" on="0"/>
        <pt x="603" y="717" on="1"/>
        <pt x="603" y="70" on="1"/>
        <pt x="603" y="26" on="0"/>
        <pt x="582" y="-5" on="0"/>
        <pt x="543" y="-5" on="1"/>
        <pt x="521" y="-5" on="1"/>
        <pt x="451" y="-5" on="0"/>
        <pt x="403" y="27" on="0"/>
        <pt x="387" y="91" on="1"/>
        <pt x="257" y="616" on="1"/>
        <pt x="248" y="652" on="0"/>
        <pt x="232" y="670" on="0"/>
      </contour>
      <contour>
        <pt x="286" y="871" on="1"/>
        <pt x="281" y="872" on="1"/>
        <pt x="268" y="872" on="0"/>
        <pt x="268" y="847" on="1"/>
        <pt x="268" y="827" on="0"/>
        <pt x="198" y="827" on="0"/>
        <pt x="198" y="843" on="1"/>
        <pt x="198" y="898" on="0"/>
        <pt x="234" y="952" on="0"/>
        <pt x="263" y="952" on="1"/>
        <pt x="270" y="952" on="0"/>
        <pt x="286" y="948" on="1"/>
        <pt x="427" y="909" on="1"/>
        <pt x="429" y="908" on="0"/>
        <pt x="433" y="908" on="1"/>
        <pt x="445" y="908" on="0"/>
        <pt x="445" y="933" on="1"/>
        <pt x="445" y="953" on="0"/>
        <pt x="515" y="953" on="0"/>
        <pt x="515" y="937" on="1"/>
        <pt x="515" y="883" on="0"/>
        <pt x="479" y="829" on="0"/>
        <pt x="449" y="829" on="1"/>
        <pt x="439" y="829" on="0"/>
        <pt x="427" y="832" on="1"/>
      </contour>
    </TTGlyph>
    <TTGlyph name="O" xMin="100" yMin="-15" xMax="563" yMax="755">
      <contour>
        <pt x="563" y="597" on="1"/>
        <pt x="563" y="143" on="1"/>
        <pt x="563" y="60" on="0"/>
        <pt x="434" y="-15" on="0"/>
        <pt x="328" y="-15" on="1"/>
        <pt x="100" y="-15" on="0"/>
        <pt x="100" y="143" on="1"/>
        <pt x="100" y="597" on="1"/>
        <pt x="100" y="680" on="0"/>
        <pt x="229" y="755" on="0"/>
        <pt x="335" y="755" on="1"/>
        <pt x="563" y="755" on="0"/>
      </contour>
      <contour>
        <pt x="180" y="607" on="1"/>
        <pt x="180" y="133" on="1"/>
        <pt x="180" y="55" on="0"/>
        <pt x="483" y="55" on="0"/>
        <pt x="483" y="133" on="1"/>
        <pt x="483" y="607" on="1"/>
        <pt x="483" y="685" on="0"/>
        <pt x="180" y="685" on="0"/>
      </contour>
    </TTGlyph>
    <TTGlyph name="OE" xMin="100" yMin="-15" xMax="926" yMax="755">
      <contour>
        <pt x="705" y="755" on="1"/>
        <pt x="794" y="755" on="0"/>
        <pt x="904" y="679" on="0"/>
        <pt x="904" y="597" on="1"/>
        <pt x="904" y="582" on="1"/>
        <pt x="904" y="559" on="0"/>
        <pt x="824" y="559" on="0"/>
        <pt x="824" y="582" on="1"/>
        <pt x="824" y="607" on="1"/>
        <pt x="824" y="685" on="0"/>
        <pt x="563" y="685" on="0"/>
        <pt x="563" y="607" on="1"/>
        <pt x="563" y="504" on="1"/>
        <pt x="563" y="416" on="0"/>
        <pt x="671" y="416" on="1"/>
        <pt x="756" y="416" on="1"/>
        <pt x="776" y="416" on="0"/>
        <pt x="776" y="346" on="0"/>
        <pt x="756" y="346" on="1"/>
        <pt x="671" y="346" on="1"/>
        <pt x="563" y="346" on="0"/>
        <pt x="563" y="258" on="1"/>
        <pt x="563" y="133" on="1"/>
        <pt x="563" y="55" on="0"/>
        <pt x="846" y="55" on="0"/>
        <pt x="846" y="133" on="1"/>
        <pt x="846" y="205" on="1"/>
        <pt x="846" y="228" on="0"/>
        <pt x="926" y="228" on="0"/>
        <pt x="926" y="205" on="1"/>
        <pt x="926" y="143" on="1"/>
        <pt x="926" y="60" on="0"/>
        <pt x="806" y="-15" on="0"/>
        <pt x="706" y="-15" on="1"/>
        <pt x="577" y="-15" on="0"/>
        <pt x="522" y="40" on="1"/>
        <pt x="463" y="-15" on="0"/>
        <pt x="328" y="-15" on="1"/>
        <pt x="100" y="-15" on="0"/>
        <pt x="100" y="143" on="1"/>
        <pt x="100" y="597" on="1"/>
        <pt x="100" y="680" on="0"/>
        <pt x="229" y="755" on="0"/>
        <pt x="465" y="755" on="0"/>
        <pt x="523" y="700" on="1"/>
        <pt x="579" y="755" on="0"/>
      </contour>
      <contour>
        <pt x="483" y="133" on="1"/>
        <pt x="483" y="258" on="1"/>
        <pt x="483" y="357" on="0"/>
        <pt x="566" y="381" on="1"/>
        <pt x="483" y="403" on="0"/>
        <pt x="483" y="504" on="1"/>
        <pt x="483" y="607" on="1"/>
        <pt x="483" y="685" on="0"/>
        <pt x="180" y="685" on="0"/>
        <pt x="180" y="607" on="1"/>
        <pt x="180" y="133" on="1"/>
        <pt x="180" y="55" on="0"/>
        <pt x="483" y="55" on="0"/>
      </contour>
    </TTGlyph>
    <TTGlyph name="Oacute" xMin="100" yMin="-15" xMax="563" yMax="986">
      <contour>
        <pt x="563" y="597" on="1"/>
        <pt x="563" y="143" on="1"/>
        <pt x="563" y="60" on="0"/>
        <pt x="434" y="-15" on="0"/>
        <pt x="328" y="-15" on="1"/>
        <pt x="100" y="-15" on="0"/>
        <pt x="100" y="143" on="1"/>
        <pt x="100" y="597" on="1"/>
        <pt x="100" y="680" on="0"/>
        <pt x="229" y="755" on="0"/>
        <pt x="335" y="755" on="1"/>
        <pt x="563" y="755" on="0"/>
      </contour>
      <contour>
        <pt x="180" y="607" on="1"/>
        <pt x="180" y="133" on="1"/>
        <pt x="180" y="55" on="0"/>
        <pt x="483" y="55" on="0"/>
        <pt x="483" y="133" on="1"/>
        <pt x="483" y="607" on="1"/>
        <pt x="483" y="685" on="0"/>
        <pt x="180" y="685" on="0"/>
      </contour>
      <contour>
        <pt x="253" y="810" on="1"/>
        <pt x="246" y="807" on="1"/>
        <pt x="237" y="807" on="0"/>
        <pt x="214" y="841" on="0"/>
        <pt x="214" y="860" on="0"/>
        <pt x="221" y="866" on="1"/>
        <pt x="390" y="982" on="1"/>
        <pt x="395" y="986" on="0"/>
        <pt x="417" y="986" on="0"/>
        <pt x="449" y="937" on="0"/>
        <pt x="449" y="904" on="0"/>
        <pt x="438" y="898" on="1"/>
      </contour>
    </TTGlyph>
    <TTGlyph name="Ocircumflex" xMin="100" yMin="-15" xMax="563" yMax="986">
      <contour>
        <pt x="563" y="597" on="1"/>
        <pt x="563" y="143" on="1"/>
        <pt x="563" y="60" on="0"/>
        <pt x="434" y="-15" on="0"/>
        <pt x="328" y="-15" on="1"/>
        <pt x="100" y="-15" on="0"/>
        <pt x="100" y="143" on="1"/>
        <pt x="100" y="597" on="1"/>
        <pt x="100" y="680" on="0"/>
        <pt x="229" y="755" on="0"/>
        <pt x="335" y="755" on="1"/>
        <pt x="563" y="755" on="0"/>
      </contour>
      <contour>
        <pt x="180" y="607" on="1"/>
        <pt x="180" y="133" on="1"/>
        <pt x="180" y="55" on="0"/>
        <pt x="483" y="55" on="0"/>
        <pt x="483" y="133" on="1"/>
        <pt x="483" y="607" on="1"/>
        <pt x="483" y="685" on="0"/>
        <pt x="180" y="685" on="0"/>
      </contour>
      <contour>
        <pt x="326" y="986" on="1"/>
        <pt x="337" y="986" on="1"/>
        <pt x="342" y="986" on="0"/>
        <pt x="346" y="982" on="1"/>
        <pt x="466" y="866" on="1"/>
        <pt x="473" y="859" on="0"/>
        <pt x="473" y="838" on="0"/>
        <pt x="451" y="807" on="0"/>
        <pt x="438" y="807" on="0"/>
        <pt x="434" y="810" on="1"/>
        <pt x="331" y="886" on="1"/>
        <pt x="228" y="810" on="1"/>
        <pt x="224" y="807" on="0"/>
        <pt x="211" y="807" on="0"/>
        <pt x="189" y="838" on="0"/>
        <pt x="189" y="859" on="0"/>
        <pt x="196" y="866" on="1"/>
        <pt x="316" y="982" on="1"/>
        <pt x="320" y="986" on="0"/>
      </contour>
    </TTGlyph>
    <TTGlyph name="Odieresis" xMin="100" yMin="-15" xMax="563" yMax="960">
      <contour>
        <pt x="563" y="597" on="1"/>
        <pt x="563" y="143" on="1"/>
        <pt x="563" y="60" on="0"/>
        <pt x="434" y="-15" on="0"/>
        <pt x="328" y="-15" on="1"/>
        <pt x="100" y="-15" on="0"/>
        <pt x="100" y="143" on="1"/>
        <pt x="100" y="597" on="1"/>
        <pt x="100" y="680" on="0"/>
        <pt x="229" y="755" on="0"/>
        <pt x="335" y="755" on="1"/>
        <pt x="563" y="755" on="0"/>
      </contour>
      <contour>
        <pt x="180" y="607" on="1"/>
        <pt x="180" y="133" on="1"/>
        <pt x="180" y="55" on="0"/>
        <pt x="483" y="55" on="0"/>
        <pt x="483" y="133" on="1"/>
        <pt x="483" y="607" on="1"/>
        <pt x="483" y="685" on="0"/>
        <pt x="180" y="685" on="0"/>
      </contour>
      <contour>
        <pt x="275" y="935" on="1"/>
        <pt x="275" y="848" on="1"/>
        <pt x="275" y="823" on="0"/>
        <pt x="188" y="823" on="0"/>
        <pt x="188" y="848" on="1"/>
        <pt x="188" y="935" on="1"/>
        <pt x="188" y="960" on="0"/>
        <pt x="275" y="960" on="0"/>
      </contour>
      <contour>
        <pt x="475" y="935" on="1"/>
        <pt x="475" y="848" on="1"/>
        <pt x="475" y="823" on="0"/>
        <pt x="388" y="823" on="0"/>
        <pt x="388" y="848" on="1"/>
        <pt x="388" y="935" on="1"/>
        <pt x="388" y="960" on="0"/>
        <pt x="475" y="960" on="0"/>
      </contour>
    </TTGlyph>
    <TTGlyph name="Ograve" xMin="100" yMin="-15" xMax="563" yMax="986">
      <contour>
        <pt x="563" y="597" on="1"/>
        <pt x="563" y="143" on="1"/>
        <pt x="563" y="60" on="0"/>
        <pt x="434" y="-15" on="0"/>
        <pt x="328" y="-15" on="1"/>
        <pt x="100" y="-15" on="0"/>
        <pt x="100" y="143" on="1"/>
        <pt x="100" y="597" on="1"/>
        <pt x="100" y="680" on="0"/>
        <pt x="229" y="755" on="0"/>
        <pt x="335" y="755" on="1"/>
        <pt x="563" y="755" on="0"/>
      </contour>
      <contour>
        <pt x="180" y="607" on="1"/>
        <pt x="180" y="133" on="1"/>
        <pt x="180" y="55" on="0"/>
        <pt x="483" y="55" on="0"/>
        <pt x="483" y="133" on="1"/>
        <pt x="483" y="607" on="1"/>
        <pt x="483" y="685" on="0"/>
        <pt x="180" y="685" on="0"/>
      </contour>
      <contour>
        <pt x="417" y="807" on="1"/>
        <pt x="225" y="898" on="1"/>
        <pt x="214" y="904" on="0"/>
        <pt x="214" y="937" on="0"/>
        <pt x="246" y="986" on="0"/>
        <pt x="268" y="986" on="0"/>
        <pt x="273" y="982" on="1"/>
        <pt x="442" y="866" on="1"/>
        <pt x="449" y="860" on="0"/>
        <pt x="449" y="841" on="0"/>
        <pt x="426" y="807" on="0"/>
      </contour>
    </TTGlyph>
    <TTGlyph name="Omega" xMin="80" yMin="0" xMax="776" yMax="755">
      <contour>
        <pt x="741" y="568" on="1"/>
        <pt x="741" y="331" on="1"/>
        <pt x="741" y="254" on="0"/>
        <pt x="657" y="164" on="0"/>
        <pt x="586" y="160" on="1"/>
        <pt x="586" y="138" on="1"/>
        <pt x="586" y="94" on="0"/>
        <pt x="616" y="70" on="0"/>
        <pt x="672" y="70" on="1"/>
        <pt x="756" y="70" on="1"/>
        <pt x="776" y="70" on="0"/>
        <pt x="776" y="0" on="0"/>
        <pt x="756" y="0" on="1"/>
        <pt x="672" y="0" on="1"/>
        <pt x="581" y="0" on="0"/>
        <pt x="511" y="54" on="0"/>
        <pt x="511" y="138" on="1"/>
        <pt x="511" y="163" on="1"/>
        <pt x="511" y="190" on="0"/>
        <pt x="512" y="200" on="1"/>
        <pt x="516" y="225" on="0"/>
        <pt x="610" y="225" on="0"/>
        <pt x="661" y="282" on="0"/>
        <pt x="661" y="331" on="1"/>
        <pt x="661" y="568" on="1"/>
        <pt x="661" y="628" on="0"/>
        <pt x="530" y="685" on="0"/>
        <pt x="326" y="685" on="0"/>
        <pt x="195" y="628" on="0"/>
        <pt x="195" y="568" on="1"/>
        <pt x="195" y="331" on="1"/>
        <pt x="195" y="282" on="0"/>
        <pt x="246" y="225" on="0"/>
        <pt x="300" y="225" on="1"/>
        <pt x="340" y="225" on="0"/>
        <pt x="344" y="200" on="1"/>
        <pt x="345" y="190" on="0"/>
        <pt x="345" y="163" on="1"/>
        <pt x="345" y="138" on="1"/>
        <pt x="345" y="54" on="0"/>
        <pt x="275" y="0" on="0"/>
        <pt x="184" y="0" on="1"/>
        <pt x="100" y="0" on="1"/>
        <pt x="80" y="0" on="0"/>
        <pt x="80" y="70" on="0"/>
        <pt x="100" y="70" on="1"/>
        <pt x="184" y="70" on="1"/>
        <pt x="240" y="70" on="0"/>
        <pt x="270" y="94" on="0"/>
        <pt x="270" y="138" on="1"/>
        <pt x="270" y="160" on="1"/>
        <pt x="199" y="164" on="0"/>
        <pt x="115" y="254" on="0"/>
        <pt x="115" y="331" on="1"/>
        <pt x="115" y="568" on="1"/>
        <pt x="115" y="634" on="0"/>
        <pt x="205" y="721" on="0"/>
        <pt x="340" y="755" on="0"/>
        <pt x="516" y="755" on="0"/>
        <pt x="651" y="721" on="0"/>
        <pt x="741" y="634" on="0"/>
      </contour>
    </TTGlyph>
    <TTGlyph name="Oslash" xMin="100" yMin="-105" xMax="563" yMax="845">
      <contour>
        <pt x="563" y="597" on="1"/>
        <pt x="563" y="143" on="1"/>
        <pt x="563" y="60" on="0"/>
        <pt x="434" y="-15" on="0"/>
        <pt x="328" y="-15" on="1"/>
        <pt x="305" y="-15" on="0"/>
        <pt x="265" y="-11" on="1"/>
        <pt x="246" y="-82" on="1"/>
        <pt x="239" y="-105" on="0"/>
        <pt x="173" y="-105" on="0"/>
        <pt x="173" y="-88" on="1"/>
        <pt x="173" y="-86" on="0"/>
        <pt x="177" y="-71" on="1"/>
        <pt x="197" y="4" on="1"/>
        <pt x="100" y="41" on="0"/>
        <pt x="100" y="143" on="1"/>
        <pt x="100" y="597" on="1"/>
        <pt x="100" y="680" on="0"/>
        <pt x="229" y="755" on="0"/>
        <pt x="335" y="755" on="1"/>
        <pt x="358" y="755" on="0"/>
        <pt x="398" y="751" on="1"/>
        <pt x="417" y="822" on="1"/>
        <pt x="424" y="845" on="0"/>
        <pt x="490" y="845" on="0"/>
        <pt x="490" y="828" on="1"/>
        <pt x="490" y="826" on="0"/>
        <pt x="486" y="811" on="1"/>
        <pt x="466" y="735" on="1"/>
        <pt x="563" y="699" on="0"/>
      </contour>
      <contour>
        <pt x="180" y="607" on="1"/>
        <pt x="180" y="133" on="1"/>
        <pt x="180" y="94" on="0"/>
        <pt x="216" y="75" on="1"/>
        <pt x="379" y="683" on="1"/>
        <pt x="351" y="685" on="0"/>
        <pt x="335" y="685" on="1"/>
        <pt x="180" y="685" on="0"/>
      </contour>
      <contour>
        <pt x="483" y="607" on="1"/>
        <pt x="483" y="645" on="0"/>
        <pt x="447" y="665" on="1"/>
        <pt x="283" y="57" on="1"/>
        <pt x="297" y="55" on="0"/>
        <pt x="328" y="55" on="1"/>
        <pt x="483" y="55" on="0"/>
        <pt x="483" y="133" on="1"/>
      </contour>
    </TTGlyph>
    <TTGlyph name="Otilde" xMin="100" yMin="-15" xMax="563" yMax="953">
      <contour>
        <pt x="563" y="597" on="1"/>
        <pt x="563" y="143" on="1"/>
        <pt x="563" y="60" on="0"/>
        <pt x="434" y="-15" on="0"/>
        <pt x="328" y="-15" on="1"/>
        <pt x="100" y="-15" on="0"/>
        <pt x="100" y="143" on="1"/>
        <pt x="100" y="597" on="1"/>
        <pt x="100" y="680" on="0"/>
        <pt x="229" y="755" on="0"/>
        <pt x="335" y="755" on="1"/>
        <pt x="563" y="755" on="0"/>
      </contour>
      <contour>
        <pt x="180" y="607" on="1"/>
        <pt x="180" y="133" on="1"/>
        <pt x="180" y="55" on="0"/>
        <pt x="483" y="55" on="0"/>
        <pt x="483" y="133" on="1"/>
        <pt x="483" y="607" on="1"/>
        <pt x="483" y="685" on="0"/>
        <pt x="180" y="685" on="0"/>
      </contour>
      <contour>
        <pt x="261" y="871" on="1"/>
        <pt x="256" y="872" on="1"/>
        <pt x="243" y="872" on="0"/>
        <pt x="243" y="847" on="1"/>
        <pt x="243" y="827" on="0"/>
        <pt x="173" y="827" on="0"/>
        <pt x="173" y="843" on="1"/>
        <pt x="173" y="898" on="0"/>
        <pt x="209" y="952" on="0"/>
        <pt x="238" y="952" on="1"/>
        <pt x="245" y="952" on="0"/>
        <pt x="261" y="948" on="1"/>
        <pt x="402" y="909" on="1"/>
        <pt x="404" y="908" on="0"/>
        <pt x="408" y="908" on="1"/>
        <pt x="420" y="908" on="0"/>
        <pt x="420" y="933" on="1"/>
        <pt x="420" y="953" on="0"/>
        <pt x="490" y="953" on="0"/>
        <pt x="490" y="937" on="1"/>
        <pt x="490" y="883" on="0"/>
        <pt x="454" y="829" on="0"/>
        <pt x="424" y="829" on="1"/>
        <pt x="414" y="829" on="0"/>
        <pt x="402" y="832" on="1"/>
      </contour>
    </TTGlyph>
    <TTGlyph name="P" xMin="110" yMin="-5" xMax="543" yMax="755">
      <contour>
        <pt x="240" y="350" on="1"/>
        <pt x="327" y="350" on="1"/>
        <pt x="463" y="350" on="0"/>
        <pt x="463" y="428" on="1"/>
        <pt x="463" y="607" on="1"/>
        <pt x="463" y="685" on="0"/>
        <pt x="190" y="685" on="0"/>
        <pt x="190" y="607" on="1"/>
        <pt x="190" y="18" on="1"/>
        <pt x="190" y="-5" on="0"/>
        <pt x="110" y="-5" on="0"/>
        <pt x="110" y="18" on="1"/>
        <pt x="110" y="597" on="1"/>
        <pt x="110" y="680" on="0"/>
        <pt x="228" y="755" on="0"/>
        <pt x="424" y="755" on="0"/>
        <pt x="543" y="680" on="0"/>
        <pt x="543" y="597" on="1"/>
        <pt x="543" y="438" on="1"/>
        <pt x="543" y="355" on="0"/>
        <pt x="425" y="280" on="0"/>
        <pt x="327" y="280" on="1"/>
        <pt x="240" y="280" on="1"/>
        <pt x="220" y="280" on="0"/>
        <pt x="220" y="350" on="0"/>
      </contour>
    </TTGlyph>
    <TTGlyph name="Q" xMin="100" yMin="-117" xMax="563" yMax="755">
      <contour>
        <pt x="328" y="55" on="1"/>
        <pt x="348" y="55" on="0"/>
        <pt x="348" y="-15" on="0"/>
        <pt x="328" y="-15" on="1"/>
        <pt x="100" y="-15" on="0"/>
        <pt x="100" y="143" on="1"/>
        <pt x="100" y="597" on="1"/>
        <pt x="100" y="680" on="0"/>
        <pt x="229" y="755" on="0"/>
        <pt x="335" y="755" on="1"/>
        <pt x="563" y="755" on="0"/>
        <pt x="563" y="597" on="1"/>
        <pt x="563" y="143" on="1"/>
        <pt x="563" y="52" on="0"/>
        <pt x="479" y="12" on="1"/>
        <pt x="529" y="-98" on="0"/>
        <pt x="529" y="-100" on="1"/>
        <pt x="529" y="-117" on="0"/>
        <pt x="461" y="-117" on="0"/>
        <pt x="451" y="-95" on="1"/>
        <pt x="331" y="172" on="0"/>
        <pt x="331" y="174" on="1"/>
        <pt x="331" y="191" on="0"/>
        <pt x="399" y="191" on="0"/>
        <pt x="409" y="169" on="1"/>
        <pt x="449" y="78" on="1"/>
        <pt x="483" y="97" on="0"/>
        <pt x="483" y="133" on="1"/>
        <pt x="483" y="607" on="1"/>
        <pt x="483" y="685" on="0"/>
        <pt x="180" y="685" on="0"/>
        <pt x="180" y="607" on="1"/>
        <pt x="180" y="133" on="1"/>
        <pt x="180" y="55" on="0"/>
      </contour>
    </TTGlyph>
    <TTGlyph name="R" xMin="110" yMin="-5" xMax="563" yMax="755">
      <contour>
        <pt x="240" y="370" on="1"/>
        <pt x="327" y="370" on="1"/>
        <pt x="463" y="370" on="0"/>
        <pt x="463" y="448" on="1"/>
        <pt x="463" y="607" on="1"/>
        <pt x="463" y="685" on="0"/>
        <pt x="190" y="685" on="0"/>
        <pt x="190" y="607" on="1"/>
        <pt x="190" y="18" on="1"/>
        <pt x="190" y="-5" on="0"/>
        <pt x="110" y="-5" on="0"/>
        <pt x="110" y="18" on="1"/>
        <pt x="110" y="597" on="1"/>
        <pt x="110" y="680" on="0"/>
        <pt x="228" y="755" on="0"/>
        <pt x="424" y="755" on="0"/>
        <pt x="543" y="680" on="0"/>
        <pt x="543" y="597" on="1"/>
        <pt x="543" y="458" on="1"/>
        <pt x="543" y="365" on="0"/>
        <pt x="456" y="342" on="1"/>
        <pt x="479" y="321" on="0"/>
        <pt x="492" y="274" on="1"/>
        <pt x="563" y="19" on="0"/>
        <pt x="563" y="13" on="1"/>
        <pt x="563" y="-5" on="0"/>
        <pt x="493" y="-5" on="0"/>
        <pt x="486" y="18" on="1"/>
        <pt x="423" y="246" on="1"/>
        <pt x="414" y="281" on="0"/>
        <pt x="382" y="300" on="0"/>
        <pt x="328" y="300" on="1"/>
        <pt x="240" y="300" on="1"/>
        <pt x="220" y="300" on="0"/>
        <pt x="220" y="370" on="0"/>
      </contour>
    </TTGlyph>
    <TTGlyph name="S" xMin="80" yMin="-15" xMax="537" yMax="755">
      <contour>
        <pt x="457" y="133" on="1"/>
        <pt x="457" y="246" on="1"/>
        <pt x="457" y="279" on="0"/>
        <pt x="405" y="309" on="0"/>
        <pt x="341" y="324" on="1"/>
        <pt x="252" y="344" on="1"/>
        <pt x="191" y="358" on="0"/>
        <pt x="160" y="375" on="1"/>
        <pt x="94" y="410" on="0"/>
        <pt x="94" y="520" on="1"/>
        <pt x="94" y="597" on="1"/>
        <pt x="94" y="680" on="0"/>
        <pt x="213" y="755" on="0"/>
        <pt x="409" y="755" on="0"/>
        <pt x="527" y="680" on="0"/>
        <pt x="527" y="597" on="1"/>
        <pt x="527" y="553" on="1"/>
        <pt x="527" y="530" on="0"/>
        <pt x="447" y="530" on="0"/>
        <pt x="447" y="553" on="1"/>
        <pt x="447" y="607" on="1"/>
        <pt x="447" y="685" on="0"/>
        <pt x="174" y="685" on="0"/>
        <pt x="174" y="607" on="1"/>
        <pt x="174" y="522" on="1"/>
        <pt x="174" y="467" on="0"/>
        <pt x="207" y="426" on="0"/>
        <pt x="252" y="416" on="1"/>
        <pt x="341" y="396" on="1"/>
        <pt x="437" y="375" on="0"/>
        <pt x="464" y="360" on="0"/>
        <pt x="500" y="342" on="0"/>
        <pt x="513" y="323" on="0"/>
        <pt x="522" y="309" on="1"/>
        <pt x="537" y="286" on="0"/>
        <pt x="537" y="238" on="1"/>
        <pt x="537" y="143" on="1"/>
        <pt x="537" y="61" on="0"/>
        <pt x="406" y="-15" on="0"/>
        <pt x="207" y="-15" on="0"/>
        <pt x="80" y="61" on="0"/>
        <pt x="80" y="143" on="1"/>
        <pt x="80" y="187" on="1"/>
        <pt x="80" y="210" on="0"/>
        <pt x="160" y="210" on="0"/>
        <pt x="160" y="187" on="1"/>
        <pt x="160" y="133" on="1"/>
        <pt x="160" y="92" on="0"/>
        <pt x="243" y="55" on="0"/>
        <pt x="370" y="55" on="0"/>
        <pt x="457" y="93" on="0"/>
      </contour>
    </TTGlyph>
    <TTGlyph name="Scaron" xMin="80" yMin="-15" xMax="537" yMax="981">
      <contour>
        <pt x="457" y="133" on="1"/>
        <pt x="457" y="246" on="1"/>
        <pt x="457" y="279" on="0"/>
        <pt x="405" y="309" on="0"/>
        <pt x="341" y="324" on="1"/>
        <pt x="252" y="344" on="1"/>
        <pt x="191" y="358" on="0"/>
        <pt x="160" y="375" on="1"/>
        <pt x="94" y="410" on="0"/>
        <pt x="94" y="520" on="1"/>
        <pt x="94" y="597" on="1"/>
        <pt x="94" y="680" on="0"/>
        <pt x="213" y="755" on="0"/>
        <pt x="409" y="755" on="0"/>
        <pt x="527" y="680" on="0"/>
        <pt x="527" y="597" on="1"/>
        <pt x="527" y="553" on="1"/>
        <pt x="527" y="530" on="0"/>
        <pt x="447" y="530" on="0"/>
        <pt x="447" y="553" on="1"/>
        <pt x="447" y="607" on="1"/>
        <pt x="447" y="685" on="0"/>
        <pt x="174" y="685" on="0"/>
        <pt x="174" y="607" on="1"/>
        <pt x="174" y="522" on="1"/>
        <pt x="174" y="467" on="0"/>
        <pt x="207" y="426" on="0"/>
        <pt x="252" y="416" on="1"/>
        <pt x="341" y="396" on="1"/>
        <pt x="437" y="375" on="0"/>
        <pt x="464" y="360" on="0"/>
        <pt x="500" y="342" on="0"/>
        <pt x="513" y="323" on="0"/>
        <pt x="522" y="309" on="1"/>
        <pt x="537" y="286" on="0"/>
        <pt x="537" y="238" on="1"/>
        <pt x="537" y="143" on="1"/>
        <pt x="537" y="61" on="0"/>
        <pt x="406" y="-15" on="0"/>
        <pt x="207" y="-15" on="0"/>
        <pt x="80" y="61" on="0"/>
        <pt x="80" y="143" on="1"/>
        <pt x="80" y="187" on="1"/>
        <pt x="80" y="210" on="0"/>
        <pt x="160" y="210" on="0"/>
        <pt x="160" y="187" on="1"/>
        <pt x="160" y="133" on="1"/>
        <pt x="160" y="92" on="0"/>
        <pt x="243" y="55" on="0"/>
        <pt x="370" y="55" on="0"/>
        <pt x="457" y="93" on="0"/>
      </contour>
      <contour>
        <pt x="314" y="802" on="1"/>
        <pt x="303" y="802" on="1"/>
        <pt x="297" y="802" on="0"/>
        <pt x="293" y="806" on="1"/>
        <pt x="173" y="922" on="1"/>
        <pt x="166" y="929" on="0"/>
        <pt x="166" y="950" on="0"/>
        <pt x="188" y="981" on="0"/>
        <pt x="198" y="981" on="1"/>
        <pt x="200" y="981" on="0"/>
        <pt x="205" y="978" on="1"/>
        <pt x="308" y="902" on="1"/>
        <pt x="411" y="978" on="1"/>
        <pt x="416" y="981" on="0"/>
        <pt x="418" y="981" on="1"/>
        <pt x="428" y="981" on="0"/>
        <pt x="450" y="950" on="0"/>
        <pt x="450" y="929" on="0"/>
        <pt x="443" y="922" on="1"/>
        <pt x="323" y="806" on="1"/>
        <pt x="319" y="802" on="0"/>
      </contour>
    </TTGlyph>
    <TTGlyph name="T" xMin="20" yMin="-5" xMax="480" yMax="740">
      <contour>
        <pt x="40" y="740" on="1"/>
        <pt x="460" y="740" on="1"/>
        <pt x="480" y="740" on="0"/>
        <pt x="480" y="670" on="0"/>
        <pt x="460" y="670" on="1"/>
        <pt x="290" y="670" on="1"/>
        <pt x="290" y="18" on="1"/>
        <pt x="290" y="-5" on="0"/>
        <pt x="210" y="-5" on="0"/>
        <pt x="210" y="18" on="1"/>
        <pt x="210" y="670" on="1"/>
        <pt x="40" y="670" on="1"/>
        <pt x="20" y="670" on="0"/>
        <pt x="20" y="740" on="0"/>
      </contour>
    </TTGlyph>
    <TTGlyph name="Thorn" xMin="110" yMin="-5" xMax="543" yMax="755">
      <contour>
        <pt x="240" y="210" on="1"/>
        <pt x="327" y="210" on="1"/>
        <pt x="463" y="210" on="0"/>
        <pt x="463" y="288" on="1"/>
        <pt x="463" y="467" on="1"/>
        <pt x="463" y="545" on="0"/>
        <pt x="190" y="545" on="0"/>
        <pt x="190" y="471" on="1"/>
        <pt x="190" y="18" on="1"/>
        <pt x="190" y="-5" on="0"/>
        <pt x="110" y="-5" on="0"/>
        <pt x="110" y="18" on="1"/>
        <pt x="110" y="732" on="1"/>
        <pt x="110" y="755" on="0"/>
        <pt x="190" y="755" on="0"/>
        <pt x="190" y="732" on="1"/>
        <pt x="190" y="577" on="1"/>
        <pt x="231" y="615" on="0"/>
        <pt x="424" y="615" on="0"/>
        <pt x="543" y="540" on="0"/>
        <pt x="543" y="457" on="1"/>
        <pt x="543" y="298" on="1"/>
        <pt x="543" y="215" on="0"/>
        <pt x="425" y="140" on="0"/>
        <pt x="327" y="140" on="1"/>
        <pt x="240" y="140" on="1"/>
        <pt x="220" y="140" on="0"/>
        <pt x="220" y="210" on="0"/>
      </contour>
    </TTGlyph>
    <TTGlyph name="U" xMin="110" yMin="-15" xMax="573" yMax="745">
      <contour>
        <pt x="190" y="133" on="1"/>
        <pt x="190" y="55" on="0"/>
        <pt x="493" y="55" on="0"/>
        <pt x="493" y="133" on="1"/>
        <pt x="493" y="722" on="1"/>
        <pt x="493" y="745" on="0"/>
        <pt x="573" y="745" on="0"/>
        <pt x="573" y="722" on="1"/>
        <pt x="573" y="143" on="1"/>
        <pt x="573" y="60" on="0"/>
        <pt x="444" y="-15" on="0"/>
        <pt x="338" y="-15" on="1"/>
        <pt x="110" y="-15" on="0"/>
        <pt x="110" y="143" on="1"/>
        <pt x="110" y="722" on="1"/>
        <pt x="110" y="745" on="0"/>
        <pt x="189" y="745" on="0"/>
        <pt x="189" y="722" on="1"/>
      </contour>
    </TTGlyph>
    <TTGlyph name="Uacute" xMin="110" yMin="-15" xMax="573" yMax="986">
      <contour>
        <pt x="190" y="133" on="1"/>
        <pt x="190" y="55" on="0"/>
        <pt x="493" y="55" on="0"/>
        <pt x="493" y="133" on="1"/>
        <pt x="493" y="722" on="1"/>
        <pt x="493" y="745" on="0"/>
        <pt x="573" y="745" on="0"/>
        <pt x="573" y="722" on="1"/>
        <pt x="573" y="143" on="1"/>
        <pt x="573" y="60" on="0"/>
        <pt x="444" y="-15" on="0"/>
        <pt x="338" y="-15" on="1"/>
        <pt x="110" y="-15" on="0"/>
        <pt x="110" y="143" on="1"/>
        <pt x="110" y="722" on="1"/>
        <pt x="110" y="745" on="0"/>
        <pt x="189" y="745" on="0"/>
        <pt x="189" y="722" on="1"/>
      </contour>
      <contour>
        <pt x="263" y="810" on="1"/>
        <pt x="256" y="807" on="1"/>
        <pt x="247" y="807" on="0"/>
        <pt x="224" y="841" on="0"/>
        <pt x="224" y="860" on="0"/>
        <pt x="231" y="866" on="1"/>
        <pt x="400" y="982" on="1"/>
        <pt x="405" y="986" on="0"/>
        <pt x="427" y="986" on="0"/>
        <pt x="459" y="937" on="0"/>
        <pt x="459" y="904" on="0"/>
        <pt x="448" y="898" on="1"/>
      </contour>
    </TTGlyph>
    <TTGlyph name="Ucircumflex" xMin="110" yMin="-15" xMax="573" yMax="986">
      <contour>
        <pt x="190" y="133" on="1"/>
        <pt x="190" y="55" on="0"/>
        <pt x="493" y="55" on="0"/>
        <pt x="493" y="133" on="1"/>
        <pt x="493" y="722" on="1"/>
        <pt x="493" y="745" on="0"/>
        <pt x="573" y="745" on="0"/>
        <pt x="573" y="722" on="1"/>
        <pt x="573" y="143" on="1"/>
        <pt x="573" y="60" on="0"/>
        <pt x="444" y="-15" on="0"/>
        <pt x="338" y="-15" on="1"/>
        <pt x="110" y="-15" on="0"/>
        <pt x="110" y="143" on="1"/>
        <pt x="110" y="722" on="1"/>
        <pt x="110" y="745" on="0"/>
        <pt x="189" y="745" on="0"/>
        <pt x="189" y="722" on="1"/>
      </contour>
      <contour>
        <pt x="336" y="986" on="1"/>
        <pt x="347" y="986" on="1"/>
        <pt x="352" y="986" on="0"/>
        <pt x="356" y="982" on="1"/>
        <pt x="476" y="866" on="1"/>
        <pt x="483" y="859" on="0"/>
        <pt x="483" y="838" on="0"/>
        <pt x="461" y="807" on="0"/>
        <pt x="448" y="807" on="0"/>
        <pt x="444" y="810" on="1"/>
        <pt x="341" y="886" on="1"/>
        <pt x="238" y="810" on="1"/>
        <pt x="233" y="807" on="0"/>
        <pt x="231" y="807" on="1"/>
        <pt x="221" y="807" on="0"/>
        <pt x="199" y="838" on="0"/>
        <pt x="199" y="859" on="0"/>
        <pt x="206" y="866" on="1"/>
        <pt x="326" y="982" on="1"/>
        <pt x="330" y="986" on="0"/>
      </contour>
    </TTGlyph>
    <TTGlyph name="Udieresis" xMin="110" yMin="-15" xMax="573" yMax="960">
      <contour>
        <pt x="190" y="133" on="1"/>
        <pt x="190" y="55" on="0"/>
        <pt x="493" y="55" on="0"/>
        <pt x="493" y="133" on="1"/>
        <pt x="493" y="722" on="1"/>
        <pt x="493" y="745" on="0"/>
        <pt x="573" y="745" on="0"/>
        <pt x="573" y="722" on="1"/>
        <pt x="573" y="143" on="1"/>
        <pt x="573" y="60" on="0"/>
        <pt x="444" y="-15" on="0"/>
        <pt x="338" y="-15" on="1"/>
        <pt x="110" y="-15" on="0"/>
        <pt x="110" y="143" on="1"/>
        <pt x="110" y="722" on="1"/>
        <pt x="110" y="745" on="0"/>
        <pt x="189" y="745" on="0"/>
        <pt x="189" y="722" on="1"/>
      </contour>
      <contour>
        <pt x="285" y="935" on="1"/>
        <pt x="285" y="848" on="1"/>
        <pt x="285" y="823" on="0"/>
        <pt x="198" y="823" on="0"/>
        <pt x="198" y="848" on="1"/>
        <pt x="198" y="935" on="1"/>
        <pt x="198" y="960" on="0"/>
        <pt x="285" y="960" on="0"/>
      </contour>
      <contour>
        <pt x="485" y="935" on="1"/>
        <pt x="485" y="848" on="1"/>
        <pt x="485" y="823" on="0"/>
        <pt x="398" y="823" on="0"/>
        <pt x="398" y="848" on="1"/>
        <pt x="398" y="935" on="1"/>
        <pt x="398" y="960" on="0"/>
        <pt x="485" y="960" on="0"/>
      </contour>
    </TTGlyph>
    <TTGlyph name="Ugrave" xMin="110" yMin="-15" xMax="573" yMax="986">
      <contour>
        <pt x="190" y="133" on="1"/>
        <pt x="190" y="55" on="0"/>
        <pt x="493" y="55" on="0"/>
        <pt x="493" y="133" on="1"/>
        <pt x="493" y="722" on="1"/>
        <pt x="493" y="745" on="0"/>
        <pt x="573" y="745" on="0"/>
        <pt x="573" y="722" on="1"/>
        <pt x="573" y="143" on="1"/>
        <pt x="573" y="60" on="0"/>
        <pt x="444" y="-15" on="0"/>
        <pt x="338" y="-15" on="1"/>
        <pt x="110" y="-15" on="0"/>
        <pt x="110" y="143" on="1"/>
        <pt x="110" y="722" on="1"/>
        <pt x="110" y="745" on="0"/>
        <pt x="189" y="745" on="0"/>
        <pt x="189" y="722" on="1"/>
      </contour>
      <contour>
        <pt x="427" y="807" on="1"/>
        <pt x="235" y="898" on="1"/>
        <pt x="224" y="904" on="0"/>
        <pt x="224" y="937" on="0"/>
        <pt x="256" y="986" on="0"/>
        <pt x="278" y="986" on="0"/>
        <pt x="283" y="982" on="1"/>
        <pt x="452" y="866" on="1"/>
        <pt x="459" y="860" on="0"/>
        <pt x="459" y="841" on="0"/>
        <pt x="436" y="807" on="0"/>
      </contour>
    </TTGlyph>
    <TTGlyph name="V" xMin="51" yMin="-15" xMax="585" yMax="745">
      <contour>
        <pt x="397" y="-15" on="0"/>
        <pt x="239" y="-15" on="0"/>
        <pt x="175" y="48" on="0"/>
        <pt x="161" y="122" on="1"/>
        <pt x="53" y="713" on="1"/>
        <pt x="51" y="723" on="0"/>
        <pt x="51" y="727" on="1"/>
        <pt x="51" y="745" on="0"/>
        <pt x="127" y="745" on="0"/>
        <pt x="131" y="722" on="1"/>
        <pt x="239" y="133" on="1"/>
        <pt x="246" y="90" on="0"/>
        <pt x="277" y="55" on="0"/>
        <pt x="359" y="55" on="0"/>
        <pt x="390" y="90" on="0"/>
        <pt x="397" y="133" on="1"/>
        <pt x="505" y="722" on="1"/>
        <pt x="509" y="745" on="0"/>
        <pt x="585" y="745" on="0"/>
        <pt x="585" y="727" on="1"/>
        <pt x="585" y="723" on="0"/>
        <pt x="583" y="713" on="1"/>
        <pt x="475" y="122" on="1"/>
        <pt x="461" y="48" on="0"/>
      </contour>
    </TTGlyph>
    <TTGlyph name="W" xMin="70" yMin="-15" xMax="914" yMax="745">
      <contour>
        <pt x="599" y="92" on="0"/>
        <pt x="635" y="55" on="0"/>
        <pt x="718" y="55" on="0"/>
        <pt x="750" y="91" on="0"/>
        <pt x="756" y="133" on="1"/>
        <pt x="834" y="722" on="1"/>
        <pt x="837" y="745" on="0"/>
        <pt x="914" y="745" on="0"/>
        <pt x="914" y="725" on="1"/>
        <pt x="834" y="122" on="1"/>
        <pt x="825" y="49" on="0"/>
        <pt x="757" y="-15" on="0"/>
        <pt x="596" y="-15" on="0"/>
        <pt x="526" y="50" on="0"/>
        <pt x="520" y="122" on="1"/>
        <pt x="497" y="368" on="1"/>
        <pt x="487" y="368" on="1"/>
        <pt x="464" y="122" on="1"/>
        <pt x="457" y="50" on="0"/>
        <pt x="388" y="-15" on="0"/>
        <pt x="227" y="-15" on="0"/>
        <pt x="159" y="49" on="0"/>
        <pt x="150" y="122" on="1"/>
        <pt x="70" y="727" on="1"/>
        <pt x="70" y="745" on="0"/>
        <pt x="147" y="745" on="0"/>
        <pt x="150" y="722" on="1"/>
        <pt x="228" y="133" on="1"/>
        <pt x="234" y="91" on="0"/>
        <pt x="265" y="55" on="0"/>
        <pt x="349" y="55" on="0"/>
        <pt x="384" y="92" on="0"/>
        <pt x="390" y="133" on="1"/>
        <pt x="452" y="631" on="1"/>
        <pt x="455" y="654" on="0"/>
        <pt x="529" y="654" on="0"/>
        <pt x="532" y="631" on="1"/>
        <pt x="594" y="133" on="1"/>
      </contour>
    </TTGlyph>
    <TTGlyph name="X" xMin="61" yMin="-5" xMax="549" yMax="745">
      <contour>
        <pt x="549" y="13" on="1"/>
        <pt x="549" y="-5" on="0"/>
        <pt x="480" y="-5" on="0"/>
        <pt x="473" y="18" on="1"/>
        <pt x="398" y="267" on="1"/>
        <pt x="386" y="308" on="0"/>
        <pt x="346" y="345" on="0"/>
        <pt x="264" y="345" on="0"/>
        <pt x="224" y="308" on="0"/>
        <pt x="212" y="267" on="1"/>
        <pt x="137" y="18" on="1"/>
        <pt x="130" y="-5" on="0"/>
        <pt x="61" y="-5" on="0"/>
        <pt x="61" y="13" on="1"/>
        <pt x="61" y="14" on="0"/>
        <pt x="138" y="278" on="1"/>
        <pt x="151" y="321" on="0"/>
        <pt x="181" y="368" on="0"/>
        <pt x="207" y="380" on="1"/>
        <pt x="182" y="391" on="0"/>
        <pt x="152" y="439" on="0"/>
        <pt x="138" y="482" on="1"/>
        <pt x="61" y="723" on="0"/>
        <pt x="61" y="727" on="1"/>
        <pt x="61" y="745" on="0"/>
        <pt x="130" y="745" on="0"/>
        <pt x="137" y="722" on="1"/>
        <pt x="212" y="493" on="1"/>
        <pt x="225" y="452" on="0"/>
        <pt x="264" y="415" on="0"/>
        <pt x="346" y="415" on="0"/>
        <pt x="385" y="452" on="0"/>
        <pt x="398" y="493" on="1"/>
        <pt x="473" y="722" on="1"/>
        <pt x="480" y="745" on="0"/>
        <pt x="549" y="745" on="0"/>
        <pt x="549" y="727" on="1"/>
        <pt x="549" y="723" on="0"/>
        <pt x="472" y="482" on="1"/>
        <pt x="458" y="439" on="0"/>
        <pt x="428" y="391" on="0"/>
        <pt x="403" y="380" on="1"/>
        <pt x="429" y="368" on="0"/>
        <pt x="459" y="321" on="0"/>
        <pt x="472" y="278" on="1"/>
        <pt x="549" y="14" on="0"/>
      </contour>
    </TTGlyph>
    <TTGlyph name="Y" xMin="46" yMin="-5" xMax="534" yMax="745">
      <contour>
        <pt x="330" y="18" on="1"/>
        <pt x="330" y="-5" on="0"/>
        <pt x="250" y="-5" on="0"/>
        <pt x="250" y="18" on="1"/>
        <pt x="250" y="247" on="1"/>
        <pt x="199" y="255" on="0"/>
        <pt x="149" y="319" on="0"/>
        <pt x="133" y="382" on="1"/>
        <pt x="55" y="690" on="1"/>
        <pt x="46" y="722" on="0"/>
        <pt x="46" y="727" on="1"/>
        <pt x="46" y="745" on="0"/>
        <pt x="121" y="745" on="0"/>
        <pt x="126" y="722" on="1"/>
        <pt x="211" y="393" on="1"/>
        <pt x="222" y="351" on="0"/>
        <pt x="253" y="315" on="0"/>
        <pt x="327" y="315" on="0"/>
        <pt x="358" y="351" on="0"/>
        <pt x="369" y="393" on="1"/>
        <pt x="454" y="722" on="1"/>
        <pt x="459" y="745" on="0"/>
        <pt x="534" y="745" on="0"/>
        <pt x="534" y="727" on="1"/>
        <pt x="534" y="722" on="0"/>
        <pt x="525" y="690" on="1"/>
        <pt x="447" y="382" on="1"/>
        <pt x="431" y="319" on="0"/>
        <pt x="381" y="255" on="0"/>
        <pt x="330" y="247" on="1"/>
      </contour>
    </TTGlyph>
    <TTGlyph name="Yacute" xMin="46" yMin="-5" xMax="534" yMax="986">
      <contour>
        <pt x="330" y="18" on="1"/>
        <pt x="330" y="-5" on="0"/>
        <pt x="250" y="-5" on="0"/>
        <pt x="250" y="18" on="1"/>
        <pt x="250" y="247" on="1"/>
        <pt x="199" y="255" on="0"/>
        <pt x="149" y="319" on="0"/>
        <pt x="133" y="382" on="1"/>
        <pt x="55" y="690" on="1"/>
        <pt x="46" y="722" on="0"/>
        <pt x="46" y="727" on="1"/>
        <pt x="46" y="745" on="0"/>
        <pt x="121" y="745" on="0"/>
        <pt x="126" y="722" on="1"/>
        <pt x="211" y="393" on="1"/>
        <pt x="222" y="351" on="0"/>
        <pt x="253" y="315" on="0"/>
        <pt x="327" y="315" on="0"/>
        <pt x="358" y="351" on="0"/>
        <pt x="369" y="393" on="1"/>
        <pt x="454" y="722" on="1"/>
        <pt x="459" y="745" on="0"/>
        <pt x="534" y="745" on="0"/>
        <pt x="534" y="727" on="1"/>
        <pt x="534" y="722" on="0"/>
        <pt x="525" y="690" on="1"/>
        <pt x="447" y="382" on="1"/>
        <pt x="431" y="319" on="0"/>
        <pt x="381" y="255" on="0"/>
        <pt x="330" y="247" on="1"/>
      </contour>
      <contour>
        <pt x="241" y="810" on="1"/>
        <pt x="234" y="807" on="1"/>
        <pt x="225" y="807" on="0"/>
        <pt x="202" y="841" on="0"/>
        <pt x="202" y="860" on="0"/>
        <pt x="209" y="866" on="1"/>
        <pt x="378" y="982" on="1"/>
        <pt x="383" y="986" on="0"/>
        <pt x="405" y="986" on="0"/>
        <pt x="437" y="937" on="0"/>
        <pt x="437" y="904" on="0"/>
        <pt x="426" y="898" on="1"/>
      </contour>
    </TTGlyph>
    <TTGlyph name="Ydieresis" xMin="46" yMin="-5" xMax="534" yMax="960">
      <contour>
        <pt x="330" y="18" on="1"/>
        <pt x="330" y="-5" on="0"/>
        <pt x="250" y="-5" on="0"/>
        <pt x="250" y="18" on="1"/>
        <pt x="250" y="247" on="1"/>
        <pt x="199" y="255" on="0"/>
        <pt x="149" y="319" on="0"/>
        <pt x="133" y="382" on="1"/>
        <pt x="55" y="690" on="1"/>
        <pt x="46" y="722" on="0"/>
        <pt x="46" y="727" on="1"/>
        <pt x="46" y="745" on="0"/>
        <pt x="121" y="745" on="0"/>
        <pt x="126" y="722" on="1"/>
        <pt x="211" y="393" on="1"/>
        <pt x="222" y="351" on="0"/>
        <pt x="253" y="315" on="0"/>
        <pt x="327" y="315" on="0"/>
        <pt x="358" y="351" on="0"/>
        <pt x="369" y="393" on="1"/>
        <pt x="454" y="722" on="1"/>
        <pt x="459" y="745" on="0"/>
        <pt x="534" y="745" on="0"/>
        <pt x="534" y="727" on="1"/>
        <pt x="534" y="722" on="0"/>
        <pt x="525" y="690" on="1"/>
        <pt x="447" y="382" on="1"/>
        <pt x="431" y="319" on="0"/>
        <pt x="381" y="255" on="0"/>
        <pt x="330" y="247" on="1"/>
      </contour>
      <contour>
        <pt x="233" y="935" on="1"/>
        <pt x="233" y="848" on="1"/>
        <pt x="233" y="823" on="0"/>
        <pt x="146" y="823" on="0"/>
        <pt x="146" y="848" on="1"/>
        <pt x="146" y="935" on="1"/>
        <pt x="146" y="960" on="0"/>
        <pt x="233" y="960" on="0"/>
      </contour>
      <contour>
        <pt x="433" y="935" on="1"/>
        <pt x="433" y="848" on="1"/>
        <pt x="433" y="823" on="0"/>
        <pt x="346" y="823" on="0"/>
        <pt x="346" y="848" on="1"/>
        <pt x="346" y="935" on="1"/>
        <pt x="346" y="960" on="0"/>
        <pt x="433" y="960" on="0"/>
      </contour>
    </TTGlyph>
    <TTGlyph name="Z" xMin="60" yMin="0" xMax="536" yMax="740">
      <contour>
        <pt x="140" y="90" on="1"/>
        <pt x="140" y="70" on="1"/>
        <pt x="516" y="70" on="1"/>
        <pt x="536" y="70" on="0"/>
        <pt x="536" y="0" on="0"/>
        <pt x="516" y="0" on="1"/>
        <pt x="80" y="0" on="1"/>
        <pt x="60" y="0" on="0"/>
        <pt x="60" y="35" on="1"/>
        <pt x="60" y="92" on="1"/>
        <pt x="60" y="128" on="0"/>
        <pt x="81" y="167" on="0"/>
        <pt x="88" y="178" on="0"/>
        <pt x="111" y="205" on="0"/>
        <pt x="115" y="210" on="1"/>
        <pt x="135" y="235" on="0"/>
        <pt x="156" y="256" on="1"/>
        <pt x="411" y="543" on="1"/>
        <pt x="436" y="572" on="0"/>
        <pt x="455" y="606" on="0"/>
        <pt x="455" y="630" on="1"/>
        <pt x="455" y="670" on="1"/>
        <pt x="119" y="670" on="1"/>
        <pt x="99" y="670" on="0"/>
        <pt x="99" y="740" on="0"/>
        <pt x="119" y="740" on="1"/>
        <pt x="515" y="740" on="1"/>
        <pt x="535" y="740" on="0"/>
        <pt x="535" y="705" on="1"/>
        <pt x="535" y="628" on="1"/>
        <pt x="535" y="592" on="0"/>
        <pt x="514" y="553" on="0"/>
        <pt x="507" y="542" on="0"/>
        <pt x="484" y="515" on="0"/>
        <pt x="480" y="510" on="1"/>
        <pt x="460" y="485" on="0"/>
        <pt x="439" y="464" on="1"/>
        <pt x="184" y="177" on="1"/>
        <pt x="159" y="148" on="0"/>
        <pt x="140" y="114" on="0"/>
      </contour>
    </TTGlyph>
    <TTGlyph name="Zcaron" xMin="60" yMin="0" xMax="536" yMax="981">
      <contour>
        <pt x="140" y="90" on="1"/>
        <pt x="140" y="70" on="1"/>
        <pt x="516" y="70" on="1"/>
        <pt x="536" y="70" on="0"/>
        <pt x="536" y="0" on="0"/>
        <pt x="516" y="0" on="1"/>
        <pt x="80" y="0" on="1"/>
        <pt x="60" y="0" on="0"/>
        <pt x="60" y="35" on="1"/>
        <pt x="60" y="92" on="1"/>
        <pt x="60" y="128" on="0"/>
        <pt x="81" y="167" on="0"/>
        <pt x="88" y="178" on="0"/>
        <pt x="111" y="205" on="0"/>
        <pt x="115" y="210" on="1"/>
        <pt x="135" y="235" on="0"/>
        <pt x="156" y="256" on="1"/>
        <pt x="411" y="543" on="1"/>
        <pt x="436" y="572" on="0"/>
        <pt x="455" y="606" on="0"/>
        <pt x="455" y="630" on="1"/>
        <pt x="455" y="670" on="1"/>
        <pt x="119" y="670" on="1"/>
        <pt x="99" y="670" on="0"/>
        <pt x="99" y="740" on="0"/>
        <pt x="119" y="740" on="1"/>
        <pt x="515" y="740" on="1"/>
        <pt x="535" y="740" on="0"/>
        <pt x="535" y="705" on="1"/>
        <pt x="535" y="628" on="1"/>
        <pt x="535" y="592" on="0"/>
        <pt x="514" y="553" on="0"/>
        <pt x="507" y="542" on="0"/>
        <pt x="484" y="515" on="0"/>
        <pt x="480" y="510" on="1"/>
        <pt x="460" y="485" on="0"/>
        <pt x="439" y="464" on="1"/>
        <pt x="184" y="177" on="1"/>
        <pt x="159" y="148" on="0"/>
        <pt x="140" y="114" on="0"/>
      </contour>
      <contour>
        <pt x="333" y="802" on="1"/>
        <pt x="322" y="802" on="1"/>
        <pt x="316" y="802" on="0"/>
        <pt x="312" y="806" on="1"/>
        <pt x="192" y="922" on="1"/>
        <pt x="185" y="929" on="0"/>
        <pt x="185" y="950" on="0"/>
        <pt x="207" y="981" on="0"/>
        <pt x="217" y="981" on="1"/>
        <pt x="219" y="981" on="0"/>
        <pt x="224" y="978" on="1"/>
        <pt x="327" y="902" on="1"/>
        <pt x="430" y="978" on="1"/>
        <pt x="434" y="981" on="0"/>
        <pt x="447" y="981" on="0"/>
        <pt x="469" y="950" on="0"/>
        <pt x="469" y="929" on="0"/>
        <pt x="462" y="922" on="1"/>
        <pt x="342" y="806" on="1"/>
        <pt x="338" y="802" on="0"/>
      </contour>
    </TTGlyph>
    <TTGlyph name="a" xMin="80" yMin="-10" xMax="523" yMax="600">
      <contour>
        <pt x="363" y="0" on="1"/>
        <pt x="246" y="0" on="1"/>
        <pt x="158" y="0" on="0"/>
        <pt x="80" y="72" on="0"/>
        <pt x="80" y="158" on="1"/>
        <pt x="80" y="166" on="1"/>
        <pt x="80" y="251" on="0"/>
        <pt x="150" y="315" on="0"/>
        <pt x="240" y="324" on="1"/>
        <pt x="413" y="341" on="1"/>
        <pt x="413" y="452" on="1"/>
        <pt x="413" y="530" on="0"/>
        <pt x="277" y="530" on="1"/>
        <pt x="140" y="530" on="1"/>
        <pt x="120" y="530" on="0"/>
        <pt x="120" y="600" on="0"/>
        <pt x="140" y="600" on="1"/>
        <pt x="277" y="600" on="1"/>
        <pt x="375" y="600" on="0"/>
        <pt x="493" y="525" on="0"/>
        <pt x="493" y="442" on="1"/>
        <pt x="493" y="147" on="1"/>
        <pt x="493" y="82" on="0"/>
        <pt x="516" y="44" on="1"/>
        <pt x="523" y="32" on="0"/>
        <pt x="523" y="29" on="1"/>
        <pt x="523" y="17" on="0"/>
        <pt x="485" y="-10" on="0"/>
        <pt x="472" y="-10" on="1"/>
        <pt x="450" y="-10" on="0"/>
        <pt x="413" y="73" on="0"/>
        <pt x="413" y="137" on="1"/>
        <pt x="413" y="271" on="1"/>
        <pt x="246" y="254" on="1"/>
        <pt x="192" y="248" on="0"/>
        <pt x="160" y="212" on="0"/>
        <pt x="160" y="166" on="1"/>
        <pt x="160" y="158" on="1"/>
        <pt x="160" y="110" on="0"/>
        <pt x="193" y="70" on="0"/>
        <pt x="246" y="70" on="1"/>
        <pt x="363" y="70" on="1"/>
        <pt x="383" y="70" on="0"/>
        <pt x="383" y="0" on="0"/>
      </contour>
    </TTGlyph>
    <TTGlyph name="aacute" xMin="80" yMin="-10" xMax="523" yMax="846">
      <contour>
        <pt x="363" y="0" on="1"/>
        <pt x="246" y="0" on="1"/>
        <pt x="158" y="0" on="0"/>
        <pt x="80" y="72" on="0"/>
        <pt x="80" y="158" on="1"/>
        <pt x="80" y="166" on="1"/>
        <pt x="80" y="251" on="0"/>
        <pt x="150" y="315" on="0"/>
        <pt x="240" y="324" on="1"/>
        <pt x="413" y="341" on="1"/>
        <pt x="413" y="452" on="1"/>
        <pt x="413" y="530" on="0"/>
        <pt x="277" y="530" on="1"/>
        <pt x="140" y="530" on="1"/>
        <pt x="120" y="530" on="0"/>
        <pt x="120" y="600" on="0"/>
        <pt x="140" y="600" on="1"/>
        <pt x="277" y="600" on="1"/>
        <pt x="375" y="600" on="0"/>
        <pt x="493" y="525" on="0"/>
        <pt x="493" y="442" on="1"/>
        <pt x="493" y="147" on="1"/>
        <pt x="493" y="82" on="0"/>
        <pt x="516" y="44" on="1"/>
        <pt x="523" y="32" on="0"/>
        <pt x="523" y="29" on="1"/>
        <pt x="523" y="17" on="0"/>
        <pt x="485" y="-10" on="0"/>
        <pt x="472" y="-10" on="1"/>
        <pt x="450" y="-10" on="0"/>
        <pt x="413" y="73" on="0"/>
        <pt x="413" y="137" on="1"/>
        <pt x="413" y="271" on="1"/>
        <pt x="246" y="254" on="1"/>
        <pt x="192" y="248" on="0"/>
        <pt x="160" y="212" on="0"/>
        <pt x="160" y="166" on="1"/>
        <pt x="160" y="158" on="1"/>
        <pt x="160" y="110" on="0"/>
        <pt x="193" y="70" on="0"/>
        <pt x="246" y="70" on="1"/>
        <pt x="363" y="70" on="1"/>
        <pt x="383" y="70" on="0"/>
        <pt x="383" y="0" on="0"/>
      </contour>
      <contour>
        <pt x="250" y="670" on="1"/>
        <pt x="243" y="667" on="1"/>
        <pt x="234" y="667" on="0"/>
        <pt x="211" y="701" on="0"/>
        <pt x="211" y="720" on="0"/>
        <pt x="218" y="726" on="1"/>
        <pt x="387" y="842" on="1"/>
        <pt x="392" y="846" on="0"/>
        <pt x="414" y="846" on="0"/>
        <pt x="446" y="797" on="0"/>
        <pt x="446" y="764" on="0"/>
        <pt x="435" y="758" on="1"/>
      </contour>
    </TTGlyph>
    <TTGlyph name="acircumflex" xMin="80" yMin="-10" xMax="523" yMax="846">
      <contour>
        <pt x="363" y="0" on="1"/>
        <pt x="246" y="0" on="1"/>
        <pt x="158" y="0" on="0"/>
        <pt x="80" y="72" on="0"/>
        <pt x="80" y="158" on="1"/>
        <pt x="80" y="166" on="1"/>
        <pt x="80" y="251" on="0"/>
        <pt x="150" y="315" on="0"/>
        <pt x="240" y="324" on="1"/>
        <pt x="413" y="341" on="1"/>
        <pt x="413" y="452" on="1"/>
        <pt x="413" y="530" on="0"/>
        <pt x="277" y="530" on="1"/>
        <pt x="140" y="530" on="1"/>
        <pt x="120" y="530" on="0"/>
        <pt x="120" y="600" on="0"/>
        <pt x="140" y="600" on="1"/>
        <pt x="277" y="600" on="1"/>
        <pt x="375" y="600" on="0"/>
        <pt x="493" y="525" on="0"/>
        <pt x="493" y="442" on="1"/>
        <pt x="493" y="147" on="1"/>
        <pt x="493" y="82" on="0"/>
        <pt x="516" y="44" on="1"/>
        <pt x="523" y="32" on="0"/>
        <pt x="523" y="29" on="1"/>
        <pt x="523" y="17" on="0"/>
        <pt x="485" y="-10" on="0"/>
        <pt x="472" y="-10" on="1"/>
        <pt x="450" y="-10" on="0"/>
        <pt x="413" y="73" on="0"/>
        <pt x="413" y="137" on="1"/>
        <pt x="413" y="271" on="1"/>
        <pt x="246" y="254" on="1"/>
        <pt x="192" y="248" on="0"/>
        <pt x="160" y="212" on="0"/>
        <pt x="160" y="166" on="1"/>
        <pt x="160" y="158" on="1"/>
        <pt x="160" y="110" on="0"/>
        <pt x="193" y="70" on="0"/>
        <pt x="246" y="70" on="1"/>
        <pt x="363" y="70" on="1"/>
        <pt x="383" y="70" on="0"/>
        <pt x="383" y="0" on="0"/>
      </contour>
      <contour>
        <pt x="304" y="846" on="1"/>
        <pt x="315" y="846" on="1"/>
        <pt x="320" y="846" on="0"/>
        <pt x="324" y="842" on="1"/>
        <pt x="444" y="726" on="1"/>
        <pt x="451" y="719" on="0"/>
        <pt x="451" y="698" on="0"/>
        <pt x="429" y="667" on="0"/>
        <pt x="416" y="667" on="0"/>
        <pt x="412" y="670" on="1"/>
        <pt x="309" y="746" on="1"/>
        <pt x="206" y="670" on="1"/>
        <pt x="201" y="667" on="0"/>
        <pt x="199" y="667" on="1"/>
        <pt x="189" y="667" on="0"/>
        <pt x="167" y="698" on="0"/>
        <pt x="167" y="719" on="0"/>
        <pt x="174" y="726" on="1"/>
        <pt x="294" y="842" on="1"/>
        <pt x="298" y="846" on="0"/>
      </contour>
    </TTGlyph>
    <TTGlyph name="acute" xMin="50" yMin="667" xMax="285" yMax="846">
      <contour>
        <pt x="89" y="670" on="1"/>
        <pt x="82" y="667" on="1"/>
        <pt x="73" y="667" on="0"/>
        <pt x="50" y="701" on="0"/>
        <pt x="50" y="720" on="0"/>
        <pt x="57" y="726" on="1"/>
        <pt x="226" y="842" on="1"/>
        <pt x="231" y="846" on="0"/>
        <pt x="253" y="846" on="0"/>
        <pt x="285" y="797" on="0"/>
        <pt x="285" y="764" on="0"/>
        <pt x="274" y="758" on="1"/>
      </contour>
    </TTGlyph>
    <TTGlyph name="adieresis" xMin="80" yMin="-10" xMax="523" yMax="820">
      <contour>
        <pt x="363" y="0" on="1"/>
        <pt x="246" y="0" on="1"/>
        <pt x="158" y="0" on="0"/>
        <pt x="80" y="72" on="0"/>
        <pt x="80" y="158" on="1"/>
        <pt x="80" y="166" on="1"/>
        <pt x="80" y="251" on="0"/>
        <pt x="150" y="315" on="0"/>
        <pt x="240" y="324" on="1"/>
        <pt x="413" y="341" on="1"/>
        <pt x="413" y="452" on="1"/>
        <pt x="413" y="530" on="0"/>
        <pt x="277" y="530" on="1"/>
        <pt x="140" y="530" on="1"/>
        <pt x="120" y="530" on="0"/>
        <pt x="120" y="600" on="0"/>
        <pt x="140" y="600" on="1"/>
        <pt x="277" y="600" on="1"/>
        <pt x="375" y="600" on="0"/>
        <pt x="493" y="525" on="0"/>
        <pt x="493" y="442" on="1"/>
        <pt x="493" y="147" on="1"/>
        <pt x="493" y="82" on="0"/>
        <pt x="516" y="44" on="1"/>
        <pt x="523" y="32" on="0"/>
        <pt x="523" y="29" on="1"/>
        <pt x="523" y="17" on="0"/>
        <pt x="485" y="-10" on="0"/>
        <pt x="472" y="-10" on="1"/>
        <pt x="450" y="-10" on="0"/>
        <pt x="413" y="73" on="0"/>
        <pt x="413" y="137" on="1"/>
        <pt x="413" y="271" on="1"/>
        <pt x="246" y="254" on="1"/>
        <pt x="192" y="248" on="0"/>
        <pt x="160" y="212" on="0"/>
        <pt x="160" y="166" on="1"/>
        <pt x="160" y="158" on="1"/>
        <pt x="160" y="110" on="0"/>
        <pt x="193" y="70" on="0"/>
        <pt x="246" y="70" on="1"/>
        <pt x="363" y="70" on="1"/>
        <pt x="383" y="70" on="0"/>
        <pt x="383" y="0" on="0"/>
      </contour>
      <contour>
        <pt x="252" y="795" on="1"/>
        <pt x="252" y="708" on="1"/>
        <pt x="252" y="683" on="0"/>
        <pt x="165" y="683" on="0"/>
        <pt x="165" y="708" on="1"/>
        <pt x="165" y="795" on="1"/>
        <pt x="165" y="820" on="0"/>
        <pt x="252" y="820" on="0"/>
      </contour>
      <contour>
        <pt x="452" y="795" on="1"/>
        <pt x="452" y="708" on="1"/>
        <pt x="452" y="683" on="0"/>
        <pt x="365" y="683" on="0"/>
        <pt x="365" y="708" on="1"/>
        <pt x="365" y="795" on="1"/>
        <pt x="365" y="820" on="0"/>
        <pt x="452" y="820" on="0"/>
      </contour>
    </TTGlyph>
    <TTGlyph name="ae" xMin="80" yMin="-9" xMax="851" yMax="621">
      <contour>
        <pt x="363" y="0" on="1"/>
        <pt x="246" y="0" on="1"/>
        <pt x="158" y="0" on="0"/>
        <pt x="80" y="72" on="0"/>
        <pt x="80" y="158" on="1"/>
        <pt x="80" y="166" on="1"/>
        <pt x="80" y="251" on="0"/>
        <pt x="150" y="315" on="0"/>
        <pt x="240" y="324" on="1"/>
        <pt x="413" y="341" on="1"/>
        <pt x="413" y="456" on="1"/>
        <pt x="409" y="530" on="0"/>
        <pt x="277" y="530" on="1"/>
        <pt x="140" y="530" on="1"/>
        <pt x="120" y="530" on="0"/>
        <pt x="120" y="600" on="0"/>
        <pt x="140" y="600" on="1"/>
        <pt x="277" y="600" on="1"/>
        <pt x="388" y="600" on="0"/>
        <pt x="444" y="554" on="1"/>
        <pt x="500" y="621" on="0"/>
        <pt x="646" y="621" on="1"/>
        <pt x="747" y="621" on="0"/>
        <pt x="851" y="549" on="0"/>
        <pt x="851" y="465" on="1"/>
        <pt x="851" y="454" on="1"/>
        <pt x="851" y="369" on="0"/>
        <pt x="781" y="305" on="0"/>
        <pt x="688" y="296" on="1"/>
        <pt x="493" y="277" on="1"/>
        <pt x="493" y="139" on="1"/>
        <pt x="493" y="61" on="0"/>
        <pt x="623" y="61" on="1"/>
        <pt x="771" y="61" on="0"/>
        <pt x="771" y="129" on="1"/>
        <pt x="771" y="167" on="1"/>
        <pt x="771" y="190" on="0"/>
        <pt x="851" y="190" on="0"/>
        <pt x="851" y="167" on="1"/>
        <pt x="851" y="139" on="1"/>
        <pt x="851" y="-9" on="0"/>
        <pt x="631" y="-9" on="1"/>
        <pt x="534" y="-9" on="0"/>
        <pt x="413" y="67" on="0"/>
        <pt x="413" y="149" on="1"/>
        <pt x="413" y="271" on="1"/>
        <pt x="246" y="254" on="1"/>
        <pt x="192" y="248" on="0"/>
        <pt x="160" y="212" on="0"/>
        <pt x="160" y="166" on="1"/>
        <pt x="160" y="158" on="1"/>
        <pt x="160" y="110" on="0"/>
        <pt x="193" y="70" on="0"/>
        <pt x="246" y="70" on="1"/>
        <pt x="363" y="70" on="1"/>
        <pt x="383" y="70" on="0"/>
        <pt x="383" y="0" on="0"/>
      </contour>
      <contour>
        <pt x="493" y="473" on="1"/>
        <pt x="493" y="347" on="1"/>
        <pt x="681" y="366" on="1"/>
        <pt x="738" y="372" on="0"/>
        <pt x="771" y="408" on="0"/>
        <pt x="771" y="454" on="1"/>
        <pt x="771" y="473" on="1"/>
        <pt x="771" y="551" on="0"/>
        <pt x="493" y="551" on="0"/>
      </contour>
    </TTGlyph>
    <TTGlyph name="agrave" xMin="80" yMin="-10" xMax="523" yMax="846">
      <contour>
        <pt x="363" y="0" on="1"/>
        <pt x="246" y="0" on="1"/>
        <pt x="158" y="0" on="0"/>
        <pt x="80" y="72" on="0"/>
        <pt x="80" y="158" on="1"/>
        <pt x="80" y="166" on="1"/>
        <pt x="80" y="251" on="0"/>
        <pt x="150" y="315" on="0"/>
        <pt x="240" y="324" on="1"/>
        <pt x="413" y="341" on="1"/>
        <pt x="413" y="452" on="1"/>
        <pt x="413" y="530" on="0"/>
        <pt x="277" y="530" on="1"/>
        <pt x="140" y="530" on="1"/>
        <pt x="120" y="530" on="0"/>
        <pt x="120" y="600" on="0"/>
        <pt x="140" y="600" on="1"/>
        <pt x="277" y="600" on="1"/>
        <pt x="375" y="600" on="0"/>
        <pt x="493" y="525" on="0"/>
        <pt x="493" y="442" on="1"/>
        <pt x="493" y="147" on="1"/>
        <pt x="493" y="82" on="0"/>
        <pt x="516" y="44" on="1"/>
        <pt x="523" y="32" on="0"/>
        <pt x="523" y="29" on="1"/>
        <pt x="523" y="17" on="0"/>
        <pt x="485" y="-10" on="0"/>
        <pt x="472" y="-10" on="1"/>
        <pt x="450" y="-10" on="0"/>
        <pt x="413" y="73" on="0"/>
        <pt x="413" y="137" on="1"/>
        <pt x="413" y="271" on="1"/>
        <pt x="246" y="254" on="1"/>
        <pt x="192" y="248" on="0"/>
        <pt x="160" y="212" on="0"/>
        <pt x="160" y="166" on="1"/>
        <pt x="160" y="158" on="1"/>
        <pt x="160" y="110" on="0"/>
        <pt x="193" y="70" on="0"/>
        <pt x="246" y="70" on="1"/>
        <pt x="363" y="70" on="1"/>
        <pt x="383" y="70" on="0"/>
        <pt x="383" y="0" on="0"/>
      </contour>
      <contour>
        <pt x="392" y="667" on="1"/>
        <pt x="200" y="758" on="1"/>
        <pt x="189" y="764" on="0"/>
        <pt x="189" y="797" on="0"/>
        <pt x="221" y="846" on="0"/>
        <pt x="243" y="846" on="0"/>
        <pt x="248" y="842" on="1"/>
        <pt x="417" y="726" on="1"/>
        <pt x="424" y="720" on="0"/>
        <pt x="424" y="701" on="0"/>
        <pt x="401" y="667" on="0"/>
      </contour>
    </TTGlyph>
    <TTGlyph name="ampersand" xMin="100" yMin="-210" xMax="703" yMax="755">
      <contour>
        <pt x="110" y="680" on="0"/>
        <pt x="232" y="755" on="0"/>
        <pt x="421" y="755" on="0"/>
        <pt x="531" y="679" on="0"/>
        <pt x="531" y="597" on="1"/>
        <pt x="531" y="582" on="1"/>
        <pt x="531" y="559" on="0"/>
        <pt x="451" y="559" on="0"/>
        <pt x="451" y="582" on="1"/>
        <pt x="451" y="607" on="1"/>
        <pt x="451" y="685" on="0"/>
        <pt x="190" y="685" on="0"/>
        <pt x="190" y="607" on="1"/>
        <pt x="190" y="504" on="1"/>
        <pt x="190" y="416" on="0"/>
        <pt x="298" y="416" on="1"/>
        <pt x="683" y="416" on="1"/>
        <pt x="703" y="416" on="0"/>
        <pt x="703" y="346" on="0"/>
        <pt x="683" y="346" on="1"/>
        <pt x="543" y="346" on="1"/>
        <pt x="543" y="-83" on="1"/>
        <pt x="543" y="-115" on="0"/>
        <pt x="573" y="-170" on="0"/>
        <pt x="573" y="-171" on="1"/>
        <pt x="573" y="-183" on="0"/>
        <pt x="535" y="-210" on="0"/>
        <pt x="522" y="-210" on="1"/>
        <pt x="501" y="-210" on="0"/>
        <pt x="463" y="-137" on="0"/>
        <pt x="463" y="-93" on="1"/>
        <pt x="463" y="23" on="1"/>
        <pt x="421" y="-15" on="0"/>
        <pt x="222" y="-15" on="0"/>
        <pt x="100" y="60" on="0"/>
        <pt x="100" y="143" on="1"/>
        <pt x="100" y="258" on="1"/>
        <pt x="100" y="361" on="0"/>
        <pt x="188" y="382" on="1"/>
        <pt x="110" y="406" on="0"/>
        <pt x="110" y="504" on="1"/>
        <pt x="110" y="597" on="1"/>
      </contour>
      <contour>
        <pt x="180" y="258" on="1"/>
        <pt x="180" y="133" on="1"/>
        <pt x="180" y="55" on="0"/>
        <pt x="463" y="55" on="0"/>
        <pt x="463" y="133" on="1"/>
        <pt x="463" y="346" on="1"/>
        <pt x="288" y="346" on="1"/>
        <pt x="180" y="346" on="0"/>
      </contour>
    </TTGlyph>
    <TTGlyph name="apple" xMin="100" yMin="-114" xMax="823" yMax="608">
      <contour>
        <pt x="589" y="-89" on="1"/>
        <pt x="566" y="-88" on="1"/>
        <pt x="552" y="-88" on="0"/>
        <pt x="517" y="-112" on="0"/>
        <pt x="508" y="-112" on="1"/>
        <pt x="462" y="-102" on="1"/>
        <pt x="454" y="-102" on="0"/>
        <pt x="423" y="-114" on="0"/>
        <pt x="406" y="-114" on="0"/>
        <pt x="374" y="-89" on="0"/>
        <pt x="361" y="-89" on="1"/>
        <pt x="337" y="-91" on="1"/>
        <pt x="322" y="-91" on="0"/>
        <pt x="304" y="-74" on="1"/>
        <pt x="286" y="-55" on="1"/>
        <pt x="274" y="-49" on="0"/>
        <pt x="248" y="-47" on="0"/>
        <pt x="230" y="-36" on="0"/>
        <pt x="216" y="-1" on="0"/>
        <pt x="205" y="8" on="0"/>
        <pt x="177" y="19" on="0"/>
        <pt x="171" y="28" on="1"/>
        <pt x="166" y="37" on="0"/>
        <pt x="162" y="66" on="0"/>
        <pt x="154" y="79" on="0"/>
        <pt x="144" y="86" on="1"/>
        <pt x="122" y="104" on="0"/>
        <pt x="122" y="124" on="1"/>
        <pt x="125" y="149" on="1"/>
        <pt x="125" y="158" on="0"/>
        <pt x="100" y="193" on="0"/>
        <pt x="100" y="211" on="0"/>
        <pt x="112" y="240" on="0"/>
        <pt x="112" y="257" on="0"/>
        <pt x="100" y="283" on="0"/>
        <pt x="100" y="301" on="0"/>
        <pt x="125" y="342" on="0"/>
        <pt x="125" y="351" on="1"/>
        <pt x="124" y="376" on="1"/>
        <pt x="124" y="391" on="0"/>
        <pt x="157" y="420" on="0"/>
        <pt x="162" y="430" on="0"/>
        <pt x="166" y="462" on="0"/>
        <pt x="174" y="474" on="0"/>
        <pt x="205" y="486" on="0"/>
        <pt x="215" y="496" on="0"/>
        <pt x="229" y="527" on="0"/>
        <pt x="242" y="538" on="0"/>
        <pt x="280" y="546" on="0"/>
        <pt x="291" y="552" on="0"/>
        <pt x="321" y="586" on="0"/>
        <pt x="335" y="587" on="1"/>
        <pt x="361" y="585" on="1"/>
        <pt x="374" y="585" on="0"/>
        <pt x="405" y="608" on="0"/>
        <pt x="416" y="608" on="1"/>
        <pt x="460" y="596" on="1"/>
        <pt x="505" y="608" on="1"/>
        <pt x="518" y="608" on="0"/>
        <pt x="550" y="583" on="0"/>
        <pt x="562" y="583" on="1"/>
        <pt x="590" y="586" on="1"/>
        <pt x="606" y="586" on="0"/>
        <pt x="632" y="553" on="0"/>
        <pt x="645" y="546" on="0"/>
        <pt x="675" y="540" on="0"/>
        <pt x="690" y="530" on="0"/>
        <pt x="700" y="502" on="0"/>
        <pt x="711" y="492" on="0"/>
        <pt x="751" y="471" on="0"/>
        <pt x="760" y="455" on="0"/>
        <pt x="761" y="423" on="0"/>
        <pt x="766" y="414" on="0"/>
        <pt x="800" y="385" on="0"/>
        <pt x="800" y="369" on="1"/>
        <pt x="799" y="344" on="1"/>
        <pt x="799" y="331" on="0"/>
        <pt x="823" y="294" on="0"/>
        <pt x="823" y="276" on="0"/>
        <pt x="812" y="250" on="0"/>
        <pt x="812" y="236" on="0"/>
        <pt x="823" y="207" on="0"/>
        <pt x="822" y="191" on="0"/>
        <pt x="798" y="166" on="0"/>
        <pt x="798" y="152" on="1"/>
        <pt x="800" y="120" on="1"/>
        <pt x="800" y="104" on="0"/>
        <pt x="768" y="78" on="0"/>
        <pt x="763" y="68" on="0"/>
        <pt x="754" y="30" on="0"/>
        <pt x="743" y="17" on="0"/>
        <pt x="718" y="6" on="0"/>
        <pt x="708" y="-4" on="0"/>
        <pt x="690" y="-37" on="0"/>
        <pt x="676" y="-47" on="0"/>
        <pt x="641" y="-56" on="0"/>
        <pt x="631" y="-62" on="0"/>
        <pt x="604" y="-89" on="0"/>
      </contour>
      <contour>
        <pt x="462" y="-6" on="1"/>
        <pt x="495" y="-13" on="1"/>
        <pt x="501" y="-13" on="0"/>
        <pt x="512" y="-6" on="1"/>
        <pt x="527" y="4" on="0"/>
        <pt x="539" y="4" on="1"/>
        <pt x="554" y="3" on="1"/>
        <pt x="566" y="3" on="0"/>
        <pt x="584" y="23" on="0"/>
        <pt x="591" y="27" on="0"/>
        <pt x="617" y="34" on="0"/>
        <pt x="628" y="42" on="0"/>
        <pt x="641" y="65" on="0"/>
        <pt x="648" y="72" on="0"/>
        <pt x="666" y="80" on="0"/>
        <pt x="674" y="89" on="0"/>
        <pt x="680" y="117" on="0"/>
        <pt x="685" y="125" on="0"/>
        <pt x="707" y="143" on="0"/>
        <pt x="707" y="157" on="1"/>
        <pt x="706" y="177" on="1"/>
        <pt x="706" y="188" on="0"/>
        <pt x="723" y="207" on="0"/>
        <pt x="724" y="213" on="1"/>
        <pt x="716" y="245" on="1"/>
        <pt x="724" y="273" on="1"/>
        <pt x="724" y="281" on="0"/>
        <pt x="706" y="309" on="0"/>
        <pt x="706" y="318" on="1"/>
        <pt x="707" y="335" on="1"/>
        <pt x="707" y="347" on="0"/>
        <pt x="683" y="367" on="0"/>
        <pt x="679" y="375" on="0"/>
        <pt x="678" y="398" on="0"/>
        <pt x="672" y="409" on="0"/>
        <pt x="643" y="424" on="0"/>
        <pt x="635" y="432" on="0"/>
        <pt x="627" y="452" on="0"/>
        <pt x="617" y="460" on="0"/>
        <pt x="595" y="464" on="0"/>
        <pt x="585" y="469" on="0"/>
        <pt x="567" y="493" on="0"/>
        <pt x="555" y="493" on="1"/>
        <pt x="535" y="491" on="1"/>
        <pt x="526" y="491" on="0"/>
        <pt x="504" y="509" on="0"/>
        <pt x="494" y="509" on="1"/>
        <pt x="461" y="500" on="1"/>
        <pt x="429" y="509" on="1"/>
        <pt x="421" y="509" on="0"/>
        <pt x="397" y="492" on="0"/>
        <pt x="387" y="492" on="1"/>
        <pt x="370" y="493" on="1"/>
        <pt x="359" y="493" on="0"/>
        <pt x="338" y="468" on="0"/>
        <pt x="329" y="463" on="0"/>
        <pt x="303" y="458" on="0"/>
        <pt x="293" y="450" on="0"/>
        <pt x="283" y="428" on="0"/>
        <pt x="275" y="420" on="0"/>
        <pt x="254" y="412" on="0"/>
        <pt x="250" y="407" on="1"/>
        <pt x="248" y="403" on="0"/>
        <pt x="244" y="380" on="0"/>
        <pt x="240" y="372" on="0"/>
        <pt x="216" y="351" on="0"/>
        <pt x="216" y="340" on="1"/>
        <pt x="217" y="324" on="1"/>
        <pt x="217" y="316" on="0"/>
        <pt x="200" y="286" on="0"/>
        <pt x="200" y="278" on="1"/>
        <pt x="208" y="248" on="1"/>
        <pt x="200" y="215" on="1"/>
        <pt x="200" y="207" on="0"/>
        <pt x="217" y="182" on="0"/>
        <pt x="217" y="174" on="1"/>
        <pt x="215" y="158" on="1"/>
        <pt x="215" y="147" on="0"/>
        <pt x="240" y="124" on="0"/>
        <pt x="244" y="116" on="0"/>
        <pt x="247" y="95" on="0"/>
        <pt x="255" y="82" on="0"/>
        <pt x="275" y="74" on="0"/>
        <pt x="283" y="67" on="0"/>
        <pt x="294" y="41" on="0"/>
        <pt x="306" y="33" on="0"/>
        <pt x="325" y="33" on="0"/>
        <pt x="337" y="27" on="0"/>
        <pt x="360" y="2" on="0"/>
        <pt x="371" y="2" on="1"/>
        <pt x="386" y="3" on="1"/>
        <pt x="396" y="3" on="0"/>
        <pt x="420" y="-14" on="0"/>
        <pt x="426" y="-15" on="1"/>
      </contour>
      <contour>
        <pt x="392" y="417" on="0"/>
        <pt x="532" y="417" on="0"/>
        <pt x="632" y="318" on="0"/>
        <pt x="632" y="176" on="0"/>
        <pt x="532" y="77" on="0"/>
        <pt x="392" y="77" on="0"/>
        <pt x="292" y="176" on="0"/>
        <pt x="292" y="318" on="0"/>
      </contour>
      <contour>
        <pt x="505" y="292" on="1"/>
        <pt x="557" y="292" on="1"/>
        <pt x="557" y="360" on="1"/>
        <pt x="366" y="360" on="1"/>
        <pt x="366" y="292" on="1"/>
        <pt x="420" y="292" on="1"/>
        <pt x="420" y="117" on="1"/>
        <pt x="505" y="117" on="1"/>
      </contour>
    </TTGlyph>
    <TTGlyph name="approxequal" xMin="76" yMin="194" xMax="522" yMax="545">
      <contour>
        <pt x="214" y="485" on="0"/>
        <pt x="383" y="545" on="0"/>
        <pt x="473" y="545" on="0"/>
        <pt x="507" y="523" on="1"/>
        <pt x="521" y="514" on="0"/>
        <pt x="523" y="452" on="0"/>
        <pt x="512" y="452" on="1"/>
        <pt x="510" y="452" on="0"/>
        <pt x="460" y="474" on="0"/>
        <pt x="384" y="474" on="0"/>
        <pt x="215" y="414" on="0"/>
        <pt x="125" y="414" on="0"/>
        <pt x="91" y="436" on="1"/>
        <pt x="77" y="445" on="0"/>
        <pt x="75" y="507" on="0"/>
        <pt x="86" y="507" on="1"/>
        <pt x="88" y="507" on="0"/>
        <pt x="138" y="485" on="0"/>
      </contour>
      <contour>
        <pt x="214" y="265" on="0"/>
        <pt x="383" y="325" on="0"/>
        <pt x="473" y="325" on="0"/>
        <pt x="507" y="303" on="1"/>
        <pt x="521" y="294" on="0"/>
        <pt x="523" y="232" on="0"/>
        <pt x="512" y="232" on="1"/>
        <pt x="510" y="232" on="0"/>
        <pt x="460" y="254" on="0"/>
        <pt x="384" y="254" on="0"/>
        <pt x="215" y="194" on="0"/>
        <pt x="125" y="194" on="0"/>
        <pt x="91" y="216" on="1"/>
        <pt x="77" y="225" on="0"/>
        <pt x="75" y="287" on="0"/>
        <pt x="86" y="287" on="1"/>
        <pt x="88" y="287" on="0"/>
        <pt x="138" y="265" on="0"/>
      </contour>
    </TTGlyph>
    <TTGlyph name="aring" xMin="80" yMin="-10" xMax="523" yMax="856">
      <contour>
        <pt x="363" y="0" on="1"/>
        <pt x="246" y="0" on="1"/>
        <pt x="158" y="0" on="0"/>
        <pt x="80" y="72" on="0"/>
        <pt x="80" y="158" on="1"/>
        <pt x="80" y="166" on="1"/>
        <pt x="80" y="251" on="0"/>
        <pt x="150" y="315" on="0"/>
        <pt x="240" y="324" on="1"/>
        <pt x="413" y="341" on="1"/>
        <pt x="413" y="452" on="1"/>
        <pt x="413" y="530" on="0"/>
        <pt x="277" y="530" on="1"/>
        <pt x="140" y="530" on="1"/>
        <pt x="120" y="530" on="0"/>
        <pt x="120" y="600" on="0"/>
        <pt x="140" y="600" on="1"/>
        <pt x="277" y="600" on="1"/>
        <pt x="375" y="600" on="0"/>
        <pt x="493" y="525" on="0"/>
        <pt x="493" y="442" on="1"/>
        <pt x="493" y="147" on="1"/>
        <pt x="493" y="82" on="0"/>
        <pt x="516" y="44" on="1"/>
        <pt x="523" y="32" on="0"/>
        <pt x="523" y="29" on="1"/>
        <pt x="523" y="17" on="0"/>
        <pt x="485" y="-10" on="0"/>
        <pt x="472" y="-10" on="1"/>
        <pt x="450" y="-10" on="0"/>
        <pt x="413" y="73" on="0"/>
        <pt x="413" y="137" on="1"/>
        <pt x="413" y="271" on="1"/>
        <pt x="246" y="254" on="1"/>
        <pt x="192" y="248" on="0"/>
        <pt x="160" y="212" on="0"/>
        <pt x="160" y="166" on="1"/>
        <pt x="160" y="158" on="1"/>
        <pt x="160" y="110" on="0"/>
        <pt x="193" y="70" on="0"/>
        <pt x="246" y="70" on="1"/>
        <pt x="363" y="70" on="1"/>
        <pt x="383" y="70" on="0"/>
        <pt x="383" y="0" on="0"/>
      </contour>
      <contour>
        <pt x="412" y="764" on="1"/>
        <pt x="412" y="739" on="1"/>
        <pt x="412" y="647" on="0"/>
        <pt x="300" y="647" on="1"/>
        <pt x="241" y="647" on="0"/>
        <pt x="191" y="692" on="0"/>
        <pt x="191" y="739" on="1"/>
        <pt x="191" y="764" on="1"/>
        <pt x="191" y="856" on="0"/>
        <pt x="303" y="856" on="1"/>
        <pt x="362" y="856" on="0"/>
        <pt x="412" y="811" on="0"/>
      </contour>
      <contour>
        <pt x="253" y="773" on="1"/>
        <pt x="253" y="729" on="1"/>
        <pt x="253" y="700" on="0"/>
        <pt x="350" y="700" on="0"/>
        <pt x="350" y="730" on="1"/>
        <pt x="350" y="774" on="1"/>
        <pt x="350" y="803" on="0"/>
        <pt x="253" y="803" on="0"/>
      </contour>
    </TTGlyph>
    <TTGlyph name="asciicircum" xMin="114" yMin="403" xMax="486" yMax="740">
      <contour>
        <pt x="264" y="740" on="0"/>
        <pt x="336" y="740" on="0"/>
        <pt x="381" y="724" on="0"/>
        <pt x="411" y="683" on="0"/>
        <pt x="426" y="643" on="0"/>
        <pt x="437" y="603" on="1"/>
        <pt x="486" y="423" on="1"/>
        <pt x="486" y="403" on="0"/>
        <pt x="413" y="403" on="0"/>
        <pt x="406" y="426" on="1"/>
        <pt x="359" y="592" on="1"/>
        <pt x="345" y="644" on="0"/>
        <pt x="325" y="670" on="0"/>
        <pt x="275" y="670" on="0"/>
        <pt x="255" y="644" on="0"/>
        <pt x="241" y="592" on="1"/>
        <pt x="194" y="426" on="1"/>
        <pt x="187" y="403" on="0"/>
        <pt x="114" y="403" on="0"/>
        <pt x="114" y="423" on="1"/>
        <pt x="163" y="603" on="1"/>
        <pt x="174" y="643" on="0"/>
        <pt x="189" y="683" on="0"/>
        <pt x="219" y="724" on="0"/>
      </contour>
    </TTGlyph>
    <TTGlyph name="asciitilde" xMin="75" yMin="308" xMax="525" yMax="434">
      <contour>
        <pt x="525" y="418" on="1"/>
        <pt x="525" y="365" on="0"/>
        <pt x="460" y="309" on="0"/>
        <pt x="389" y="309" on="0"/>
        <pt x="205" y="363" on="0"/>
        <pt x="181" y="363" on="1"/>
        <pt x="145" y="363" on="0"/>
        <pt x="145" y="328" on="1"/>
        <pt x="145" y="308" on="0"/>
        <pt x="75" y="308" on="0"/>
        <pt x="75" y="324" on="1"/>
        <pt x="75" y="377" on="0"/>
        <pt x="140" y="433" on="0"/>
        <pt x="211" y="433" on="0"/>
        <pt x="395" y="379" on="0"/>
        <pt x="419" y="379" on="1"/>
        <pt x="455" y="379" on="0"/>
        <pt x="455" y="414" on="1"/>
        <pt x="455" y="434" on="0"/>
        <pt x="525" y="434" on="0"/>
      </contour>
    </TTGlyph>
    <TTGlyph name="asterisk" xMin="100" yMin="342" xMax="518" yMax="802">
      <contour>
        <pt x="257" y="638" on="1"/>
        <pt x="265" y="632" on="0"/>
        <pt x="265" y="610" on="0"/>
        <pt x="247" y="582" on="0"/>
        <pt x="231" y="582" on="0"/>
        <pt x="220" y="587" on="1"/>
        <pt x="111" y="638" on="1"/>
        <pt x="100" y="644" on="0"/>
        <pt x="100" y="674" on="0"/>
        <pt x="129" y="713" on="0"/>
        <pt x="149" y="713" on="0"/>
        <pt x="154" y="709" on="1"/>
      </contour>
      <contour>
        <pt x="267" y="802" on="0"/>
        <pt x="351" y="802" on="0"/>
        <pt x="351" y="778" on="1"/>
        <pt x="351" y="777" on="0"/>
        <pt x="340" y="650" on="1"/>
        <pt x="338" y="630" on="0"/>
        <pt x="280" y="630" on="0"/>
        <pt x="278" y="650" on="1"/>
        <pt x="267" y="778" on="1"/>
      </contour>
      <contour>
        <pt x="464" y="709" on="1"/>
        <pt x="468" y="713" on="0"/>
        <pt x="489" y="713" on="0"/>
        <pt x="518" y="674" on="0"/>
        <pt x="518" y="644" on="0"/>
        <pt x="507" y="638" on="1"/>
        <pt x="398" y="587" on="1"/>
        <pt x="387" y="582" on="0"/>
        <pt x="371" y="582" on="0"/>
        <pt x="353" y="610" on="0"/>
        <pt x="353" y="632" on="0"/>
        <pt x="361" y="638" on="1"/>
      </contour>
      <contour>
        <pt x="154" y="434" on="1"/>
        <pt x="149" y="431" on="0"/>
        <pt x="129" y="431" on="0"/>
        <pt x="100" y="470" on="0"/>
        <pt x="100" y="500" on="0"/>
        <pt x="111" y="506" on="1"/>
        <pt x="220" y="557" on="1"/>
        <pt x="231" y="562" on="0"/>
        <pt x="247" y="562" on="0"/>
        <pt x="265" y="534" on="0"/>
        <pt x="265" y="511" on="0"/>
        <pt x="257" y="506" on="1"/>
      </contour>
      <contour>
        <pt x="351" y="342" on="0"/>
        <pt x="267" y="342" on="0"/>
        <pt x="267" y="366" on="1"/>
        <pt x="267" y="367" on="0"/>
        <pt x="278" y="494" on="1"/>
        <pt x="280" y="514" on="0"/>
        <pt x="338" y="514" on="0"/>
        <pt x="340" y="494" on="1"/>
        <pt x="351" y="366" on="1"/>
      </contour>
      <contour>
        <pt x="361" y="506" on="1"/>
        <pt x="353" y="511" on="0"/>
        <pt x="353" y="534" on="0"/>
        <pt x="371" y="562" on="0"/>
        <pt x="387" y="562" on="0"/>
        <pt x="398" y="557" on="1"/>
        <pt x="507" y="506" on="1"/>
        <pt x="518" y="500" on="0"/>
        <pt x="518" y="470" on="0"/>
        <pt x="489" y="431" on="0"/>
        <pt x="468" y="431" on="0"/>
        <pt x="464" y="434" on="1"/>
      </contour>
    </TTGlyph>
    <TTGlyph name="at" xMin="110" yMin="-141" xMax="971" yMax="800">
      <contour>
        <pt x="911" y="69" on="1"/>
        <pt x="784" y="69" on="1"/>
        <pt x="699" y="69" on="0"/>
        <pt x="638" y="147" on="0"/>
        <pt x="635" y="267" on="1"/>
        <pt x="634" y="295" on="1"/>
        <pt x="497" y="281" on="1"/>
        <pt x="454" y="277" on="0"/>
        <pt x="429" y="249" on="0"/>
        <pt x="429" y="213" on="1"/>
        <pt x="429" y="206" on="1"/>
        <pt x="429" y="168" on="0"/>
        <pt x="454" y="137" on="0"/>
        <pt x="496" y="137" on="1"/>
        <pt x="594" y="137" on="1"/>
        <pt x="616" y="137" on="0"/>
        <pt x="616" y="69" on="0"/>
        <pt x="594" y="69" on="1"/>
        <pt x="496" y="69" on="1"/>
        <pt x="418" y="69" on="0"/>
        <pt x="352" y="130" on="0"/>
        <pt x="352" y="206" on="1"/>
        <pt x="352" y="213" on="1"/>
        <pt x="352" y="287" on="0"/>
        <pt x="411" y="341" on="0"/>
        <pt x="490" y="349" on="1"/>
        <pt x="633" y="363" on="1"/>
        <pt x="630" y="472" on="1"/>
        <pt x="629" y="532" on="0"/>
        <pt x="521" y="532" on="1"/>
        <pt x="407" y="532" on="1"/>
        <pt x="386" y="532" on="0"/>
        <pt x="386" y="600" on="0"/>
        <pt x="407" y="600" on="1"/>
        <pt x="521" y="600" on="1"/>
        <pt x="703" y="600" on="0"/>
        <pt x="707" y="464" on="1"/>
        <pt x="712" y="276" on="1"/>
        <pt x="714" y="185" on="0"/>
        <pt x="740" y="137" on="0"/>
        <pt x="784" y="137" on="1"/>
        <pt x="891" y="137" on="1"/>
        <pt x="891" y="529" on="1"/>
        <pt x="891" y="725" on="0"/>
        <pt x="549" y="725" on="1"/>
        <pt x="388" y="725" on="0"/>
        <pt x="190" y="631" on="0"/>
        <pt x="190" y="529" on="1"/>
        <pt x="190" y="130" on="1"/>
        <pt x="190" y="-66" on="0"/>
        <pt x="532" y="-66" on="1"/>
        <pt x="949" y="-66" on="1"/>
        <pt x="971" y="-66" on="0"/>
        <pt x="971" y="-141" on="0"/>
        <pt x="949" y="-141" on="1"/>
        <pt x="532" y="-141" on="1"/>
        <pt x="405" y="-141" on="0"/>
        <pt x="223" y="-91" on="0"/>
        <pt x="110" y="33" on="0"/>
        <pt x="110" y="130" on="1"/>
        <pt x="110" y="529" on="1"/>
        <pt x="110" y="625" on="0"/>
        <pt x="232" y="750" on="0"/>
        <pt x="422" y="800" on="0"/>
        <pt x="676" y="800" on="0"/>
        <pt x="858" y="750" on="0"/>
        <pt x="971" y="626" on="0"/>
        <pt x="971" y="529" on="1"/>
        <pt x="971" y="138" on="1"/>
        <pt x="971" y="98" on="0"/>
        <pt x="949" y="69" on="0"/>
      </contour>
    </TTGlyph>
    <TTGlyph name="atilde" xMin="80" yMin="-10" xMax="523" yMax="813">
      <contour>
        <pt x="363" y="0" on="1"/>
        <pt x="246" y="0" on="1"/>
        <pt x="158" y="0" on="0"/>
        <pt x="80" y="72" on="0"/>
        <pt x="80" y="158" on="1"/>
        <pt x="80" y="166" on="1"/>
        <pt x="80" y="251" on="0"/>
        <pt x="150" y="315" on="0"/>
        <pt x="240" y="324" on="1"/>
        <pt x="413" y="341" on="1"/>
        <pt x="413" y="452" on="1"/>
        <pt x="413" y="530" on="0"/>
        <pt x="277" y="530" on="1"/>
        <pt x="140" y="530" on="1"/>
        <pt x="120" y="530" on="0"/>
        <pt x="120" y="600" on="0"/>
        <pt x="140" y="600" on="1"/>
        <pt x="277" y="600" on="1"/>
        <pt x="375" y="600" on="0"/>
        <pt x="493" y="525" on="0"/>
        <pt x="493" y="442" on="1"/>
        <pt x="493" y="147" on="1"/>
        <pt x="493" y="82" on="0"/>
        <pt x="516" y="44" on="1"/>
        <pt x="523" y="32" on="0"/>
        <pt x="523" y="29" on="1"/>
        <pt x="523" y="17" on="0"/>
        <pt x="485" y="-10" on="0"/>
        <pt x="472" y="-10" on="1"/>
        <pt x="450" y="-10" on="0"/>
        <pt x="413" y="73" on="0"/>
        <pt x="413" y="137" on="1"/>
        <pt x="413" y="271" on="1"/>
        <pt x="246" y="254" on="1"/>
        <pt x="192" y="248" on="0"/>
        <pt x="160" y="212" on="0"/>
        <pt x="160" y="166" on="1"/>
        <pt x="160" y="158" on="1"/>
        <pt x="160" y="110" on="0"/>
        <pt x="193" y="70" on="0"/>
        <pt x="246" y="70" on="1"/>
        <pt x="363" y="70" on="1"/>
        <pt x="383" y="70" on="0"/>
        <pt x="383" y="0" on="0"/>
      </contour>
      <contour>
        <pt x="231" y="731" on="1"/>
        <pt x="226" y="732" on="1"/>
        <pt x="213" y="732" on="0"/>
        <pt x="213" y="707" on="1"/>
        <pt x="213" y="687" on="0"/>
        <pt x="143" y="687" on="0"/>
        <pt x="143" y="703" on="1"/>
        <pt x="143" y="758" on="0"/>
        <pt x="179" y="812" on="0"/>
        <pt x="208" y="812" on="1"/>
        <pt x="215" y="812" on="0"/>
        <pt x="231" y="808" on="1"/>
        <pt x="372" y="769" on="1"/>
        <pt x="374" y="768" on="0"/>
        <pt x="378" y="768" on="1"/>
        <pt x="390" y="768" on="0"/>
        <pt x="390" y="793" on="1"/>
        <pt x="390" y="813" on="0"/>
        <pt x="460" y="813" on="0"/>
        <pt x="460" y="797" on="1"/>
        <pt x="460" y="743" on="0"/>
        <pt x="424" y="689" on="0"/>
        <pt x="394" y="689" on="1"/>
        <pt x="384" y="689" on="0"/>
        <pt x="372" y="692" on="1"/>
      </contour>
    </TTGlyph>
    <TTGlyph name="b" xMin="110" yMin="-15" xMax="543" yMax="800">
      <contour>
        <pt x="327" y="530" on="1"/>
        <pt x="240" y="530" on="1"/>
        <pt x="220" y="530" on="0"/>
        <pt x="220" y="600" on="0"/>
        <pt x="240" y="600" on="1"/>
        <pt x="327" y="600" on="1"/>
        <pt x="425" y="600" on="0"/>
        <pt x="543" y="525" on="0"/>
        <pt x="543" y="442" on="1"/>
        <pt x="543" y="143" on="1"/>
        <pt x="543" y="60" on="0"/>
        <pt x="424" y="-15" on="0"/>
        <pt x="228" y="-15" on="0"/>
        <pt x="110" y="60" on="0"/>
        <pt x="110" y="143" on="1"/>
        <pt x="110" y="777" on="1"/>
        <pt x="110" y="800" on="0"/>
        <pt x="190" y="800" on="0"/>
        <pt x="190" y="777" on="1"/>
        <pt x="190" y="133" on="1"/>
        <pt x="190" y="55" on="0"/>
        <pt x="463" y="55" on="0"/>
        <pt x="463" y="133" on="1"/>
        <pt x="463" y="452" on="1"/>
        <pt x="463" y="530" on="0"/>
      </contour>
    </TTGlyph>
    <TTGlyph name="backslash" xMin="30" yMin="-105" xMax="347" yMax="845">
      <contour>
        <pt x="30" y="828" on="1"/>
        <pt x="30" y="845" on="0"/>
        <pt x="96" y="845" on="0"/>
        <pt x="103" y="822" on="1"/>
        <pt x="343" y="-71" on="1"/>
        <pt x="347" y="-86" on="0"/>
        <pt x="347" y="-88" on="1"/>
        <pt x="347" y="-105" on="0"/>
        <pt x="281" y="-105" on="0"/>
        <pt x="274" y="-82" on="1"/>
        <pt x="34" y="811" on="1"/>
        <pt x="30" y="826" on="0"/>
      </contour>
    </TTGlyph>
    <TTGlyph name="bar" xMin="124" yMin="-105" xMax="196" yMax="845">
      <contour>
        <pt x="196" y="822" on="1"/>
        <pt x="196" y="-82" on="1"/>
        <pt x="196" y="-105" on="0"/>
        <pt x="124" y="-105" on="0"/>
        <pt x="124" y="-82" on="1"/>
        <pt x="124" y="822" on="1"/>
        <pt x="124" y="845" on="0"/>
        <pt x="196" y="845" on="0"/>
      </contour>
    </TTGlyph>
    <TTGlyph name="braceleft" xMin="51" yMin="-100" xMax="330" yMax="840">
      <contour>
        <pt x="214" y="682" on="1"/>
        <pt x="214" y="504" on="1"/>
        <pt x="214" y="405" on="0"/>
        <pt x="146" y="381" on="1"/>
        <pt x="214" y="356" on="0"/>
        <pt x="214" y="258" on="1"/>
        <pt x="214" y="58" on="1"/>
        <pt x="214" y="12" on="0"/>
        <pt x="255" y="-30" on="0"/>
        <pt x="310" y="-30" on="1"/>
        <pt x="330" y="-30" on="0"/>
        <pt x="330" y="-100" on="0"/>
        <pt x="310" y="-100" on="1"/>
        <pt x="220" y="-100" on="0"/>
        <pt x="134" y="-27" on="0"/>
        <pt x="134" y="58" on="1"/>
        <pt x="134" y="258" on="1"/>
        <pt x="134" y="302" on="0"/>
        <pt x="114" y="339" on="0"/>
        <pt x="86" y="346" on="1"/>
        <pt x="71" y="350" on="1"/>
        <pt x="51" y="356" on="0"/>
        <pt x="51" y="406" on="0"/>
        <pt x="71" y="412" on="1"/>
        <pt x="86" y="416" on="1"/>
        <pt x="114" y="423" on="0"/>
        <pt x="134" y="460" on="0"/>
        <pt x="134" y="504" on="1"/>
        <pt x="134" y="682" on="1"/>
        <pt x="134" y="767" on="0"/>
        <pt x="220" y="840" on="0"/>
        <pt x="310" y="840" on="1"/>
        <pt x="330" y="840" on="0"/>
        <pt x="330" y="770" on="0"/>
        <pt x="310" y="770" on="1"/>
        <pt x="255" y="770" on="0"/>
        <pt x="214" y="728" on="0"/>
      </contour>
    </TTGlyph>
    <TTGlyph name="braceright" xMin="30" yMin="-100" xMax="309" yMax="840">
      <contour>
        <pt x="146" y="504" on="1"/>
        <pt x="146" y="682" on="1"/>
        <pt x="146" y="728" on="0"/>
        <pt x="105" y="770" on="0"/>
        <pt x="50" y="770" on="1"/>
        <pt x="30" y="770" on="0"/>
        <pt x="30" y="840" on="0"/>
        <pt x="50" y="840" on="1"/>
        <pt x="140" y="840" on="0"/>
        <pt x="226" y="767" on="0"/>
        <pt x="226" y="682" on="1"/>
        <pt x="226" y="504" on="1"/>
        <pt x="226" y="460" on="0"/>
        <pt x="246" y="423" on="0"/>
        <pt x="274" y="416" on="1"/>
        <pt x="289" y="412" on="1"/>
        <pt x="309" y="406" on="0"/>
        <pt x="309" y="356" on="0"/>
        <pt x="289" y="350" on="1"/>
        <pt x="274" y="346" on="1"/>
        <pt x="246" y="339" on="0"/>
        <pt x="226" y="302" on="0"/>
        <pt x="226" y="258" on="1"/>
        <pt x="226" y="58" on="1"/>
        <pt x="226" y="-27" on="0"/>
        <pt x="140" y="-100" on="0"/>
        <pt x="50" y="-100" on="1"/>
        <pt x="30" y="-100" on="0"/>
        <pt x="30" y="-30" on="0"/>
        <pt x="50" y="-30" on="1"/>
        <pt x="105" y="-30" on="0"/>
        <pt x="146" y="12" on="0"/>
        <pt x="146" y="58" on="1"/>
        <pt x="146" y="258" on="1"/>
        <pt x="146" y="356" on="0"/>
        <pt x="214" y="381" on="1"/>
        <pt x="146" y="404" on="0"/>
      </contour>
    </TTGlyph>
    <TTGlyph name="bracketleft" xMin="120" yMin="-100" xMax="330" yMax="840">
      <contour>
        <pt x="200" y="-30" on="1"/>
        <pt x="310" y="-30" on="1"/>
        <pt x="330" y="-30" on="0"/>
        <pt x="330" y="-100" on="0"/>
        <pt x="310" y="-100" on="1"/>
        <pt x="180" y="-100" on="1"/>
        <pt x="141" y="-100" on="0"/>
        <pt x="120" y="-69" on="0"/>
        <pt x="120" y="-25" on="1"/>
        <pt x="120" y="765" on="1"/>
        <pt x="120" y="809" on="0"/>
        <pt x="141" y="840" on="0"/>
        <pt x="180" y="840" on="1"/>
        <pt x="310" y="840" on="1"/>
        <pt x="330" y="840" on="0"/>
        <pt x="330" y="770" on="0"/>
        <pt x="310" y="770" on="1"/>
        <pt x="200" y="770" on="1"/>
      </contour>
    </TTGlyph>
    <TTGlyph name="bracketright" xMin="30" yMin="-100" xMax="240" yMax="840">
      <contour>
        <pt x="50" y="-30" on="1"/>
        <pt x="160" y="-30" on="1"/>
        <pt x="160" y="770" on="1"/>
        <pt x="50" y="770" on="1"/>
        <pt x="30" y="770" on="0"/>
        <pt x="30" y="840" on="0"/>
        <pt x="50" y="840" on="1"/>
        <pt x="180" y="840" on="1"/>
        <pt x="219" y="840" on="0"/>
        <pt x="240" y="809" on="0"/>
        <pt x="240" y="765" on="1"/>
        <pt x="240" y="-25" on="1"/>
        <pt x="240" y="-69" on="0"/>
        <pt x="219" y="-100" on="0"/>
        <pt x="180" y="-100" on="1"/>
        <pt x="50" y="-100" on="1"/>
        <pt x="30" y="-100" on="0"/>
        <pt x="30" y="-30" on="0"/>
      </contour>
    </TTGlyph>
    <TTGlyph name="breve" xMin="50" yMin="677" xMax="294" yMax="814">
      <contour>
        <pt x="121" y="794" on="1"/>
        <pt x="121" y="769" on="1"/>
        <pt x="121" y="740" on="0"/>
        <pt x="223" y="740" on="0"/>
        <pt x="223" y="770" on="1"/>
        <pt x="223" y="794" on="1"/>
        <pt x="223" y="814" on="0"/>
        <pt x="294" y="814" on="0"/>
        <pt x="294" y="794" on="1"/>
        <pt x="294" y="769" on="1"/>
        <pt x="294" y="677" on="0"/>
        <pt x="170" y="677" on="1"/>
        <pt x="106" y="677" on="0"/>
        <pt x="50" y="722" on="0"/>
        <pt x="50" y="769" on="1"/>
        <pt x="50" y="794" on="1"/>
        <pt x="50" y="814" on="0"/>
        <pt x="121" y="814" on="0"/>
      </contour>
    </TTGlyph>
    <TTGlyph name="brokenbar" xMin="124" yMin="-105" xMax="196" yMax="845">
      <contour>
        <pt x="196" y="822" on="1"/>
        <pt x="196" y="518" on="1"/>
        <pt x="196" y="495" on="0"/>
        <pt x="124" y="495" on="0"/>
        <pt x="124" y="518" on="1"/>
        <pt x="124" y="822" on="1"/>
        <pt x="124" y="845" on="0"/>
        <pt x="196" y="845" on="0"/>
      </contour>
      <contour>
        <pt x="196" y="222" on="1"/>
        <pt x="196" y="-82" on="1"/>
        <pt x="196" y="-105" on="0"/>
        <pt x="124" y="-105" on="0"/>
        <pt x="124" y="-82" on="1"/>
        <pt x="124" y="222" on="1"/>
        <pt x="124" y="245" on="0"/>
        <pt x="196" y="245" on="0"/>
      </contour>
    </TTGlyph>
    <TTGlyph name="bullet" xMin="92" yMin="252" xMax="219" yMax="452">
      <contour>
        <pt x="219" y="416" on="1"/>
        <pt x="219" y="288" on="1"/>
        <pt x="219" y="252" on="0"/>
        <pt x="92" y="252" on="0"/>
        <pt x="92" y="288" on="1"/>
        <pt x="92" y="416" on="1"/>
        <pt x="92" y="452" on="0"/>
        <pt x="219" y="452" on="0"/>
      </contour>
    </TTGlyph>
    <TTGlyph name="c" xMin="100" yMin="-15" xMax="516" yMax="615">
      <contour>
        <pt x="180" y="467" on="1"/>
        <pt x="180" y="133" on="1"/>
        <pt x="180" y="55" on="0"/>
        <pt x="436" y="55" on="0"/>
        <pt x="436" y="133" on="1"/>
        <pt x="436" y="175" on="1"/>
        <pt x="436" y="198" on="0"/>
        <pt x="516" y="198" on="0"/>
        <pt x="516" y="175" on="1"/>
        <pt x="516" y="143" on="1"/>
        <pt x="516" y="60" on="0"/>
        <pt x="403" y="-15" on="0"/>
        <pt x="214" y="-15" on="0"/>
        <pt x="100" y="60" on="0"/>
        <pt x="100" y="143" on="1"/>
        <pt x="100" y="457" on="1"/>
        <pt x="100" y="540" on="0"/>
        <pt x="214" y="615" on="0"/>
        <pt x="403" y="615" on="0"/>
        <pt x="516" y="540" on="0"/>
        <pt x="516" y="457" on="1"/>
        <pt x="516" y="425" on="1"/>
        <pt x="516" y="402" on="0"/>
        <pt x="436" y="402" on="0"/>
        <pt x="436" y="425" on="1"/>
        <pt x="436" y="467" on="1"/>
        <pt x="436" y="545" on="0"/>
        <pt x="180" y="545" on="0"/>
      </contour>
    </TTGlyph>
    <TTGlyph name="caron" xMin="100" yMin="662" xMax="384" yMax="841">
      <contour>
        <pt x="248" y="662" on="1"/>
        <pt x="237" y="662" on="1"/>
        <pt x="231" y="662" on="0"/>
        <pt x="227" y="666" on="1"/>
        <pt x="107" y="782" on="1"/>
        <pt x="100" y="789" on="0"/>
        <pt x="100" y="810" on="0"/>
        <pt x="122" y="841" on="0"/>
        <pt x="132" y="841" on="1"/>
        <pt x="134" y="841" on="0"/>
        <pt x="139" y="838" on="1"/>
        <pt x="242" y="762" on="1"/>
        <pt x="345" y="838" on="1"/>
        <pt x="350" y="841" on="0"/>
        <pt x="352" y="841" on="1"/>
        <pt x="362" y="841" on="0"/>
        <pt x="384" y="810" on="0"/>
        <pt x="384" y="789" on="0"/>
        <pt x="377" y="782" on="1"/>
        <pt x="257" y="666" on="1"/>
        <pt x="253" y="662" on="0"/>
      </contour>
    </TTGlyph>
    <TTGlyph name="ccedilla" xMin="100" yMin="-202" xMax="516" yMax="615">
      <contour>
        <pt x="260" y="-97" on="1"/>
        <pt x="260" y="-115" on="1"/>
        <pt x="260" y="-144" on="0"/>
        <pt x="357" y="-144" on="0"/>
        <pt x="357" y="-114" on="1"/>
        <pt x="357" y="-54" on="1"/>
        <pt x="357" y="-32" on="0"/>
        <pt x="339" y="-16" on="0"/>
        <pt x="316" y="-15" on="1"/>
        <pt x="308" y="-15" on="1"/>
        <pt x="214" y="-15" on="0"/>
        <pt x="100" y="60" on="0"/>
        <pt x="100" y="143" on="1"/>
        <pt x="100" y="457" on="1"/>
        <pt x="100" y="540" on="0"/>
        <pt x="214" y="615" on="0"/>
        <pt x="403" y="615" on="0"/>
        <pt x="516" y="540" on="0"/>
        <pt x="516" y="457" on="1"/>
        <pt x="516" y="425" on="1"/>
        <pt x="516" y="402" on="0"/>
        <pt x="436" y="402" on="0"/>
        <pt x="436" y="425" on="1"/>
        <pt x="436" y="467" on="1"/>
        <pt x="436" y="545" on="0"/>
        <pt x="180" y="545" on="0"/>
        <pt x="180" y="467" on="1"/>
        <pt x="180" y="133" on="1"/>
        <pt x="180" y="55" on="0"/>
        <pt x="436" y="55" on="0"/>
        <pt x="436" y="133" on="1"/>
        <pt x="436" y="175" on="1"/>
        <pt x="436" y="198" on="0"/>
        <pt x="516" y="198" on="0"/>
        <pt x="516" y="175" on="1"/>
        <pt x="516" y="143" on="1"/>
        <pt x="516" y="32" on="0"/>
        <pt x="407" y="-2" on="1"/>
        <pt x="424" y="-19" on="0"/>
        <pt x="424" y="-53" on="1"/>
        <pt x="424" y="-110" on="1"/>
        <pt x="424" y="-153" on="0"/>
        <pt x="355" y="-202" on="0"/>
        <pt x="259" y="-202" on="0"/>
        <pt x="193" y="-154" on="0"/>
        <pt x="193" y="-110" on="1"/>
        <pt x="193" y="-97" on="1"/>
        <pt x="193" y="-76" on="0"/>
        <pt x="260" y="-76" on="0"/>
      </contour>
    </TTGlyph>
    <TTGlyph name="cedilla" xMin="182" yMin="-202" xMax="413" yMax="21">
      <contour>
        <pt x="249" y="-97" on="1"/>
        <pt x="249" y="-115" on="1"/>
        <pt x="249" y="-144" on="0"/>
        <pt x="346" y="-144" on="0"/>
        <pt x="346" y="-114" on="1"/>
        <pt x="346" y="-54" on="1"/>
        <pt x="346" y="-31" on="0"/>
        <pt x="324" y="-15" on="0"/>
        <pt x="297" y="-15" on="1"/>
        <pt x="297" y="21" on="1"/>
        <pt x="359" y="21" on="0"/>
        <pt x="413" y="-8" on="0"/>
        <pt x="413" y="-53" on="1"/>
        <pt x="413" y="-110" on="1"/>
        <pt x="413" y="-153" on="0"/>
        <pt x="344" y="-202" on="0"/>
        <pt x="248" y="-202" on="0"/>
        <pt x="182" y="-154" on="0"/>
        <pt x="182" y="-110" on="1"/>
        <pt x="182" y="-97" on="1"/>
        <pt x="182" y="-76" on="0"/>
        <pt x="249" y="-76" on="0"/>
      </contour>
    </TTGlyph>
    <TTGlyph name="cent" xMin="110" yMin="-105" xMax="506" yMax="845">
      <contour>
        <pt x="370" y="822" on="1"/>
        <pt x="370" y="646" on="1"/>
        <pt x="486" y="646" on="1"/>
        <pt x="506" y="646" on="0"/>
        <pt x="506" y="576" on="0"/>
        <pt x="486" y="576" on="1"/>
        <pt x="370" y="576" on="1"/>
        <pt x="370" y="166" on="1"/>
        <pt x="486" y="166" on="1"/>
        <pt x="506" y="166" on="0"/>
        <pt x="506" y="96" on="0"/>
        <pt x="486" y="96" on="1"/>
        <pt x="370" y="96" on="1"/>
        <pt x="370" y="-82" on="1"/>
        <pt x="370" y="-105" on="0"/>
        <pt x="298" y="-105" on="0"/>
        <pt x="298" y="-82" on="1"/>
        <pt x="298" y="96" on="1"/>
        <pt x="212" y="100" on="0"/>
        <pt x="110" y="176" on="0"/>
        <pt x="110" y="254" on="1"/>
        <pt x="110" y="488" on="1"/>
        <pt x="110" y="566" on="0"/>
        <pt x="212" y="642" on="0"/>
        <pt x="298" y="645" on="1"/>
        <pt x="298" y="822" on="1"/>
        <pt x="298" y="845" on="0"/>
        <pt x="370" y="845" on="0"/>
      </contour>
      <contour>
        <pt x="190" y="244" on="1"/>
        <pt x="190" y="173" on="0"/>
        <pt x="298" y="166" on="1"/>
        <pt x="298" y="575" on="1"/>
        <pt x="190" y="570" on="0"/>
        <pt x="190" y="498" on="1"/>
      </contour>
    </TTGlyph>
    <TTGlyph name="circumflex" xMin="100" yMin="667" xMax="384" yMax="846">
      <contour>
        <pt x="237" y="846" on="1"/>
        <pt x="248" y="846" on="1"/>
        <pt x="253" y="846" on="0"/>
        <pt x="257" y="842" on="1"/>
        <pt x="377" y="726" on="1"/>
        <pt x="384" y="719" on="0"/>
        <pt x="384" y="698" on="0"/>
        <pt x="362" y="667" on="0"/>
        <pt x="352" y="667" on="1"/>
        <pt x="350" y="667" on="0"/>
        <pt x="345" y="670" on="1"/>
        <pt x="242" y="746" on="1"/>
        <pt x="139" y="670" on="1"/>
        <pt x="134" y="667" on="0"/>
        <pt x="132" y="667" on="1"/>
        <pt x="122" y="667" on="0"/>
        <pt x="100" y="698" on="0"/>
        <pt x="100" y="719" on="0"/>
        <pt x="107" y="726" on="1"/>
        <pt x="227" y="842" on="1"/>
        <pt x="231" y="846" on="0"/>
      </contour>
    </TTGlyph>
    <TTGlyph name="colon" xMin="58" yMin="-15" xMax="143" yMax="518">
      <contour>
        <pt x="143" y="94" on="1"/>
        <pt x="143" y="9" on="1"/>
        <pt x="143" y="-15" on="0"/>
        <pt x="58" y="-15" on="0"/>
        <pt x="58" y="9" on="1"/>
        <pt x="58" y="94" on="1"/>
        <pt x="58" y="118" on="0"/>
        <pt x="143" y="118" on="0"/>
      </contour>
      <contour>
        <pt x="143" y="494" on="1"/>
        <pt x="143" y="409" on="1"/>
        <pt x="143" y="385" on="0"/>
        <pt x="58" y="385" on="0"/>
        <pt x="58" y="409" on="1"/>
        <pt x="58" y="494" on="1"/>
        <pt x="58" y="518" on="0"/>
        <pt x="143" y="518" on="0"/>
      </contour>
    </TTGlyph>
    <TTGlyph name="comma" xMin="58" yMin="-133" xMax="143" yMax="118">
      <contour>
        <pt x="143" y="94" on="1"/>
        <pt x="143" y="-17" on="1"/>
        <pt x="143" y="-49" on="0"/>
        <pt x="125" y="-100" on="1"/>
        <pt x="116" y="-124" on="1"/>
        <pt x="113" y="-133" on="0"/>
        <pt x="88" y="-133" on="0"/>
        <pt x="59" y="-117" on="0"/>
        <pt x="59" y="-110" on="1"/>
        <pt x="59" y="-106" on="0"/>
        <pt x="61" y="-101" on="1"/>
        <pt x="76" y="-61" on="1"/>
        <pt x="82" y="-43" on="0"/>
        <pt x="82" y="-25" on="0"/>
        <pt x="58" y="10" on="0"/>
        <pt x="58" y="22" on="1"/>
        <pt x="58" y="94" on="1"/>
        <pt x="58" y="118" on="0"/>
        <pt x="143" y="118" on="0"/>
      </contour>
    </TTGlyph>
    <TTGlyph name="copyright" xMin="100" yMin="176" xMax="695" yMax="850">
      <contour>
        <pt x="695" y="663" on="1"/>
        <pt x="695" y="366" on="1"/>
        <pt x="695" y="265" on="0"/>
        <pt x="607" y="220" on="1"/>
        <pt x="524" y="177" on="0"/>
        <pt x="260" y="177" on="0"/>
        <pt x="100" y="268" on="0"/>
        <pt x="100" y="366" on="1"/>
        <pt x="100" y="663" on="1"/>
        <pt x="100" y="760" on="0"/>
        <pt x="267" y="850" on="0"/>
        <pt x="403" y="850" on="1"/>
        <pt x="695" y="850" on="0"/>
      </contour>
      <contour>
        <pt x="645" y="366" on="1"/>
        <pt x="645" y="663" on="1"/>
        <pt x="645" y="805" on="0"/>
        <pt x="150" y="805" on="0"/>
        <pt x="150" y="663" on="1"/>
        <pt x="150" y="366" on="1"/>
        <pt x="150" y="222" on="0"/>
        <pt x="645" y="222" on="0"/>
      </contour>
      <contour>
        <pt x="304" y="646" on="1"/>
        <pt x="304" y="382" on="1"/>
        <pt x="304" y="340" on="0"/>
        <pt x="483" y="340" on="0"/>
        <pt x="483" y="382" on="1"/>
        <pt x="483" y="428" on="1"/>
        <pt x="483" y="450" on="0"/>
        <pt x="548" y="450" on="0"/>
        <pt x="548" y="428" on="1"/>
        <pt x="548" y="389" on="1"/>
        <pt x="548" y="281" on="0"/>
        <pt x="396" y="281" on="1"/>
        <pt x="325" y="281" on="0"/>
        <pt x="239" y="333" on="0"/>
        <pt x="239" y="389" on="1"/>
        <pt x="239" y="639" on="1"/>
        <pt x="239" y="695" on="0"/>
        <pt x="325" y="747" on="0"/>
        <pt x="396" y="747" on="1"/>
        <pt x="548" y="747" on="0"/>
        <pt x="548" y="639" on="1"/>
        <pt x="548" y="599" on="1"/>
        <pt x="548" y="578" on="0"/>
        <pt x="483" y="578" on="0"/>
        <pt x="483" y="599" on="1"/>
        <pt x="483" y="646" on="1"/>
        <pt x="483" y="688" on="0"/>
        <pt x="304" y="688" on="0"/>
      </contour>
    </TTGlyph>
    <TTGlyph name="d" xMin="100" yMin="-15" xMax="533" yMax="800">
      <contour>
        <pt x="533" y="777" on="1"/>
        <pt x="533" y="143" on="1"/>
        <pt x="533" y="60" on="0"/>
        <pt x="415" y="-15" on="0"/>
        <pt x="219" y="-15" on="0"/>
        <pt x="100" y="60" on="0"/>
        <pt x="100" y="143" on="1"/>
        <pt x="100" y="442" on="1"/>
        <pt x="100" y="525" on="0"/>
        <pt x="218" y="600" on="0"/>
        <pt x="316" y="600" on="1"/>
        <pt x="403" y="600" on="1"/>
        <pt x="423" y="600" on="0"/>
        <pt x="423" y="530" on="0"/>
        <pt x="403" y="530" on="1"/>
        <pt x="316" y="530" on="1"/>
        <pt x="180" y="530" on="0"/>
        <pt x="180" y="452" on="1"/>
        <pt x="180" y="133" on="1"/>
        <pt x="180" y="55" on="0"/>
        <pt x="453" y="55" on="0"/>
        <pt x="453" y="133" on="1"/>
        <pt x="453" y="777" on="1"/>
        <pt x="453" y="800" on="0"/>
        <pt x="533" y="800" on="0"/>
      </contour>
    </TTGlyph>
    <TTGlyph name="dagger" xMin="40" yMin="-105" xMax="460" yMax="775">
      <contour>
        <pt x="60" y="600" on="1"/>
        <pt x="210" y="600" on="1"/>
        <pt x="210" y="752" on="1"/>
        <pt x="210" y="775" on="0"/>
        <pt x="290" y="775" on="0"/>
        <pt x="290" y="752" on="1"/>
        <pt x="290" y="600" on="1"/>
        <pt x="440" y="600" on="1"/>
        <pt x="460" y="600" on="0"/>
        <pt x="460" y="530" on="0"/>
        <pt x="440" y="530" on="1"/>
        <pt x="290" y="530" on="1"/>
        <pt x="290" y="-82" on="1"/>
        <pt x="290" y="-105" on="0"/>
        <pt x="210" y="-105" on="0"/>
        <pt x="210" y="-82" on="1"/>
        <pt x="210" y="530" on="1"/>
        <pt x="60" y="530" on="1"/>
        <pt x="40" y="530" on="0"/>
        <pt x="40" y="600" on="0"/>
      </contour>
    </TTGlyph>
    <TTGlyph name="daggerdbl" xMin="40" yMin="-105" xMax="460" yMax="775">
      <contour>
        <pt x="60" y="600" on="1"/>
        <pt x="210" y="600" on="1"/>
        <pt x="210" y="752" on="1"/>
        <pt x="210" y="775" on="0"/>
        <pt x="290" y="775" on="0"/>
        <pt x="290" y="752" on="1"/>
        <pt x="290" y="600" on="1"/>
        <pt x="440" y="600" on="1"/>
        <pt x="460" y="600" on="0"/>
        <pt x="460" y="530" on="0"/>
        <pt x="440" y="530" on="1"/>
        <pt x="290" y="530" on="1"/>
        <pt x="290" y="140" on="1"/>
        <pt x="440" y="140" on="1"/>
        <pt x="460" y="140" on="0"/>
        <pt x="460" y="70" on="0"/>
        <pt x="440" y="70" on="1"/>
        <pt x="290" y="70" on="1"/>
        <pt x="290" y="-82" on="1"/>
        <pt x="290" y="-105" on="0"/>
        <pt x="210" y="-105" on="0"/>
        <pt x="210" y="-82" on="1"/>
        <pt x="210" y="70" on="1"/>
        <pt x="60" y="70" on="1"/>
        <pt x="40" y="70" on="0"/>
        <pt x="40" y="140" on="0"/>
        <pt x="60" y="140" on="1"/>
        <pt x="210" y="140" on="1"/>
        <pt x="210" y="530" on="1"/>
        <pt x="60" y="530" on="1"/>
        <pt x="40" y="530" on="0"/>
        <pt x="40" y="600" on="0"/>
      </contour>
    </TTGlyph>
    <TTGlyph name="degree" xMin="79" yMin="370" xMax="387" yMax="755">
      <contour>
        <pt x="387" y="648" on="1"/>
        <pt x="387" y="478" on="1"/>
        <pt x="387" y="422" on="0"/>
        <pt x="302" y="370" on="0"/>
        <pt x="232" y="370" on="1"/>
        <pt x="79" y="370" on="0"/>
        <pt x="79" y="478" on="1"/>
        <pt x="79" y="648" on="1"/>
        <pt x="79" y="704" on="0"/>
        <pt x="166" y="755" on="0"/>
        <pt x="236" y="755" on="1"/>
        <pt x="387" y="755" on="0"/>
      </contour>
      <contour>
        <pt x="144" y="655" on="1"/>
        <pt x="144" y="471" on="1"/>
        <pt x="144" y="429" on="0"/>
        <pt x="323" y="429" on="0"/>
        <pt x="323" y="471" on="1"/>
        <pt x="323" y="655" on="1"/>
        <pt x="323" y="697" on="0"/>
        <pt x="144" y="697" on="0"/>
      </contour>
    </TTGlyph>
    <TTGlyph name="dieresis" xMin="100" yMin="683" xMax="387" yMax="820">
      <contour>
        <pt x="187" y="795" on="1"/>
        <pt x="187" y="708" on="1"/>
        <pt x="187" y="683" on="0"/>
        <pt x="100" y="683" on="0"/>
        <pt x="100" y="708" on="1"/>
        <pt x="100" y="795" on="1"/>
        <pt x="100" y="820" on="0"/>
        <pt x="187" y="820" on="0"/>
      </contour>
      <contour>
        <pt x="387" y="795" on="1"/>
        <pt x="387" y="708" on="1"/>
        <pt x="387" y="683" on="0"/>
        <pt x="300" y="683" on="0"/>
        <pt x="300" y="708" on="1"/>
        <pt x="300" y="795" on="1"/>
        <pt x="300" y="820" on="0"/>
        <pt x="387" y="820" on="0"/>
      </contour>
    </TTGlyph>
    <TTGlyph name="divide" xMin="75" yMin="79" xMax="525" yMax="639">
      <contour>
        <pt x="342" y="188" on="1"/>
        <pt x="342" y="103" on="1"/>
        <pt x="342" y="79" on="0"/>
        <pt x="257" y="79" on="0"/>
        <pt x="257" y="103" on="1"/>
        <pt x="257" y="188" on="1"/>
        <pt x="257" y="212" on="0"/>
        <pt x="342" y="212" on="0"/>
      </contour>
      <contour>
        <pt x="342" y="615" on="1"/>
        <pt x="342" y="530" on="1"/>
        <pt x="342" y="506" on="0"/>
        <pt x="257" y="506" on="0"/>
        <pt x="257" y="530" on="1"/>
        <pt x="257" y="615" on="1"/>
        <pt x="257" y="639" on="0"/>
        <pt x="342" y="639" on="0"/>
      </contour>
      <contour>
        <pt x="95" y="406" on="1"/>
        <pt x="505" y="406" on="1"/>
        <pt x="525" y="406" on="0"/>
        <pt x="525" y="336" on="0"/>
        <pt x="505" y="336" on="1"/>
        <pt x="95" y="336" on="1"/>
        <pt x="75" y="336" on="0"/>
        <pt x="75" y="406" on="0"/>
      </contour>
    </TTGlyph>
    <TTGlyph name="dollar" xMin="80" yMin="-105" xMax="523" yMax="845">
      <contour>
        <pt x="339" y="822" on="1"/>
        <pt x="339" y="740" on="1"/>
        <pt x="480" y="740" on="1"/>
        <pt x="500" y="740" on="0"/>
        <pt x="500" y="670" on="0"/>
        <pt x="480" y="670" on="1"/>
        <pt x="339" y="670" on="1"/>
        <pt x="339" y="403" on="1"/>
        <pt x="416" y="386" on="0"/>
        <pt x="478" y="359" on="0"/>
        <pt x="491" y="344" on="1"/>
        <pt x="523" y="309" on="0"/>
        <pt x="523" y="248" on="1"/>
        <pt x="523" y="166" on="1"/>
        <pt x="523" y="80" on="0"/>
        <pt x="451" y="0" on="0"/>
        <pt x="365" y="0" on="1"/>
        <pt x="339" y="0" on="1"/>
        <pt x="339" y="-82" on="1"/>
        <pt x="339" y="-105" on="0"/>
        <pt x="267" y="-105" on="0"/>
        <pt x="267" y="-82" on="1"/>
        <pt x="267" y="0" on="1"/>
        <pt x="103" y="0" on="1"/>
        <pt x="83" y="0" on="0"/>
        <pt x="83" y="70" on="0"/>
        <pt x="103" y="70" on="1"/>
        <pt x="267" y="70" on="1"/>
        <pt x="267" y="347" on="1"/>
        <pt x="238" y="354" on="1"/>
        <pt x="177" y="368" on="0"/>
        <pt x="146" y="385" on="1"/>
        <pt x="80" y="420" on="0"/>
        <pt x="80" y="530" on="1"/>
        <pt x="80" y="574" on="1"/>
        <pt x="80" y="660" on="0"/>
        <pt x="152" y="740" on="0"/>
        <pt x="238" y="740" on="1"/>
        <pt x="267" y="740" on="1"/>
        <pt x="267" y="822" on="1"/>
        <pt x="267" y="845" on="0"/>
        <pt x="339" y="845" on="0"/>
      </contour>
      <contour>
        <pt x="443" y="166" on="1"/>
        <pt x="443" y="256" on="1"/>
        <pt x="443" y="287" on="0"/>
        <pt x="395" y="317" on="0"/>
        <pt x="339" y="331" on="1"/>
        <pt x="339" y="70" on="1"/>
        <pt x="365" y="70" on="1"/>
        <pt x="408" y="70" on="0"/>
        <pt x="443" y="115" on="0"/>
      </contour>
      <contour>
        <pt x="160" y="532" on="1"/>
        <pt x="160" y="477" on="0"/>
        <pt x="193" y="436" on="0"/>
        <pt x="238" y="426" on="1"/>
        <pt x="267" y="419" on="1"/>
        <pt x="267" y="670" on="1"/>
        <pt x="238" y="670" on="1"/>
        <pt x="195" y="670" on="0"/>
        <pt x="160" y="625" on="0"/>
        <pt x="160" y="574" on="1"/>
      </contour>
    </TTGlyph>
    <TTGlyph name="dotaccent" xMin="100" yMin="683" xMax="187" yMax="820">
      <contour>
        <pt x="187" y="795" on="1"/>
        <pt x="187" y="708" on="1"/>
        <pt x="187" y="683" on="0"/>
        <pt x="100" y="683" on="0"/>
        <pt x="100" y="708" on="1"/>
        <pt x="100" y="795" on="1"/>
        <pt x="100" y="820" on="0"/>
        <pt x="187" y="820" on="0"/>
      </contour>
    </TTGlyph>
    <TTGlyph name="dotlessi" xMin="110" yMin="-10" xMax="220" yMax="600">
      <contour>
        <pt x="190" y="577" on="1"/>
        <pt x="190" y="117" on="1"/>
        <pt x="190" y="85" on="0"/>
        <pt x="220" y="30" on="0"/>
        <pt x="220" y="29" on="1"/>
        <pt x="220" y="17" on="0"/>
        <pt x="182" y="-10" on="0"/>
        <pt x="169" y="-10" on="1"/>
        <pt x="148" y="-10" on="0"/>
        <pt x="110" y="63" on="0"/>
        <pt x="110" y="107" on="1"/>
        <pt x="110" y="577" on="1"/>
        <pt x="110" y="600" on="0"/>
        <pt x="190" y="600" on="0"/>
      </contour>
    </TTGlyph>
    <TTGlyph name="e" xMin="100" yMin="-15" xMax="538" yMax="615">
      <contour>
        <pt x="538" y="459" on="1"/>
        <pt x="538" y="429" on="1"/>
        <pt x="538" y="344" on="0"/>
        <pt x="468" y="280" on="0"/>
        <pt x="375" y="271" on="1"/>
        <pt x="180" y="252" on="1"/>
        <pt x="180" y="133" on="1"/>
        <pt x="180" y="55" on="0"/>
        <pt x="310" y="55" on="1"/>
        <pt x="458" y="55" on="0"/>
        <pt x="458" y="123" on="1"/>
        <pt x="458" y="161" on="1"/>
        <pt x="458" y="184" on="0"/>
        <pt x="538" y="184" on="0"/>
        <pt x="538" y="161" on="1"/>
        <pt x="538" y="133" on="1"/>
        <pt x="538" y="-15" on="0"/>
        <pt x="318" y="-15" on="1"/>
        <pt x="221" y="-15" on="0"/>
        <pt x="100" y="61" on="0"/>
        <pt x="100" y="143" on="1"/>
        <pt x="100" y="457" on="1"/>
        <pt x="100" y="540" on="0"/>
        <pt x="228" y="615" on="0"/>
        <pt x="434" y="615" on="0"/>
        <pt x="538" y="543" on="0"/>
      </contour>
      <contour>
        <pt x="180" y="467" on="1"/>
        <pt x="180" y="322" on="1"/>
        <pt x="368" y="341" on="1"/>
        <pt x="425" y="347" on="0"/>
        <pt x="458" y="383" on="0"/>
        <pt x="458" y="429" on="1"/>
        <pt x="458" y="467" on="1"/>
        <pt x="458" y="545" on="0"/>
        <pt x="180" y="545" on="0"/>
      </contour>
    </TTGlyph>
    <TTGlyph name="eacute" xMin="100" yMin="-15" xMax="538" yMax="846">
      <contour>
        <pt x="538" y="459" on="1"/>
        <pt x="538" y="429" on="1"/>
        <pt x="538" y="344" on="0"/>
        <pt x="468" y="280" on="0"/>
        <pt x="375" y="271" on="1"/>
        <pt x="180" y="252" on="1"/>
        <pt x="180" y="133" on="1"/>
        <pt x="180" y="55" on="0"/>
        <pt x="310" y="55" on="1"/>
        <pt x="458" y="55" on="0"/>
        <pt x="458" y="123" on="1"/>
        <pt x="458" y="161" on="1"/>
        <pt x="458" y="184" on="0"/>
        <pt x="538" y="184" on="0"/>
        <pt x="538" y="161" on="1"/>
        <pt x="538" y="133" on="1"/>
        <pt x="538" y="-15" on="0"/>
        <pt x="318" y="-15" on="1"/>
        <pt x="221" y="-15" on="0"/>
        <pt x="100" y="61" on="0"/>
        <pt x="100" y="143" on="1"/>
        <pt x="100" y="457" on="1"/>
        <pt x="100" y="540" on="0"/>
        <pt x="228" y="615" on="0"/>
        <pt x="434" y="615" on="0"/>
        <pt x="538" y="543" on="0"/>
      </contour>
      <contour>
        <pt x="180" y="467" on="1"/>
        <pt x="180" y="322" on="1"/>
        <pt x="368" y="341" on="1"/>
        <pt x="425" y="347" on="0"/>
        <pt x="458" y="383" on="0"/>
        <pt x="458" y="429" on="1"/>
        <pt x="458" y="467" on="1"/>
        <pt x="458" y="545" on="0"/>
        <pt x="180" y="545" on="0"/>
      </contour>
      <contour>
        <pt x="260" y="670" on="1"/>
        <pt x="253" y="667" on="1"/>
        <pt x="244" y="667" on="0"/>
        <pt x="221" y="701" on="0"/>
        <pt x="221" y="720" on="0"/>
        <pt x="228" y="726" on="1"/>
        <pt x="397" y="842" on="1"/>
        <pt x="402" y="846" on="0"/>
        <pt x="424" y="846" on="0"/>
        <pt x="456" y="797" on="0"/>
        <pt x="456" y="764" on="0"/>
        <pt x="445" y="758" on="1"/>
      </contour>
    </TTGlyph>
    <TTGlyph name="ecircumflex" xMin="100" yMin="-15" xMax="538" yMax="846">
      <contour>
        <pt x="538" y="459" on="1"/>
        <pt x="538" y="429" on="1"/>
        <pt x="538" y="344" on="0"/>
        <pt x="468" y="280" on="0"/>
        <pt x="375" y="271" on="1"/>
        <pt x="180" y="252" on="1"/>
        <pt x="180" y="133" on="1"/>
        <pt x="180" y="55" on="0"/>
        <pt x="310" y="55" on="1"/>
        <pt x="458" y="55" on="0"/>
        <pt x="458" y="123" on="1"/>
        <pt x="458" y="161" on="1"/>
        <pt x="458" y="184" on="0"/>
        <pt x="538" y="184" on="0"/>
        <pt x="538" y="161" on="1"/>
        <pt x="538" y="133" on="1"/>
        <pt x="538" y="-15" on="0"/>
        <pt x="318" y="-15" on="1"/>
        <pt x="221" y="-15" on="0"/>
        <pt x="100" y="61" on="0"/>
        <pt x="100" y="143" on="1"/>
        <pt x="100" y="457" on="1"/>
        <pt x="100" y="540" on="0"/>
        <pt x="228" y="615" on="0"/>
        <pt x="434" y="615" on="0"/>
        <pt x="538" y="543" on="0"/>
      </contour>
      <contour>
        <pt x="180" y="467" on="1"/>
        <pt x="180" y="322" on="1"/>
        <pt x="368" y="341" on="1"/>
        <pt x="425" y="347" on="0"/>
        <pt x="458" y="383" on="0"/>
        <pt x="458" y="429" on="1"/>
        <pt x="458" y="467" on="1"/>
        <pt x="458" y="545" on="0"/>
        <pt x="180" y="545" on="0"/>
      </contour>
      <contour>
        <pt x="314" y="846" on="1"/>
        <pt x="325" y="846" on="1"/>
        <pt x="330" y="846" on="0"/>
        <pt x="334" y="842" on="1"/>
        <pt x="454" y="726" on="1"/>
        <pt x="461" y="719" on="0"/>
        <pt x="461" y="698" on="0"/>
        <pt x="439" y="667" on="0"/>
        <pt x="426" y="667" on="0"/>
        <pt x="422" y="670" on="1"/>
        <pt x="319" y="746" on="1"/>
        <pt x="216" y="670" on="1"/>
        <pt x="212" y="667" on="0"/>
        <pt x="199" y="667" on="0"/>
        <pt x="177" y="698" on="0"/>
        <pt x="177" y="719" on="0"/>
        <pt x="184" y="726" on="1"/>
        <pt x="304" y="842" on="1"/>
        <pt x="308" y="846" on="0"/>
      </contour>
    </TTGlyph>
    <TTGlyph name="edieresis" xMin="100" yMin="-15" xMax="538" yMax="820">
      <contour>
        <pt x="538" y="459" on="1"/>
        <pt x="538" y="429" on="1"/>
        <pt x="538" y="344" on="0"/>
        <pt x="468" y="280" on="0"/>
        <pt x="375" y="271" on="1"/>
        <pt x="180" y="252" on="1"/>
        <pt x="180" y="133" on="1"/>
        <pt x="180" y="55" on="0"/>
        <pt x="310" y="55" on="1"/>
        <pt x="458" y="55" on="0"/>
        <pt x="458" y="123" on="1"/>
        <pt x="458" y="161" on="1"/>
        <pt x="458" y="184" on="0"/>
        <pt x="538" y="184" on="0"/>
        <pt x="538" y="161" on="1"/>
        <pt x="538" y="133" on="1"/>
        <pt x="538" y="-15" on="0"/>
        <pt x="318" y="-15" on="1"/>
        <pt x="221" y="-15" on="0"/>
        <pt x="100" y="61" on="0"/>
        <pt x="100" y="143" on="1"/>
        <pt x="100" y="457" on="1"/>
        <pt x="100" y="540" on="0"/>
        <pt x="228" y="615" on="0"/>
        <pt x="434" y="615" on="0"/>
        <pt x="538" y="543" on="0"/>
      </contour>
      <contour>
        <pt x="180" y="467" on="1"/>
        <pt x="180" y="322" on="1"/>
        <pt x="368" y="341" on="1"/>
        <pt x="425" y="347" on="0"/>
        <pt x="458" y="383" on="0"/>
        <pt x="458" y="429" on="1"/>
        <pt x="458" y="467" on="1"/>
        <pt x="458" y="545" on="0"/>
        <pt x="180" y="545" on="0"/>
      </contour>
      <contour>
        <pt x="262" y="795" on="1"/>
        <pt x="262" y="708" on="1"/>
        <pt x="262" y="683" on="0"/>
        <pt x="175" y="683" on="0"/>
        <pt x="175" y="708" on="1"/>
        <pt x="175" y="795" on="1"/>
        <pt x="175" y="820" on="0"/>
        <pt x="262" y="820" on="0"/>
      </contour>
      <contour>
        <pt x="462" y="795" on="1"/>
        <pt x="462" y="708" on="1"/>
        <pt x="462" y="683" on="0"/>
        <pt x="375" y="683" on="0"/>
        <pt x="375" y="708" on="1"/>
        <pt x="375" y="795" on="1"/>
        <pt x="375" y="820" on="0"/>
        <pt x="462" y="820" on="0"/>
      </contour>
    </TTGlyph>
    <TTGlyph name="egrave" xMin="100" yMin="-15" xMax="538" yMax="846">
      <contour>
        <pt x="538" y="459" on="1"/>
        <pt x="538" y="429" on="1"/>
        <pt x="538" y="344" on="0"/>
        <pt x="468" y="280" on="0"/>
        <pt x="375" y="271" on="1"/>
        <pt x="180" y="252" on="1"/>
        <pt x="180" y="133" on="1"/>
        <pt x="180" y="55" on="0"/>
        <pt x="310" y="55" on="1"/>
        <pt x="458" y="55" on="0"/>
        <pt x="458" y="123" on="1"/>
        <pt x="458" y="161" on="1"/>
        <pt x="458" y="184" on="0"/>
        <pt x="538" y="184" on="0"/>
        <pt x="538" y="161" on="1"/>
        <pt x="538" y="133" on="1"/>
        <pt x="538" y="-15" on="0"/>
        <pt x="318" y="-15" on="1"/>
        <pt x="221" y="-15" on="0"/>
        <pt x="100" y="61" on="0"/>
        <pt x="100" y="143" on="1"/>
        <pt x="100" y="457" on="1"/>
        <pt x="100" y="540" on="0"/>
        <pt x="228" y="615" on="0"/>
        <pt x="434" y="615" on="0"/>
        <pt x="538" y="543" on="0"/>
      </contour>
      <contour>
        <pt x="180" y="467" on="1"/>
        <pt x="180" y="322" on="1"/>
        <pt x="368" y="341" on="1"/>
        <pt x="425" y="347" on="0"/>
        <pt x="458" y="383" on="0"/>
        <pt x="458" y="429" on="1"/>
        <pt x="458" y="467" on="1"/>
        <pt x="458" y="545" on="0"/>
        <pt x="180" y="545" on="0"/>
      </contour>
      <contour>
        <pt x="404" y="667" on="1"/>
        <pt x="212" y="758" on="1"/>
        <pt x="201" y="764" on="0"/>
        <pt x="201" y="797" on="0"/>
        <pt x="233" y="846" on="0"/>
        <pt x="255" y="846" on="0"/>
        <pt x="260" y="842" on="1"/>
        <pt x="429" y="726" on="1"/>
        <pt x="436" y="720" on="0"/>
        <pt x="436" y="701" on="0"/>
        <pt x="413" y="667" on="0"/>
      </contour>
    </TTGlyph>
    <TTGlyph name="eight" xMin="63" yMin="-15" xMax="536" yMax="755">
      <contour>
        <pt x="536" y="173" on="1"/>
        <pt x="536" y="143" on="1"/>
        <pt x="536" y="61" on="0"/>
        <pt x="402" y="-15" on="0"/>
        <pt x="192" y="-15" on="0"/>
        <pt x="63" y="61" on="0"/>
        <pt x="63" y="143" on="1"/>
        <pt x="63" y="173" on="1"/>
        <pt x="63" y="233" on="0"/>
        <pt x="127" y="299" on="1"/>
        <pt x="211" y="384" on="1"/>
        <pt x="153" y="422" on="1"/>
        <pt x="108" y="452" on="0"/>
        <pt x="68" y="533" on="0"/>
        <pt x="68" y="567" on="1"/>
        <pt x="68" y="597" on="1"/>
        <pt x="68" y="653" on="0"/>
        <pt x="134" y="726" on="0"/>
        <pt x="235" y="755" on="0"/>
        <pt x="303" y="755" on="1"/>
        <pt x="407" y="755" on="0"/>
        <pt x="531" y="680" on="0"/>
        <pt x="531" y="597" on="1"/>
        <pt x="531" y="567" on="1"/>
        <pt x="531" y="507" on="0"/>
        <pt x="467" y="441" on="1"/>
        <pt x="387" y="359" on="1"/>
        <pt x="451" y="318" on="1"/>
        <pt x="496" y="288" on="0"/>
        <pt x="536" y="207" on="0"/>
      </contour>
      <contour>
        <pt x="143" y="168" on="1"/>
        <pt x="143" y="133" on="1"/>
        <pt x="143" y="92" on="0"/>
        <pt x="230" y="55" on="0"/>
        <pt x="365" y="55" on="0"/>
        <pt x="456" y="93" on="0"/>
        <pt x="456" y="133" on="1"/>
        <pt x="456" y="168" on="1"/>
        <pt x="456" y="226" on="0"/>
        <pt x="400" y="263" on="1"/>
        <pt x="273" y="344" on="1"/>
        <pt x="199" y="268" on="1"/>
        <pt x="167" y="235" on="0"/>
        <pt x="143" y="194" on="0"/>
      </contour>
      <contour>
        <pt x="451" y="572" on="1"/>
        <pt x="451" y="607" on="1"/>
        <pt x="451" y="685" on="0"/>
        <pt x="302" y="685" on="1"/>
        <pt x="235" y="685" on="0"/>
        <pt x="148" y="648" on="0"/>
        <pt x="148" y="607" on="1"/>
        <pt x="148" y="572" on="1"/>
        <pt x="148" y="514" on="0"/>
        <pt x="204" y="477" on="1"/>
        <pt x="324" y="399" on="1"/>
        <pt x="395" y="472" on="1"/>
        <pt x="427" y="505" on="0"/>
        <pt x="451" y="546" on="0"/>
      </contour>
    </TTGlyph>
    <TTGlyph name="ellipsis" xMin="50" yMin="-15" xMax="553" yMax="142">
      <contour>
        <pt x="151" y="114" on="1"/>
        <pt x="151" y="13" on="1"/>
        <pt x="151" y="-15" on="0"/>
        <pt x="50" y="-15" on="0"/>
        <pt x="50" y="13" on="1"/>
        <pt x="50" y="114" on="1"/>
        <pt x="50" y="142" on="0"/>
        <pt x="151" y="142" on="0"/>
      </contour>
      <contour>
        <pt x="352" y="114" on="1"/>
        <pt x="352" y="13" on="1"/>
        <pt x="352" y="-15" on="0"/>
        <pt x="251" y="-15" on="0"/>
        <pt x="251" y="13" on="1"/>
        <pt x="251" y="114" on="1"/>
        <pt x="251" y="142" on="0"/>
        <pt x="352" y="142" on="0"/>
      </contour>
      <contour>
        <pt x="553" y="114" on="1"/>
        <pt x="553" y="13" on="1"/>
        <pt x="553" y="-15" on="0"/>
        <pt x="452" y="-15" on="0"/>
        <pt x="452" y="13" on="1"/>
        <pt x="452" y="114" on="1"/>
        <pt x="452" y="142" on="0"/>
        <pt x="553" y="142" on="0"/>
      </contour>
    </TTGlyph>
    <TTGlyph name="emdash" xMin="90" yMin="289" xMax="876" yMax="359">
      <contour>
        <pt x="110" y="359" on="1"/>
        <pt x="856" y="359" on="1"/>
        <pt x="876" y="359" on="0"/>
        <pt x="876" y="289" on="0"/>
        <pt x="856" y="289" on="1"/>
        <pt x="110" y="289" on="1"/>
        <pt x="90" y="289" on="0"/>
        <pt x="90" y="359" on="0"/>
      </contour>
    </TTGlyph>
    <TTGlyph name="endash" xMin="90" yMin="289" xMax="563" yMax="359">
      <contour>
        <pt x="110" y="359" on="1"/>
        <pt x="543" y="359" on="1"/>
        <pt x="563" y="359" on="0"/>
        <pt x="563" y="289" on="0"/>
        <pt x="543" y="289" on="1"/>
        <pt x="110" y="289" on="1"/>
        <pt x="90" y="289" on="0"/>
        <pt x="90" y="359" on="0"/>
      </contour>
    </TTGlyph>
    <TTGlyph name="equal" xMin="75" yMin="226" xMax="525" yMax="516">
      <contour>
        <pt x="95" y="296" on="1"/>
        <pt x="505" y="296" on="1"/>
        <pt x="525" y="296" on="0"/>
        <pt x="525" y="226" on="0"/>
        <pt x="505" y="226" on="1"/>
        <pt x="95" y="226" on="1"/>
        <pt x="75" y="226" on="0"/>
        <pt x="75" y="296" on="0"/>
      </contour>
      <contour>
        <pt x="95" y="516" on="1"/>
        <pt x="505" y="516" on="1"/>
        <pt x="525" y="516" on="0"/>
        <pt x="525" y="446" on="0"/>
        <pt x="505" y="446" on="1"/>
        <pt x="95" y="446" on="1"/>
        <pt x="75" y="446" on="0"/>
        <pt x="75" y="516" on="0"/>
      </contour>
    </TTGlyph>
    <TTGlyph name="eth" xMin="100" yMin="-15" xMax="610" yMax="800">
      <contour>
        <pt x="533" y="546" on="1"/>
        <pt x="533" y="143" on="1"/>
        <pt x="533" y="60" on="0"/>
        <pt x="415" y="-15" on="0"/>
        <pt x="219" y="-15" on="0"/>
        <pt x="100" y="60" on="0"/>
        <pt x="100" y="143" on="1"/>
        <pt x="100" y="387" on="1"/>
        <pt x="100" y="470" on="0"/>
        <pt x="218" y="545" on="0"/>
        <pt x="423" y="545" on="0"/>
        <pt x="462" y="496" on="1"/>
        <pt x="462" y="547" on="1"/>
        <pt x="462" y="573" on="0"/>
        <pt x="452" y="611" on="1"/>
        <pt x="442" y="647" on="1"/>
        <pt x="348" y="622" on="1"/>
        <pt x="330" y="622" on="0"/>
        <pt x="330" y="680" on="0"/>
        <pt x="351" y="686" on="1"/>
        <pt x="426" y="706" on="1"/>
        <pt x="406" y="782" on="1"/>
        <pt x="406" y="800" on="0"/>
        <pt x="472" y="800" on="0"/>
        <pt x="478" y="779" on="1"/>
        <pt x="492" y="724" on="1"/>
        <pt x="592" y="751" on="1"/>
        <pt x="610" y="751" on="0"/>
        <pt x="610" y="691" on="0"/>
        <pt x="589" y="687" on="1"/>
        <pt x="508" y="665" on="1"/>
        <pt x="518" y="630" on="1"/>
        <pt x="533" y="572" on="0"/>
      </contour>
      <contour>
        <pt x="453" y="133" on="1"/>
        <pt x="453" y="397" on="1"/>
        <pt x="453" y="475" on="0"/>
        <pt x="180" y="475" on="0"/>
        <pt x="180" y="397" on="1"/>
        <pt x="180" y="133" on="1"/>
        <pt x="180" y="55" on="0"/>
        <pt x="453" y="55" on="0"/>
      </contour>
    </TTGlyph>
    <TTGlyph name="exclam" xMin="100" yMin="-15" xMax="200" yMax="815">
      <contour>
        <pt x="183" y="247" on="0"/>
        <pt x="117" y="247" on="0"/>
        <pt x="117" y="269" on="1"/>
        <pt x="100" y="787" on="1"/>
        <pt x="100" y="815" on="0"/>
        <pt x="200" y="815" on="0"/>
        <pt x="200" y="786" on="1"/>
        <pt x="183" y="269" on="1"/>
      </contour>
      <contour>
        <pt x="193" y="94" on="1"/>
        <pt x="193" y="9" on="1"/>
        <pt x="193" y="-15" on="0"/>
        <pt x="108" y="-15" on="0"/>
        <pt x="108" y="9" on="1"/>
        <pt x="108" y="94" on="1"/>
        <pt x="108" y="118" on="0"/>
        <pt x="193" y="118" on="0"/>
      </contour>
    </TTGlyph>
    <TTGlyph name="exclamdown" xMin="100" yMin="-215" xMax="200" yMax="615">
      <contour>
        <pt x="200" y="-215" on="0"/>
        <pt x="100" y="-215" on="0"/>
        <pt x="100" y="-187" on="1"/>
        <pt x="109" y="75" on="0"/>
        <pt x="117" y="331" on="1"/>
        <pt x="117" y="353" on="0"/>
        <pt x="183" y="353" on="0"/>
        <pt x="183" y="331" on="1"/>
        <pt x="200" y="-186" on="1"/>
      </contour>
      <contour>
        <pt x="193" y="591" on="1"/>
        <pt x="193" y="506" on="1"/>
        <pt x="193" y="482" on="0"/>
        <pt x="108" y="482" on="0"/>
        <pt x="108" y="506" on="1"/>
        <pt x="108" y="591" on="1"/>
        <pt x="108" y="615" on="0"/>
        <pt x="193" y="615" on="0"/>
      </contour>
    </TTGlyph>
    <TTGlyph name="f" xMin="60" yMin="-250" xMax="411" yMax="815">
      <contour>
        <pt x="80" y="600" on="1"/>
        <pt x="150" y="600" on="1"/>
        <pt x="150" y="657" on="1"/>
        <pt x="150" y="815" on="0"/>
        <pt x="356" y="815" on="1"/>
        <pt x="391" y="815" on="1"/>
        <pt x="411" y="815" on="0"/>
        <pt x="411" y="745" on="0"/>
        <pt x="391" y="745" on="1"/>
        <pt x="356" y="745" on="1"/>
        <pt x="230" y="745" on="0"/>
        <pt x="230" y="667" on="1"/>
        <pt x="230" y="600" on="1"/>
        <pt x="345" y="600" on="1"/>
        <pt x="365" y="600" on="0"/>
        <pt x="365" y="530" on="0"/>
        <pt x="345" y="530" on="1"/>
        <pt x="230" y="530" on="1"/>
        <pt x="230" y="-103" on="1"/>
        <pt x="230" y="-167" on="0"/>
        <pt x="193" y="-250" on="0"/>
        <pt x="171" y="-250" on="1"/>
        <pt x="158" y="-250" on="0"/>
        <pt x="120" y="-223" on="0"/>
        <pt x="120" y="-211" on="1"/>
        <pt x="120" y="-208" on="0"/>
        <pt x="128" y="-196" on="1"/>
        <pt x="150" y="-158" on="0"/>
        <pt x="150" y="-93" on="1"/>
        <pt x="150" y="530" on="1"/>
        <pt x="80" y="530" on="1"/>
        <pt x="60" y="530" on="0"/>
        <pt x="60" y="600" on="0"/>
      </contour>
    </TTGlyph>
    <TTGlyph name="fi" xMin="60" yMin="-250" xMax="605" yMax="820">
      <contour>
        <pt x="80" y="600" on="1"/>
        <pt x="150" y="600" on="1"/>
        <pt x="150" y="657" on="1"/>
        <pt x="150" y="815" on="0"/>
        <pt x="356" y="815" on="1"/>
        <pt x="391" y="815" on="1"/>
        <pt x="411" y="815" on="0"/>
        <pt x="411" y="745" on="0"/>
        <pt x="391" y="745" on="1"/>
        <pt x="356" y="745" on="1"/>
        <pt x="230" y="745" on="0"/>
        <pt x="230" y="667" on="1"/>
        <pt x="230" y="600" on="1"/>
        <pt x="555" y="600" on="1"/>
        <pt x="575" y="600" on="0"/>
        <pt x="575" y="565" on="1"/>
        <pt x="575" y="117" on="1"/>
        <pt x="575" y="85" on="0"/>
        <pt x="605" y="30" on="0"/>
        <pt x="605" y="29" on="1"/>
        <pt x="605" y="17" on="0"/>
        <pt x="567" y="-10" on="0"/>
        <pt x="554" y="-10" on="1"/>
        <pt x="533" y="-10" on="0"/>
        <pt x="495" y="63" on="0"/>
        <pt x="495" y="107" on="1"/>
        <pt x="495" y="530" on="1"/>
        <pt x="230" y="530" on="1"/>
        <pt x="230" y="-103" on="1"/>
        <pt x="230" y="-167" on="0"/>
        <pt x="193" y="-250" on="0"/>
        <pt x="171" y="-250" on="1"/>
        <pt x="158" y="-250" on="0"/>
        <pt x="120" y="-223" on="0"/>
        <pt x="120" y="-211" on="1"/>
        <pt x="120" y="-208" on="0"/>
        <pt x="128" y="-196" on="1"/>
        <pt x="150" y="-158" on="0"/>
        <pt x="150" y="-93" on="1"/>
        <pt x="150" y="530" on="1"/>
        <pt x="80" y="530" on="1"/>
        <pt x="60" y="530" on="0"/>
        <pt x="60" y="600" on="0"/>
      </contour>
      <contour>
        <pt x="578" y="795" on="1"/>
        <pt x="578" y="708" on="1"/>
        <pt x="578" y="683" on="0"/>
        <pt x="491" y="683" on="0"/>
        <pt x="491" y="708" on="1"/>
        <pt x="491" y="795" on="1"/>
        <pt x="491" y="820" on="0"/>
        <pt x="578" y="820" on="0"/>
      </contour>
    </TTGlyph>
    <TTGlyph name="five" xMin="80" yMin="-15" xMax="537" yMax="740">
      <contour>
        <pt x="100" y="447" on="1"/>
        <pt x="100" y="564" on="1"/>
        <pt x="100" y="657" on="0"/>
        <pt x="172" y="740" on="0"/>
        <pt x="258" y="740" on="1"/>
        <pt x="490" y="740" on="1"/>
        <pt x="510" y="740" on="0"/>
        <pt x="510" y="670" on="0"/>
        <pt x="490" y="670" on="1"/>
        <pt x="258" y="670" on="1"/>
        <pt x="215" y="670" on="0"/>
        <pt x="180" y="622" on="0"/>
        <pt x="180" y="564" on="1"/>
        <pt x="180" y="442" on="1"/>
        <pt x="341" y="407" on="1"/>
        <pt x="457" y="383" on="0"/>
        <pt x="484" y="362" on="1"/>
        <pt x="523" y="332" on="0"/>
        <pt x="537" y="277" on="0"/>
        <pt x="537" y="248" on="1"/>
        <pt x="537" y="143" on="1"/>
        <pt x="537" y="61" on="0"/>
        <pt x="406" y="-15" on="0"/>
        <pt x="207" y="-15" on="0"/>
        <pt x="80" y="61" on="0"/>
        <pt x="80" y="143" on="1"/>
        <pt x="80" y="187" on="1"/>
        <pt x="80" y="210" on="0"/>
        <pt x="160" y="210" on="0"/>
        <pt x="160" y="187" on="1"/>
        <pt x="160" y="133" on="1"/>
        <pt x="160" y="92" on="0"/>
        <pt x="243" y="55" on="0"/>
        <pt x="370" y="55" on="0"/>
        <pt x="457" y="93" on="0"/>
        <pt x="457" y="133" on="1"/>
        <pt x="457" y="256" on="1"/>
        <pt x="457" y="289" on="0"/>
        <pt x="404" y="320" on="0"/>
        <pt x="341" y="334" on="1"/>
        <pt x="148" y="376" on="1"/>
        <pt x="120" y="382" on="0"/>
        <pt x="100" y="410" on="0"/>
      </contour>
    </TTGlyph>
    <TTGlyph name="fl" xMin="60" yMin="-250" xMax="605" yMax="815">
      <contour>
        <pt x="80" y="600" on="1"/>
        <pt x="150" y="600" on="1"/>
        <pt x="150" y="657" on="1"/>
        <pt x="150" y="815" on="0"/>
        <pt x="356" y="815" on="1"/>
        <pt x="391" y="815" on="1"/>
        <pt x="411" y="815" on="0"/>
        <pt x="411" y="745" on="0"/>
        <pt x="391" y="745" on="1"/>
        <pt x="356" y="745" on="1"/>
        <pt x="230" y="745" on="0"/>
        <pt x="230" y="667" on="1"/>
        <pt x="230" y="600" on="1"/>
        <pt x="345" y="600" on="1"/>
        <pt x="365" y="600" on="0"/>
        <pt x="365" y="530" on="0"/>
        <pt x="345" y="530" on="1"/>
        <pt x="230" y="530" on="1"/>
        <pt x="230" y="-103" on="1"/>
        <pt x="230" y="-167" on="0"/>
        <pt x="193" y="-250" on="0"/>
        <pt x="171" y="-250" on="1"/>
        <pt x="158" y="-250" on="0"/>
        <pt x="120" y="-223" on="0"/>
        <pt x="120" y="-211" on="1"/>
        <pt x="120" y="-208" on="0"/>
        <pt x="128" y="-196" on="1"/>
        <pt x="150" y="-158" on="0"/>
        <pt x="150" y="-93" on="1"/>
        <pt x="150" y="530" on="1"/>
        <pt x="80" y="530" on="1"/>
        <pt x="60" y="530" on="0"/>
        <pt x="60" y="600" on="0"/>
      </contour>
      <contour>
        <pt x="575" y="777" on="1"/>
        <pt x="575" y="117" on="1"/>
        <pt x="575" y="85" on="0"/>
        <pt x="605" y="30" on="0"/>
        <pt x="605" y="29" on="1"/>
        <pt x="605" y="17" on="0"/>
        <pt x="567" y="-10" on="0"/>
        <pt x="554" y="-10" on="1"/>
        <pt x="533" y="-10" on="0"/>
        <pt x="495" y="63" on="0"/>
        <pt x="495" y="107" on="1"/>
        <pt x="495" y="777" on="1"/>
        <pt x="495" y="800" on="0"/>
        <pt x="575" y="800" on="0"/>
      </contour>
    </TTGlyph>
    <TTGlyph name="florin" xMin="81" yMin="-200" xMax="490" yMax="740">
      <contour>
        <pt x="99" y="410" on="1"/>
        <pt x="212" y="410" on="1"/>
        <pt x="220" y="574" on="1"/>
        <pt x="224" y="660" on="0"/>
        <pt x="293" y="740" on="0"/>
        <pt x="378" y="740" on="1"/>
        <pt x="470" y="740" on="1"/>
        <pt x="490" y="740" on="0"/>
        <pt x="490" y="670" on="0"/>
        <pt x="470" y="670" on="1"/>
        <pt x="378" y="670" on="1"/>
        <pt x="336" y="670" on="0"/>
        <pt x="302" y="625" on="0"/>
        <pt x="300" y="574" on="1"/>
        <pt x="292" y="410" on="1"/>
        <pt x="432" y="410" on="1"/>
        <pt x="450" y="410" on="0"/>
        <pt x="450" y="347" on="0"/>
        <pt x="432" y="347" on="1"/>
        <pt x="289" y="347" on="1"/>
        <pt x="270" y="-53" on="1"/>
        <pt x="267" y="-115" on="0"/>
        <pt x="215" y="-200" on="0"/>
        <pt x="191" y="-200" on="1"/>
        <pt x="178" y="-200" on="0"/>
        <pt x="140" y="-173" on="0"/>
        <pt x="140" y="-161" on="1"/>
        <pt x="140" y="-158" on="0"/>
        <pt x="162" y="-133" on="0"/>
        <pt x="187" y="-80" on="0"/>
        <pt x="190" y="-43" on="1"/>
        <pt x="209" y="347" on="1"/>
        <pt x="99" y="347" on="1"/>
        <pt x="81" y="347" on="0"/>
        <pt x="81" y="410" on="0"/>
      </contour>
    </TTGlyph>
    <TTGlyph name="four" xMin="45" yMin="-5" xMax="543" yMax="750">
      <contour>
        <pt x="222" y="740" on="1"/>
        <pt x="226" y="750" on="0"/>
        <pt x="250" y="750" on="0"/>
        <pt x="268" y="744" on="1"/>
        <pt x="297" y="731" on="0"/>
        <pt x="297" y="717" on="1"/>
        <pt x="297" y="714" on="0"/>
        <pt x="295" y="710" on="1"/>
        <pt x="181" y="458" on="1"/>
        <pt x="125" y="335" on="0"/>
        <pt x="125" y="293" on="1"/>
        <pt x="125" y="288" on="1"/>
        <pt x="125" y="257" on="0"/>
        <pt x="158" y="230" on="0"/>
        <pt x="211" y="230" on="1"/>
        <pt x="390" y="230" on="1"/>
        <pt x="390" y="508" on="1"/>
        <pt x="390" y="531" on="0"/>
        <pt x="470" y="531" on="0"/>
        <pt x="470" y="508" on="1"/>
        <pt x="470" y="230" on="1"/>
        <pt x="523" y="230" on="1"/>
        <pt x="543" y="230" on="0"/>
        <pt x="543" y="160" on="0"/>
        <pt x="523" y="160" on="1"/>
        <pt x="470" y="160" on="1"/>
        <pt x="470" y="18" on="1"/>
        <pt x="470" y="-5" on="0"/>
        <pt x="390" y="-5" on="0"/>
        <pt x="390" y="18" on="1"/>
        <pt x="390" y="160" on="1"/>
        <pt x="211" y="160" on="1"/>
        <pt x="122" y="160" on="0"/>
        <pt x="45" y="220" on="0"/>
        <pt x="45" y="286" on="1"/>
        <pt x="45" y="299" on="1"/>
        <pt x="45" y="345" on="0"/>
        <pt x="109" y="489" on="1"/>
      </contour>
    </TTGlyph>
    <TTGlyph name="fraction" xMin="400" yMin="-15" xMax="611" yMax="755">
      <contour>
        <pt x="459" y="8" on="1"/>
        <pt x="454" y="-15" on="0"/>
        <pt x="400" y="-15" on="0"/>
        <pt x="400" y="2" on="1"/>
        <pt x="552" y="732" on="1"/>
        <pt x="557" y="755" on="0"/>
        <pt x="611" y="755" on="0"/>
        <pt x="611" y="738" on="1"/>
      </contour>
    </TTGlyph>
    <TTGlyph name="g" xMin="90" yMin="-250" xMax="614" yMax="630">
      <contour>
        <pt x="533" y="442" on="1"/>
        <pt x="533" y="120" on="1"/>
        <pt x="533" y="97" on="0"/>
        <pt x="453" y="97" on="0"/>
        <pt x="453" y="120" on="1"/>
        <pt x="453" y="452" on="1"/>
        <pt x="453" y="526" on="0"/>
        <pt x="328" y="530" on="1"/>
        <pt x="317" y="530" on="1"/>
        <pt x="180" y="530" on="0"/>
        <pt x="180" y="452" on="1"/>
        <pt x="180" y="176" on="1"/>
        <pt x="180" y="118" on="0"/>
        <pt x="215" y="70" on="0"/>
        <pt x="258" y="70" on="1"/>
        <pt x="337" y="70" on="1"/>
        <pt x="432" y="70" on="0"/>
        <pt x="533" y="-4" on="0"/>
        <pt x="533" y="-88" on="1"/>
        <pt x="533" y="-92" on="1"/>
        <pt x="533" y="-176" on="0"/>
        <pt x="432" y="-250" on="0"/>
        <pt x="337" y="-250" on="1"/>
        <pt x="110" y="-250" on="1"/>
        <pt x="90" y="-250" on="0"/>
        <pt x="90" y="-180" on="0"/>
        <pt x="110" y="-180" on="1"/>
        <pt x="337" y="-180" on="1"/>
        <pt x="396" y="-180" on="0"/>
        <pt x="453" y="-144" on="0"/>
        <pt x="453" y="-102" on="1"/>
        <pt x="453" y="-78" on="1"/>
        <pt x="453" y="-36" on="0"/>
        <pt x="396" y="0" on="0"/>
        <pt x="337" y="0" on="1"/>
        <pt x="258" y="0" on="1"/>
        <pt x="172" y="0" on="0"/>
        <pt x="100" y="83" on="0"/>
        <pt x="100" y="176" on="1"/>
        <pt x="100" y="442" on="1"/>
        <pt x="100" y="525" on="0"/>
        <pt x="219" y="600" on="0"/>
        <pt x="317" y="600" on="1"/>
        <pt x="457" y="600" on="1"/>
        <pt x="522" y="600" on="0"/>
        <pt x="560" y="622" on="1"/>
        <pt x="572" y="630" on="0"/>
        <pt x="575" y="630" on="1"/>
        <pt x="587" y="630" on="0"/>
        <pt x="614" y="592" on="0"/>
        <pt x="614" y="579" on="1"/>
        <pt x="614" y="561" on="0"/>
        <pt x="555" y="535" on="0"/>
        <pt x="506" y="531" on="1"/>
        <pt x="533" y="494" on="0"/>
      </contour>
    </TTGlyph>
    <TTGlyph name="germandbls" xMin="110" yMin="-15" xMax="607" yMax="740">
      <contour>
        <pt x="607" y="256" on="1"/>
        <pt x="607" y="143" on="1"/>
        <pt x="607" y="61" on="0"/>
        <pt x="505" y="-15" on="0"/>
        <pt x="349" y="-15" on="0"/>
        <pt x="250" y="61" on="0"/>
        <pt x="250" y="143" on="1"/>
        <pt x="250" y="187" on="1"/>
        <pt x="250" y="210" on="0"/>
        <pt x="330" y="210" on="0"/>
        <pt x="330" y="187" on="1"/>
        <pt x="330" y="133" on="1"/>
        <pt x="330" y="92" on="0"/>
        <pt x="385" y="55" on="0"/>
        <pt x="469" y="55" on="0"/>
        <pt x="527" y="93" on="0"/>
        <pt x="527" y="133" on="1"/>
        <pt x="527" y="256" on="1"/>
        <pt x="527" y="302" on="0"/>
        <pt x="496" y="334" on="0"/>
        <pt x="441" y="334" on="1"/>
        <pt x="329" y="334" on="1"/>
        <pt x="309" y="334" on="0"/>
        <pt x="309" y="404" on="0"/>
        <pt x="329" y="404" on="1"/>
        <pt x="360" y="404" on="1"/>
        <pt x="407" y="452" on="1"/>
        <pt x="463" y="509" on="0"/>
        <pt x="463" y="562" on="1"/>
        <pt x="463" y="574" on="1"/>
        <pt x="463" y="625" on="0"/>
        <pt x="428" y="670" on="0"/>
        <pt x="385" y="670" on="1"/>
        <pt x="268" y="670" on="1"/>
        <pt x="225" y="670" on="0"/>
        <pt x="190" y="622" on="0"/>
        <pt x="190" y="564" on="1"/>
        <pt x="190" y="18" on="1"/>
        <pt x="190" y="-5" on="0"/>
        <pt x="110" y="-5" on="0"/>
        <pt x="110" y="18" on="1"/>
        <pt x="110" y="564" on="1"/>
        <pt x="110" y="657" on="0"/>
        <pt x="182" y="740" on="0"/>
        <pt x="268" y="740" on="1"/>
        <pt x="385" y="740" on="1"/>
        <pt x="471" y="740" on="0"/>
        <pt x="543" y="660" on="0"/>
        <pt x="543" y="574" on="1"/>
        <pt x="543" y="557" on="1"/>
        <pt x="543" y="528" on="0"/>
        <pt x="508" y="451" on="0"/>
        <pt x="479" y="421" on="1"/>
        <pt x="462" y="403" on="1"/>
        <pt x="540" y="400" on="0"/>
        <pt x="607" y="336" on="0"/>
      </contour>
    </TTGlyph>
    <TTGlyph name="grave" xMin="50" yMin="667" xMax="285" yMax="846">
      <contour>
        <pt x="253" y="667" on="1"/>
        <pt x="61" y="758" on="1"/>
        <pt x="50" y="764" on="0"/>
        <pt x="50" y="797" on="0"/>
        <pt x="82" y="846" on="0"/>
        <pt x="104" y="846" on="0"/>
        <pt x="109" y="842" on="1"/>
        <pt x="278" y="726" on="1"/>
        <pt x="285" y="720" on="0"/>
        <pt x="285" y="701" on="0"/>
        <pt x="262" y="667" on="0"/>
      </contour>
    </TTGlyph>
    <TTGlyph name="greater" xMin="80" yMin="156" xMax="520" yMax="584">
      <contour>
        <pt x="520" y="406" on="0"/>
        <pt x="520" y="334" on="0"/>
        <pt x="504" y="289" on="0"/>
        <pt x="463" y="259" on="0"/>
        <pt x="423" y="244" on="0"/>
        <pt x="383" y="233" on="1"/>
        <pt x="100" y="156" on="1"/>
        <pt x="80" y="156" on="0"/>
        <pt x="80" y="232" on="0"/>
        <pt x="103" y="236" on="1"/>
        <pt x="372" y="311" on="1"/>
        <pt x="424" y="325" on="0"/>
        <pt x="450" y="345" on="0"/>
        <pt x="450" y="395" on="0"/>
        <pt x="424" y="415" on="0"/>
        <pt x="372" y="429" on="1"/>
        <pt x="103" y="504" on="1"/>
        <pt x="80" y="508" on="0"/>
        <pt x="80" y="584" on="0"/>
        <pt x="100" y="584" on="1"/>
        <pt x="383" y="507" on="1"/>
        <pt x="423" y="496" on="0"/>
        <pt x="463" y="481" on="0"/>
        <pt x="504" y="451" on="0"/>
      </contour>
    </TTGlyph>
    <TTGlyph name="greaterequal" xMin="75" yMin="0" xMax="525" yMax="584">
      <contour>
        <pt x="520" y="406" on="0"/>
        <pt x="520" y="334" on="0"/>
        <pt x="504" y="289" on="0"/>
        <pt x="463" y="259" on="0"/>
        <pt x="423" y="244" on="0"/>
        <pt x="383" y="233" on="1"/>
        <pt x="100" y="156" on="1"/>
        <pt x="80" y="156" on="0"/>
        <pt x="80" y="232" on="0"/>
        <pt x="103" y="236" on="1"/>
        <pt x="372" y="311" on="1"/>
        <pt x="424" y="325" on="0"/>
        <pt x="450" y="345" on="0"/>
        <pt x="450" y="395" on="0"/>
        <pt x="424" y="415" on="0"/>
        <pt x="372" y="429" on="1"/>
        <pt x="103" y="504" on="1"/>
        <pt x="80" y="508" on="0"/>
        <pt x="80" y="584" on="0"/>
        <pt x="100" y="584" on="1"/>
        <pt x="383" y="507" on="1"/>
        <pt x="423" y="496" on="0"/>
        <pt x="463" y="481" on="0"/>
        <pt x="504" y="451" on="0"/>
      </contour>
      <contour>
        <pt x="95" y="70" on="1"/>
        <pt x="505" y="70" on="1"/>
        <pt x="525" y="70" on="0"/>
        <pt x="525" y="0" on="0"/>
        <pt x="505" y="0" on="1"/>
        <pt x="95" y="0" on="1"/>
        <pt x="75" y="0" on="0"/>
        <pt x="75" y="70" on="0"/>
      </contour>
    </TTGlyph>
    <TTGlyph name="guillemotleft" xMin="70" yMin="103" xMax="509" yMax="615">
      <contour>
        <pt x="235" y="610" on="1"/>
        <pt x="240" y="615" on="0"/>
        <pt x="259" y="615" on="0"/>
        <pt x="300" y="582" on="0"/>
        <pt x="300" y="565" on="0"/>
        <pt x="295" y="560" on="1"/>
        <pt x="154" y="359" on="1"/>
        <pt x="295" y="158" on="1"/>
        <pt x="300" y="153" on="0"/>
        <pt x="300" y="135" on="0"/>
        <pt x="258" y="103" on="0"/>
        <pt x="240" y="103" on="0"/>
        <pt x="235" y="108" on="1"/>
        <pt x="84" y="309" on="1"/>
        <pt x="70" y="329" on="0"/>
        <pt x="70" y="389" on="0"/>
        <pt x="84" y="409" on="1"/>
      </contour>
      <contour>
        <pt x="444" y="610" on="1"/>
        <pt x="449" y="615" on="0"/>
        <pt x="468" y="615" on="0"/>
        <pt x="509" y="582" on="0"/>
        <pt x="509" y="565" on="0"/>
        <pt x="504" y="560" on="1"/>
        <pt x="363" y="359" on="1"/>
        <pt x="504" y="158" on="1"/>
        <pt x="509" y="153" on="0"/>
        <pt x="509" y="135" on="0"/>
        <pt x="467" y="103" on="0"/>
        <pt x="449" y="103" on="0"/>
        <pt x="444" y="108" on="1"/>
        <pt x="293" y="309" on="1"/>
        <pt x="279" y="329" on="0"/>
        <pt x="279" y="389" on="0"/>
        <pt x="293" y="409" on="1"/>
      </contour>
    </TTGlyph>
</ttFont>
